<?xml version="1.0" encoding="utf-8" standalone="no"?>
<!DOCTYPE svg PUBLIC "-//W3C//DTD SVG 1.1//EN"
  "http://www.w3.org/Graphics/SVG/1.1/DTD/svg11.dtd">
<svg xmlns:xlink="http://www.w3.org/1999/xlink" width="558pt" height="474.304831pt" viewBox="0 0 558 474.304831" xmlns="http://www.w3.org/2000/svg" version="1.1">
 <metadata>
  <rdf:RDF xmlns:dc="http://purl.org/dc/elements/1.1/" xmlns:cc="http://creativecommons.org/ns#" xmlns:rdf="http://www.w3.org/1999/02/22-rdf-syntax-ns#">
   <cc:Work>
    <dc:type rdf:resource="http://purl.org/dc/dcmitype/StillImage"/>
    <dc:date>2025-01-12T14:40:11.280384</dc:date>
    <dc:format>image/svg+xml</dc:format>
    <dc:creator>
     <cc:Agent>
      <dc:title>Matplotlib v3.10.0, https://matplotlib.org/</dc:title>
     </cc:Agent>
    </dc:creator>
   </cc:Work>
  </rdf:RDF>
 </metadata>
 <defs>
  <style type="text/css">*{stroke-linejoin: round; stroke-linecap: butt}</style>
 </defs>
 <g id="figure_1">
  <g id="patch_1">
   <path d="M 0 474.304831 
L 558 474.304831 
L 558 0 
L 0 0 
z
" style="fill: #ffffff"/>
  </g>
  <g id="axes_1">
   <g id="LineCollection_1">
    <path d="M 465.900334 370.023033 
L 464.247943 372.327233 
L 464.122155 372.853254 
L 464.408036 372.784642 
L 464.996951 373.553662 
L 465.271396 373.722332 
L 465.963228 373.94246 
L 465.225655 374.408446 
L 465.082715 375.06883 
L 465.374313 376.855586 
L 465.33429 377.784699 
L 465.162761 378.582306 
L 464.819704 379.308444 
L 463.60757 380.933676 
L 463.15016 381.235281 
L 462.709904 381.361068 
L 461.371981 381.455409 
L 460.903137 382.085776 
L 460.411421 383.562351 
L 460.291352 383.478016 
L 458.024316 382.799049 
L 457.178109 381.935689 
L 456.280443 381.492574 
L 455.314166 381.146658 
L 449.579395 380.083181 
L 447.726887 380.248992 
L 445.92012 380.699254 
L 445.422688 381.005147 
L 445.119654 381.389656 
L 445.15396 381.589773 
L 445.319771 381.838489 
L 445.542758 382.836214 
L 446.057343 383.369381 
L 446.177413 383.855379 
L 446.023037 384.394264 
L 445.016737 385.949456 
L 444.91382 386.464042 
L 445.016737 388.026381 
L 444.902384 388.602431 
L 444.296317 389.554414 
L 443.981848 390.727955 
L 443.20997 391.589886 
L 437.801104 394.740293 
L 435.942878 395.433554 
L 428.321294 396.321214 
L 422.586524 397.8421 
L 421.694576 398.266633 
L 419.636233 399.587403 
L 417.852337 400.252076 
L 416.994694 400.715203 
L 417.069023 400.846708 
L 414.00438 401.245512 
L 413.169608 401.544258 
L 412.666458 401.913044 
L 411.65444 402.97938 
L 410.93402 403.533988 
L 408.50975 404.748982 
L 407.720719 405.576607 
L 407.38338 405.679524 
L 406.668677 405.749565 
L 406.331338 406.14694 
L 406.222703 406.893089 
L 406.502867 407.622085 
L 407.509167 408.83422 
L 411.402865 411.567241 
L 412.231919 412.802246 
L 412.39773 413.476925 
L 412.695046 414.055834 
L 413.14102 414.494661 
L 414.467507 415.029258 
L 415.582443 415.802566 
L 416.028417 415.964088 
L 416.960389 416.578732 
L 418.835767 419.506152 
L 420.288042 420.881239 
L 416.417215 425.172311 
L 416.194228 426.244364 
L 414.799129 427.716651 
L 415.702513 428.335583 
L 418.784309 428.722952 
L 419.613363 428.627181 
L 421.014179 428.211225 
L 421.871822 428.304136 
L 422.557936 428.652911 
L 423.238332 429.208949 
L 424.318962 430.458248 
L 424.759219 431.261574 
L 424.913594 431.970558 
L 424.759219 433.311339 
L 424.621996 433.431409 
L 423.930164 434.680709 
L 423.038216 435.472599 
L 422.889558 435.435434 
L 422.935299 436.690451 
L 423.055369 436.659004 
L 422.992475 436.739051 
L 422.329231 437.779657 
L 422.374972 439.086133 
L 422.838099 440.468367 
L 420.876956 441.963524 
L 420.282324 441.982106 
L 419.098777 441.426068 
L 418.521298 441.437503 
L 417.595044 441.716237 
L 416.988977 441.548997 
L 414.278826 440.162474 
L 411.282795 438.022656 
L 409.910566 437.79681 
L 408.544056 437.050661 
L 408.252457 435.68558 
L 408.927136 434.403404 
L 410.436587 433.897395 
L 409.338805 433.179834 
L 407.903683 432.539461 
L 407.034605 431.819041 
L 407.606367 430.852764 
L 406.657242 430.935669 
L 403.552576 430.395355 
L 401.579998 430.395355 
L 399.60742 430.715541 
L 398.555378 431.072892 
L 396.091085 432.559473 
L 395.227725 432.818195 
L 394.061331 432.972571 
L 392.923525 432.952559 
L 392.145929 432.693837 
L 390.053281 431.43739 
L 389.750248 430.984269 
L 388.915476 429.486253 
L 388.006374 429.366184 
L 385.83368 429.929369 
L 384.895991 430.032286 
L 381.699842 429.572018 
L 380.493425 429.689229 
L 379.25842 430.125197 
L 378.65807 430.186662 
L 378.109179 429.856469 
L 377.806145 429.246114 
L 377.989109 428.860174 
L 378.343601 428.528553 
L 378.852469 427.247806 
L 378.715246 427.266389 
L 377.428782 427.708074 
L 376.096578 428.457082 
L 375.221782 428.697222 
L 375.507663 429.454807 
L 376.365306 430.120909 
L 376.645469 430.248126 
L 376.799844 430.552589 
L 376.83415 432.548038 
L 376.634034 432.9011 
L 375.055971 434.27047 
L 374.615715 434.331934 
L 361.905451 433.95743 
L 357.262746 434.597803 
L 356.639526 434.849379 
L 356.084917 435.789927 
L 355.513155 435.918573 
L 352.397054 435.485463 
L 347.891571 435.472599 
L 345.478737 435.146695 
L 344.455283 435.123824 
L 344.266602 435.283917 
L 342.722845 436.19016 
L 342.345482 436.776216 
L 341.63078 438.568689 
L 340.62448 439.326273 
L 339.42378 439.649318 
L 336.827982 439.940917 
L 335.575823 439.672189 
L 334.215031 439.546401 
L 332.957155 439.746518 
L 330.349921 441.78056 
L 331.030318 441.906348 
L 331.630668 442.173646 
L 331.842219 442.585315 
L 331.367657 443.134206 
L 330.469991 443.395787 
L 328.068592 443.434381 
L 327.039421 443.657368 
L 325.970226 444.332047 
L 324.44934 445.575629 
L 323.242923 445.950133 
L 321.916436 445.847215 
L 322.036506 444.343482 
L 320.852959 444.014719 
L 319.45786 444.273441 
L 315.844326 445.971574 
L 314.763696 446.19599 
L 308.994621 446.138814 
L 308.222742 445.832921 
L 307.656698 445.083914 
L 307.788203 445.078196 
L 307.965449 444.823762 
L 308.091237 444.440682 
L 308.074084 444.069036 
L 307.908273 443.817461 
L 305.146664 441.799142 
L 302.299291 440.904335 
L 301.921928 440.465508 
L 303.705825 439.640742 
L 304.168952 439.26052 
L 302.310726 438.387154 
L 301.544565 438.351419 
L 300.761252 438.502936 
L 298.531381 439.194768 
L 296.896142 439.329132 
L 296.42158 439.231932 
L 295.741184 438.508654 
L 288.439786 436.638993 
L 287.101864 436.627558 
L 286.335703 436.989197 
L 285.21505 438.048385 
L 284.511783 438.431466 
L 283.859975 438.508654 
L 281.504316 438.265655 
L 280.189264 437.779657 
L 279.897666 437.525223 
L 279.800466 437.050661 
L 280.34364 436.215889 
L 280.097783 435.699874 
L 279.903384 435.596957 
L 279.48028 435.70988 
L 278.554026 435.822803 
L 277.724971 436.044361 
L 277.805018 436.521782 
L 278.651225 437.751069 
L 278.582614 438.262796 
L 278.022287 440.468367 
L 278.799883 440.755677 
L 279.274446 441.113028 
L 279.571762 441.600455 
L 279.800466 442.28514 
L 279.811902 443.471545 
L 279.308751 444.715127 
L 278.502567 445.834351 
L 277.582031 446.664835 
L 277.107469 446.882104 
L 275.941075 447.157979 
L 275.369313 447.41956 
L 275.037691 447.766905 
L 273.808403 449.446456 
L 272.813538 450.355557 
L 271.732908 451.027377 
L 269.25718 452.060836 
L 268.050763 452.379593 
L 263.653915 452.745521 
L 263.408057 452.648321 
L 264.139913 451.677756 
L 264.3629 451.573409 
L 265.094755 451.424751 
L 265.363483 451.244646 
L 265.500705 450.87586 
L 265.34633 450.181169 
L 266.346913 448.134262 
L 266.386936 447.137968 
L 265.3692 446.764893 
L 262.939213 447.065068 
L 262.047265 447.681141 
L 261.761384 447.679712 
L 260.915176 447.41956 
L 259.39429 447.879828 
L 258.856834 447.525336 
L 258.559518 446.996456 
L 258.359401 445.827204 
L 257.753334 445.346924 
L 259.01121 444.682251 
L 259.268503 444.100483 
L 258.782505 443.451534 
L 256.060919 440.74996 
L 255.431981 440.944359 
L 254.940266 441.235957 
L 254.454269 441.378897 
L 253.848201 441.13304 
L 253.745284 440.474085 
L 253.242134 439.729365 
L 251.972823 438.743076 
L 251.818447 437.828257 
L 251.149486 438.191326 
L 250.314714 438.302819 
L 248.66804 438.214196 
L 247.004213 437.79681 
L 246.72405 437.848269 
L 246.043654 438.145585 
L 245.59768 438.168455 
L 244.471309 437.77394 
L 244.259757 437.189313 
L 244.368392 436.516064 
L 244.185428 435.861397 
L 243.539337 435.383976 
L 242.756024 435.192436 
L 241.926969 435.255329 
L 241.126503 435.544069 
L 239.920086 436.493193 
L 239.233971 437.499494 
L 238.433505 438.345702 
L 236.924054 438.831699 
L 233.379131 438.873152 
L 229.775476 438.172435 
L 214.602476 431.780447 
L 212.452652 431.444537 
L 210.382874 431.445967 
L 209.633867 430.655506 
L 206.574941 430.655506 
L 200.405632 430.186662 
L 199.359308 430.466825 
L 198.478795 431.112916 
L 196.466194 431.547455 
L 194.299217 431.686107 
L 192.944142 431.445967 
L 191.29692 430.608095 
L 190.514154 430.079456 
L 190.508437 429.694946 
L 191.526172 429.534853 
L 190.096768 428.621464 
L 188.290001 427.91105 
L 186.803421 427.865309 
L 186.305988 428.950227 
L 186.75768 429.291854 
L 183.835977 429.320443 
L 183.59012 428.538558 
L 183.149863 428.171201 
L 182.915441 427.71951 
L 183.098405 427.35787 
L 183.984635 426.401599 
L 183.618708 425.842702 
L 183.075534 425.771232 
L 182.463749 425.856996 
L 181.891987 425.769802 
L 181.480319 425.329546 
L 181.04578 424.689173 
L 180.514041 424.144569 
L 179.799339 423.984476 
L 179.296189 424.338968 
L 179.010308 425.545386 
L 178.324194 425.848419 
L 177.78102 425.575403 
L 177.586621 424.903583 
L 177.449399 423.785789 
L 176.425945 423.474179 
L 175.047999 423.42272 
L 174.167486 423.762919 
L 174.682072 424.634855 
L 173.8473 424.920736 
L 169.816379 425.483921 
L 168.810079 426.630304 
L 168.392693 427.736663 
L 167.803778 428.108308 
L 166.402962 428.627181 
L 165.859788 429.045997 
L 165.796894 429.454807 
L 166.031317 429.859328 
L 166.16854 430.331031 
L 165.814047 430.929952 
L 166.957571 431.17438 
L 168.37554 431.904806 
L 169.519063 432.345062 
L 170.502494 432.316474 
L 172.915328 431.378785 
L 175.602608 431.070033 
L 177.004853 431.333532 
L 177.763868 431.43739 
L 177.449399 432.748154 
L 177.089189 432.625225 
L 177.003424 432.196404 
L 176.471686 432.276451 
L 176.271569 432.393662 
L 176.145782 432.699554 
L 176.391639 433.35708 
L 176.048717 434.826825 
L 175.928512 434.969448 
L 175.185222 435.138118 
L 174.573437 434.62925 
L 173.915911 433.880242 
L 173.063986 433.339928 
L 171.405877 433.45428 
L 169.713462 434.211864 
L 168.99876 435.42114 
L 167.29491 435.615539 
L 163.755705 435.601245 
L 161.657339 435.223882 
L 161.114166 434.983743 
L 160.130736 433.677267 
L 159.490363 433.631526 
L 158.055241 433.33421 
L 157.054658 433.337069 
L 153.78418 433.803055 
L 153.132372 434.343369 
L 152.120354 434.547774 
L 150.467962 435.223882 
L 149.776131 435.868544 
L 149.530273 436.108684 
L 148.992817 436.355971 
L 146.505654 436.733333 
L 139.307173 436.733333 
L 139.158515 436.498911 
L 138.872634 435.461164 
L 138.535295 435.223882 
L 134.967502 435.078083 
L 134.189906 434.809355 
L 133.183605 435.874261 
L 132.303092 436.587534 
L 131.262486 436.987767 
L 126.654086 437.635288 
L 125.436234 437.525223 
L 122.577425 436.50177 
L 122.720726 436.50262 
L 124.023982 436.510346 
L 124.612897 436.125837 
L 125.339034 434.740744 
L 124.086876 434.829367 
L 121.265288 435.402417 
L 121.622583 434.639256 
L 121.502513 434.111806 
L 120.856422 433.614373 
L 120.5248 433.33421 
L 119.27836 431.650372 
L 118.529352 430.944246 
L 117.711733 430.655506 
L 117.494463 430.401072 
L 117.317217 429.805011 
L 117.162841 428.614317 
L 117.35724 428.282695 
L 118.597963 427.259242 
L 118.626551 426.355858 
L 117.940437 424.419015 
L 118.089095 423.651425 
L 118.878127 421.858952 
L 119.186878 421.593083 
L 119.935886 421.317208 
L 120.055956 420.698276 
L 119.707181 419.143084 
L 119.935886 418.67138 
L 120.5248 418.159654 
L 120.976492 417.357758 
L 120.907881 416.458662 
L 121.205197 415.71966 
L 122.680342 414.669048 
L 123.206363 414.002946 
L 123.086293 412.276225 
L 120.696329 409.451722 
L 120.5248 407.168964 
L 121.24522 405.246415 
L 122.302979 403.982821 
L 122.411614 403.185214 
L 122.777542 402.509105 
L 126.276723 399.23434 
L 126.85992 398.431015 
L 127.208695 397.493326 
L 127.323047 396.369814 
L 127.706128 395.207708 
L 128.598076 394.720281 
L 129.615812 394.351495 
L 130.376255 393.538164 
L 130.444867 392.764856 
L 129.627247 390.655055 
L 129.690141 389.928918 
L 130.376255 387.837699 
L 131.399709 386.418301 
L 131.514061 385.36483 
L 131.799942 384.863109 
L 132.463185 384.411417 
L 133.846849 383.68528 
L 133.846849 383.305058 
L 133.19504 382.130088 
L 133.200758 380.20611 
L 133.669603 378.399343 
L 136.002391 375.983649 
L 136.648481 375.680616 
L 137.5633 375.483358 
L 138.409507 374.99736 
L 139.924676 373.796661 
L 140.582202 373.513639 
L 141.314057 373.041935 
L 141.908689 372.515914 
L 142.154547 372.078517 
L 142.223158 371.023616 
L 142.514757 370.529042 
L 143.143695 370.39182 
L 145.12199 370.277467 
L 145.436459 370.097362 
L 145.933892 368.976709 
L 146.311255 368.676534 
L 146.797252 368.66224 
L 149.164346 367.75028 
L 149.85046 366.986978 
L 152.360494 362.427179 
L 154.087214 360.271637 
L 155.24789 359.393983 
L 154.607517 358.996608 
L 149.170063 358.253318 
L 140.399238 355.174381 
L 139.398655 355.100052 
L 136.248248 355.317321 
L 131.645566 354.439667 
L 131.033781 354.548302 
L 129.735882 355.014288 
L 129.061203 355.12864 
L 128.529465 355.077181 
L 126.745568 354.734124 
L 123.972524 355.011429 
L 123.457938 354.722689 
L 122.920482 354.005128 
L 122.514531 353.673506 
L 121.285244 353.253262 
L 118.866691 352.975957 
L 117.660274 352.472807 
L 116.934137 351.869598 
L 115.681979 350.534535 
L 114.904383 350.002796 
L 115.138805 349.694045 
L 115.550473 349.519657 
L 115.184546 348.719191 
L 114.183963 348.479051 
L 111.793999 348.373275 
L 111.553859 347.755773 
L 110.478947 347.695738 
L 109.181048 347.95303 
L 108.260511 348.296087 
L 108.003218 348.570533 
L 107.602985 349.373858 
L 107.322822 349.679751 
L 106.905436 349.808397 
L 105.281633 350.014231 
L 104.932858 350.291536 
L 104.349661 351.071991 
L 104.023757 351.292119 
L 103.674982 351.257813 
L 102.188402 350.800404 
L 97.419909 350.771816 
L 95.681753 350.280101 
L 93.263201 349.245212 
L 92.760051 349.571116 
L 92.805792 349.877009 
L 92.983038 350.165748 
L 92.897273 350.445911 
L 91.199141 351.149178 
L 89.981289 350.52024 
L 89.340915 349.002213 
L 89.369504 347.049647 
L 88.174522 347.009623 
L 84.721081 345.728877 
L 84.109296 345.668842 
L 82.496928 345.771759 
L 80.18701 345.425843 
L 79.632401 345.514467 
L 79.312215 346.283486 
L 79.729601 347.178293 
L 79.941153 348.095971 
L 78.986311 348.927884 
L 78.283044 349.03366 
L 76.127502 348.510498 
L 73.663209 348.496204 
L 73.0114 348.31324 
L 72.302416 347.538503 
L 72.456792 346.860965 
L 72.736955 346.160557 
L 72.38818 345.282903 
L 72.165193 345.285762 
L 71.176045 345.623101 
L 71.027387 345.425843 
L 70.855859 344.868376 
L 70.678613 344.636812 
L 70.244074 343.6105 
L 70.009651 343.450407 
L 68.946174 343.118785 
L 68.883281 342.895798 
L 68.997633 342.335471 
L 68.911869 342.101049 
L 65.232582 339.779696 
L 64.306328 339.044983 
L 63.957553 338.401751 
L 64.260587 337.895741 
L 65.244017 337.864295 
L 65.484157 337.41832 
L 65.295476 337.086699 
L 62.225115 334.853969 
L 62.33375 334.831098 
L 62.322315 334.522347 
L 62.173657 334.064938 
L 61.8306 333.60467 
L 60.881475 333.007179 
L 55.804231 331.351928 
L 55.192446 331.283317 
L 54.740754 331.397669 
L 53.688713 331.869373 
L 52.626937 331.91115 
L 52.630953 331.503445 
L 52.459425 329.828183 
L 52.92827 327.50969 
L 52.92827 325.75724 
L 53.242738 325.148314 
L 54.077511 324.296389 
L 55.51835 323.14143 
L 56.644721 321.743472 
L 56.593262 321.377545 
L 55.804231 320.822936 
L 56.661874 320.042481 
L 60.7271 318.332914 
L 60.241102 317.929822 
L 60.429783 317.661094 
L 60.687076 317.578188 
L 61.167356 317.701117 
L 60.77284 317.35806 
L 60.50983 316.960686 
L 60.384042 316.508994 
L 60.424066 316.01442 
L 60.961522 315.708527 
L 60.984392 315.494117 
L 60.835734 315.248259 
L 60.841452 314.856602 
L 61.310296 313.072706 
L 61.327449 313.084141 
L 61.030133 312.875448 
L 60.812864 312.866872 
L 59.109014 312.540967 
L 56.456039 312.540967 
L 55.489762 312.369439 
L 54.552073 311.9835 
L 52.962575 311.002928 
L 52.024886 310.619848 
L 51.538889 310.611271 
L 50.709834 310.937176 
L 50.26386 310.911446 
L 50.206684 310.725624 
L 49.389064 309.467748 
L 48.58288 309.130409 
L 46.707502 308.590094 
L 45.844142 308.02405 
L 44.025939 305.193829 
L 43.076815 304.201822 
L 42.482183 304.962266 
L 42.041926 304.479127 
L 41.201436 302.923935 
L 40.246594 301.986246 
L 40.006454 301.537413 
L 40.16083 300.922769 
L 39.817773 299.76781 
L 39.457563 299.31326 
L 38.857213 299.090273 
L 39.577633 298.264077 
L 39.451846 298.252642 
L 39.023024 298.23263 
L 39.640527 295.916995 
L 40.023607 295.116529 
L 40.526758 294.736307 
L 40.686851 294.364662 
L 40.492452 294.024464 
L 39.932125 293.732865 
L 40.338076 292.657953 
L 40.812638 292.469272 
L 41.916139 292.412096 
L 42.327807 292.240567 
L 42.659429 291.717405 
L 42.693734 291.094185 
L 42.384983 290.465247 
L 41.647411 289.939226 
L 42.219172 289.458946 
L 43.47133 288.890043 
L 44.014504 288.352587 
L 45.163745 288.003813 
L 47.542274 287.574991 
L 48.56001 286.986077 
L 48.314152 286.488644 
L 48.428505 285.931176 
L 48.794432 285.399438 
L 49.343323 284.970617 
L 50.092331 284.693312 
L 50.709834 284.727618 
L 52.082062 284.970617 
L 53.55149 284.799088 
L 54.243322 284.327385 
L 54.128969 283.555506 
L 52.20785 281.417117 
L 52.133521 280.76245 
L 52.516601 280.022019 
L 52.911117 278.718402 
L 52.95114 277.795007 
L 52.739588 277.606325 
L 52.345073 277.557726 
L 51.87051 277.057434 
L 51.407383 275.999675 
L 51.544606 275.55656 
L 52.162109 275.170621 
L 51.155808 275.133456 
L 48.760126 274.781823 
L 47.525121 274.447342 
L 47.405051 274.52453 
L 45.53539 274.893316 
L 44.986499 274.876163 
L 44.546243 274.650317 
L 44.07168 274.018521 
L 43.625706 273.75551 
L 44.065963 273.278089 
L 42.973898 273.126572 
L 42.899569 272.874997 
L 43.334108 272.449035 
L 42.413571 271.708603 
L 43.431307 270.690867 
L 45.17518 269.767472 
L 46.410186 269.298628 
L 46.410186 269.098511 
L 47.039124 268.612513 
L 47.427922 268.120798 
L 47.302134 267.789177 
L 43.482766 267.729142 
L 42.34496 267.34892 
L 41.698869 266.554171 
L 42.436442 266.253996 
L 39.068765 262.983519 
L 38.005288 262.30884 
L 37.084752 262.254523 
L 34.894904 262.637603 
L 34.163049 262.583286 
L 33.94578 262.120159 
L 34.151614 261.536962 
L 34.123026 261.005224 
L 33.122443 260.596414 
L 33.151031 260.396297 
L 33.242513 260.29338 
L 33.362583 259.57296 
L 33.002373 259.235621 
L 32.453482 258.992622 
L 32.030378 258.529495 
L 31.795956 257.820511 
L 32.636446 257.954875 
L 33.431194 257.483171 
L 33.722793 256.825645 
L 33.551264 255.839356 
L 34.037262 255.284747 
L 34.797705 255.010302 
L 36.044146 255.078913 
L 36.661648 254.610069 
L 36.998988 254.041166 
L 37.01614 253.600909 
L 36.547296 252.463103 
L 36.650213 252.097176 
L 37.050446 251.574014 
L 35.243679 251.176639 
L 33.940062 250.659195 
L 33.516959 250.364738 
L 33.374018 249.924481 
L 33.293972 249.126874 
L 33.505523 248.666605 
L 33.842863 248.20062 
L 33.728511 247.91188 
L 31.744497 248.063397 
L 29.526062 247.69461 
L 28.777054 247.828974 
L 27.341932 248.277807 
L 26.587206 248.375007 
L 26.53003 246.979908 
L 25.678105 245.388981 
L 25.363636 244.093941 
L 26.913111 243.579355 
L 27.679271 243.850942 
L 28.336797 244.389828 
L 29.07437 244.81579 
L 30.092106 244.747179 
L 30.772502 244.275475 
L 31.835979 242.867512 
L 32.579269 242.327197 
L 37.696537 239.80001 
L 40.846944 238.723669 
L 41.670281 238.036125 
L 40.509605 237.354299 
L 42.213455 236.542398 
L 40.944144 236.267952 
L 38.188252 237.458646 
L 36.890353 237.004095 
L 36.495837 235.982071 
L 36.655931 234.747066 
L 37.130493 233.644995 
L 37.696537 233.03464 
L 38.862931 232.141262 
L 41.698869 228.85792 
L 42.276348 228.501998 
L 43.682882 227.887355 
L 44.231774 227.399928 
L 44.52909 226.710955 
L 44.700618 225.49882 
L 45.020805 225.012822 
L 44.186033 224.388173 
L 44.260362 223.369007 
L 44.683465 222.192608 
L 44.883582 221.097684 
L 44.220338 218.281757 
L 41.990468 216.672248 
L 38.308322 213.513265 
L 38.068182 212.834298 
L 38.365498 212.043837 
L 39.011589 210.805973 
L 35.26655 209.78109 
L 33.997239 208.774789 
L 34.740529 207.208162 
L 34.191638 206.856529 
L 32.321977 206.08608 
L 30.715326 206.10895 
L 30.166435 205.970298 
L 30.212176 205.375666 
L 31.441464 204.616652 
L 31.538663 203.498858 
L 30.80109 202.428234 
L 29.543215 201.829314 
L 29.731896 201.336169 
L 30.652432 200.931648 
L 32.910891 200.682931 
L 33.980086 200.399909 
L 35.918358 199.609449 
L 38.171099 199.233515 
L 42.161996 199.875318 
L 41.418706 199.14918 
L 38.668532 197.482495 
L 40.549628 196.850698 
L 42.333525 197.372431 
L 44.111704 198.265809 
L 45.981364 198.7418 
L 48.165494 198.540254 
L 48.56001 198.777535 
L 49.42337 199.648043 
L 51.544606 199.848159 
L 52.442272 200.172634 
L 52.608083 201.034565 
L 54.683578 200.675784 
L 54.912283 200.124034 
L 54.460591 198.876164 
L 58.005514 199.526543 
L 59.131884 199.526543 
L 60.046703 199.26925 
L 62.768289 197.97421 
L 68.274354 196.807816 
L 73.171494 196.710617 
L 74.669509 196.208896 
L 75.955973 195.258342 
L 77.219567 193.840373 
L 77.671259 193.533051 
L 78.094362 193.48731 
L 78.374525 193.31864 
L 78.425984 192.642532 
L 78.288761 192.269457 
L 78.00288 192.002159 
L 76.573476 191.067328 
L 72.959942 189.818029 
L 71.747807 189.596471 
L 70.867294 189.211962 
L 70.752942 188.368613 
L 71.136022 187.792563 
L 71.633455 187.646764 
L 72.216652 187.621034 
L 72.879895 187.4152 
L 73.325869 187.067855 
L 74.06916 186.04869 
L 75.006849 185.446911 
L 76.208681 185.119122 
L 79.478026 184.892302 
L 80.175575 184.499215 
L 81.399145 182.961176 
L 82.474057 182.267915 
L 84.846868 181.627542 
L 85.950368 181.024334 
L 87.248268 179.726434 
L 87.8429 179.299042 
L 90.301475 178.378506 
L 90.455851 178.094055 
L 89.992724 177.569463 
L 89.501009 176.387346 
L 89.535315 175.373898 
L 89.935548 174.539126 
L 91.044765 172.958205 
L 91.51361 170.941315 
L 90.736014 169.519058 
L 87.368338 166.167105 
L 87.019563 166.267163 
L 86.676506 166.638808 
L 86.16192 166.936124 
L 84.778257 167.184841 
L 83.325982 167.243446 
L 81.765072 167.087641 
L 78.906264 166.41868 
L 74.526569 166.039888 
L 73.068577 165.60392 
L 71.976512 164.826324 
L 71.639172 164.001557 
L 71.559126 163.026704 
L 71.364727 162.038985 
L 70.68433 161.171337 
L 71.599149 161.121308 
L 74.669509 160.173613 
L 72.857025 159.237353 
L 72.468227 158.881431 
L 72.451074 158.421163 
L 72.702649 157.962324 
L 72.811284 157.466321 
L 72.348157 156.887412 
L 74.297864 156.025481 
L 76.150372 155.675277 
L 81.399145 155.623819 
L 84.332283 156.164133 
L 87.059586 155.916846 
L 87.894358 156.131257 
L 89.866936 156.50719 
L 90.873237 155.323644 
L 91.279188 153.373936 
L 91.793773 147.401885 
L 92.274053 145.552236 
L 93.263201 143.869827 
L 97.802989 139.54302 
L 99.003689 137.690512 
L 99.512557 135.926627 
L 99.598321 133.944043 
L 99.083735 129.983164 
L 98.877901 129.500025 
L 98.397621 128.859652 
L 98.357598 128.197838 
L 98.494821 127.751863 
L 99.278134 126.534011 
L 99.655497 125.582028 
L 99.827026 124.720097 
L 99.610431 122.261409 
L 100.15518 122.081326 
L 101.271692 121.270955 
L 101.766918 120.678934 
L 101.956005 120.019382 
L 101.541815 119.409353 
L 102.937454 118.139772 
L 103.689298 117.910167 
L 104.972386 117.89666 
L 106.169934 118.085747 
L 108.078808 118.81283 
L 109.123286 119.064945 
L 107.795178 117.889907 
L 105.602674 117.408187 
L 93.005908 117.140314 
L 90.961972 116.532536 
L 90.151601 114.992831 
L 90.133593 110.893705 
L 90.376704 109.961778 
L 91.448195 108.282509 
L 91.691306 107.458632 
L 92.150516 106.954402 
L 93.235513 106.963406 
L 95.464033 107.253789 
L 95.761169 106.808085 
L 96.28791 106.639257 
L 96.688594 106.09901 
L 96.589548 105.40119 
L 96.098824 105.005009 
L 94.482584 104.518787 
L 93.762254 104.077585 
L 93.6452 103.350502 
L 94.428559 102.740473 
L 96.211375 101.999883 
L 98.219294 100.66052 
L 99.299789 100.217067 
L 101.352729 98.945235 
L 105.719728 97.932271 
L 114.228623 97.36051 
L 114.822895 97.603621 
L 115.412665 98.085342 
L 116.722765 98.272177 
L 124.880499 97.259213 
L 141.479597 95.879332 
L 145.905123 96.644682 
L 145.905123 97.056621 
L 145.544958 98.609832 
L 147.093667 100.6155 
L 149.37171 102.362299 
L 151.226559 103.134403 
L 151.226559 103.474308 
L 150.758345 104.17663 
L 151.613736 104.424243 
L 152.838297 104.633589 
L 153.459581 105.212104 
L 153.288503 106.207059 
L 152.766264 106.715792 
L 151.568716 107.253789 
L 150.569258 107.56218 
L 148.390261 107.679233 
L 147.417816 108.0439 
L 148.426277 109.887494 
L 148.93501 110.583063 
L 149.686854 111.064783 
L 151.019464 110.700116 
L 151.946889 110.722626 
L 152.595186 110.934223 
L 154.044849 111.821129 
L 154.495055 112.055236 
L 155.526027 113.095213 
L 156.322892 113.331571 
L 157.925626 113.223521 
L 158.519898 113.007422 
L 159.199709 112.60899 
L 160.365743 111.447458 
L 161.599308 109.543086 
L 161.896444 107.645468 
L 160.29371 106.531208 
L 158.119215 106.877866 
L 156.957683 106.760813 
L 157.065732 105.950442 
L 157.538449 105.041026 
L 157.93463 103.161415 
L 158.402844 102.378057 
L 159.141182 101.912093 
L 160.077611 101.689241 
L 162.387168 101.62171 
L 163.445153 101.912093 
L 164.264528 102.591904 
L 164.939837 103.348251 
L 165.615146 103.888498 
L 167.848168 104.572811 
L 172.57083 105.126565 
L 174.709309 105.743347 
L 174.709309 106.153035 
L 173.385703 106.832846 
L 172.170147 107.71525 
L 171.274236 108.908296 
L 170.936582 110.515532 
L 170.999611 113.621954 
L 171.323759 114.99058 
L 172.071101 116.008046 
L 172.233175 114.639419 
L 171.647907 111.184088 
L 171.692928 109.552091 
L 172.539316 108.35004 
L 173.808897 107.814295 
L 174.961424 107.14799 
L 175.465655 105.572269 
L 175.191029 105.295392 
L 173.77288 103.134403 
L 173.349686 102.810254 
L 172.773423 102.060661 
L 172.2872 101.232282 
L 171.895521 100.1788 
L 171.112162 98.920474 
L 170.936582 97.999802 
L 171.058137 97.067876 
L 171.395792 96.253003 
L 173.46674 93.180346 
L 174.934412 89.84657 
L 175.879845 88.369894 
L 176.672207 87.663071 
L 177.752702 87.048539 
L 178.977263 86.61409 
L 180.228836 86.443012 
L 181.381363 86.492535 
L 182.038664 86.663613 
L 183.398286 87.577531 
L 185.361185 88.563483 
L 187.454643 89.209528 
L 191.781124 89.844319 
L 194.15371 89.803801 
L 198.17405 89.21178 
L 200.389064 89.317578 
L 201.424538 88.594997 
L 205.823052 87.955705 
L 210.199055 87.980466 
L 211.144488 87.577531 
L 211.896332 87.912935 
L 212.805748 88.009729 
L 214.683108 87.955705 
L 215.164828 88.149293 
L 216.380384 89.094726 
L 221.764849 94.744812 
L 223.988867 96.300274 
L 225.542078 97.056621 
L 226.302927 97.639638 
L 227.059273 99.312153 
L 230.859012 102.645929 
L 231.7054 103.105139 
L 232.73187 103.379765 
L 234.050973 103.474308 
L 234.739789 103.67465 
L 238.026293 105.023017 
L 244.797393 105.92343 
L 245.517723 105.743347 
L 244.828907 105.023017 
L 242.753457 104.298186 
L 237.792186 103.956029 
L 235.766259 103.474308 
L 231.777433 101.934604 
L 229.9586 100.710043 
L 229.310303 98.945235 
L 229.148229 97.437045 
L 228.93213 96.473604 
L 228.378377 96.171966 
L 224.947806 95.13199 
L 223.597188 94.398154 
L 222.305097 92.734642 
L 221.431697 90.949575 
L 221.35066 89.844319 
L 219.333736 89.371603 
L 215.840137 87.582033 
L 213.751181 86.825687 
L 211.684735 86.537555 
L 204.657018 86.443012 
L 202.554555 85.866748 
L 201.14541 85.632641 
L 200.501616 85.875752 
L 199.92085 86.443012 
L 198.637763 86.190897 
L 196.692872 85.312995 
L 194.842525 83.957874 
L 190.268431 78.478866 
L 192.397906 77.8981 
L 193.437882 77.850829 
L 194.761488 78.066928 
L 196.935983 78.929072 
L 198.124528 79.16318 
L 199.335582 78.823274 
L 199.758776 78.217747 
L 200.208982 77.121495 
L 200.515122 75.935202 
L 200.501616 75.07981 
L 199.857821 74.512551 
L 198.831351 73.974554 
L 198.075005 73.409546 
L 198.232577 72.43485 
L 196.881959 72.191738 
L 194.950575 72.401084 
L 193.14975 72.914319 
L 192.154795 73.569369 
L 191.781124 73.569369 
L 190.268431 72.022911 
L 189.133912 70.510219 
L 189.584118 69.402712 
L 190.430506 68.448275 
L 191.006769 67.574875 
L 190.61509 66.73524 
L 190.61509 66.357067 
L 191.294901 66.053178 
L 195.175678 65.323844 
L 196.031069 64.635029 
L 196.895465 63.757127 
L 197.449218 62.924246 
L 196.184139 63.068312 
L 194.099685 64.128547 
L 192.911141 64.436938 
L 193.289314 63.680592 
L 191.610045 63.797646 
L 188.724224 64.317634 
L 187.022445 64.436938 
L 185.046041 64.236597 
L 184.190649 64.436938 
L 182.349306 65.476914 
L 181.701009 65.602972 
L 180.228836 65.290079 
L 178.653114 64.445943 
L 177.509591 63.230386 
L 177.352019 61.791978 
L 178.135377 61.222467 
L 179.64807 60.819533 
L 181.345347 60.619191 
L 182.646442 60.657458 
L 182.646442 60.279285 
L 181.651487 60.141972 
L 180.890638 59.718779 
L 180.161305 59.583717 
L 179.283403 60.279285 
L 178.810686 59.671507 
L 178.972761 59.047972 
L 180.039749 58.012498 
L 181.219289 58.320889 
L 185.703342 57.60281 
L 191.781124 57.60281 
L 193.185767 57.382209 
L 194.356303 56.954513 
L 196.692872 55.747961 
L 198.826849 55.13343 
L 199.749772 54.721491 
L 200.123443 53.82333 
L 200.127945 52.483967 
L 198.7188 51.214386 
L 194.203232 48.373585 
L 193.559438 47.786066 
L 193.289314 47.198547 
L 192.780581 46.94193 
L 191.64156 46.962189 
L 190.475526 47.153527 
L 189.854242 47.405642 
L 189.476069 46.991452 
L 191.371436 46.235106 
L 189.440052 43.22773 
L 188.724224 42.457877 
L 187.134997 41.881613 
L 184.145628 40.357666 
L 182.268269 39.817418 
L 182.268269 39.436994 
L 182.578911 38.437537 
L 181.858582 37.312022 
L 180.782589 36.204515 
L 180.039749 35.250078 
L 179.724605 33.793661 
L 179.972218 32.510574 
L 180.72174 30.909899 
L 182.663866 31.259924 
L 184.705055 31.311382 
L 188.472965 30.493763 
L 189.765146 30.379411 
L 194.184864 30.819667 
L 198.530254 31.848839 
L 210.262804 33.449771 
L 211.189058 33.924334 
L 211.440634 34.481801 
L 211.606445 35.25368 
L 212.012395 35.911206 
L 212.990108 36.13991 
L 217.8558 36.059864 
L 218.393256 35.736818 
L 219.182287 35.611031 
L 219.788355 35.296562 
L 220.788938 35.165057 
L 221.903873 35.773983 
L 222.841563 35.836877 
L 223.691312 35.662002 
L 224.461584 35.664267 
L 227.757092 34.698575 
L 228.806073 33.942229 
L 230.156691 33.631587 
L 230.850008 32.909006 
L 231.570338 32.571351 
L 231.75042 34.563513 
L 234.429147 35.137526 
L 237.828203 35.241074 
L 240.128756 35.833095 
L 241.096699 36.258539 
L 242.532856 36.616453 
L 243.842956 37.1567 
L 244.41922 38.115639 
L 245.058512 38.631125 
L 246.503674 38.487059 
L 249.020326 37.926553 
L 248.804227 36.776276 
L 250.109825 36.724503 
L 251.906147 37.370548 
L 253.175728 38.304726 
L 253.932074 40.193341 
L 254.283235 40.634543 
L 254.782964 41.053234 
L 255.818438 41.701531 
L 255.107112 42.018926 
L 254.377778 41.964901 
L 253.175728 41.701531 
L 253.207243 41.823087 
L 251.307373 42.599692 
L 251.068764 42.586186 
L 250.933702 42.70549 
L 250.906689 43.214223 
L 251.71706 43.245738 
L 253.162222 42.991371 
L 254.607384 42.9441 
L 255.440265 43.592397 
L 256.034537 43.295261 
L 256.664825 43.268248 
L 256.970965 43.605903 
L 256.574784 44.382508 
L 256.853912 45.15011 
L 256.889928 46.246361 
L 256.574784 48.535659 
L 256.295656 49.517109 
L 255.917483 50.298216 
L 255.38624 50.935258 
L 254.688421 51.525028 
L 252.905604 52.492971 
L 250.677084 53.215552 
L 248.281988 53.672511 
L 245.963427 53.82333 
L 245.963427 54.201503 
L 248.354021 54.930837 
L 261.707134 53.069235 
L 262.742608 53.285334 
L 266.087639 54.991615 
L 264.984634 55.635409 
L 264.980132 56.240937 
L 265.416832 56.918497 
L 265.709466 57.807654 
L 265.389819 58.548243 
L 264.606461 59.237058 
L 263.607003 59.732285 
L 262.652566 59.901112 
L 263.012731 60.292791 
L 262.652566 60.657458 
L 263.246838 61.03338 
L 263.413415 61.497093 
L 263.197316 62.019332 
L 262.652566 62.548324 
L 263.868123 62.284953 
L 264.786543 61.62315 
L 266.087639 59.901112 
L 266.821475 58.066522 
L 267.222158 57.60281 
L 267.775912 57.386711 
L 269.864868 57.256151 
L 270.621214 56.997283 
L 271.787248 56.092369 
L 272.422038 55.970813 
L 274.772114 56.092369 
L 275.987671 56.443529 
L 279.337204 58.012498 
L 288.062198 60.279285 
L 292.991955 63.000781 
L 295.265495 63.333934 
L 297.800156 63.061559 
L 299.664009 62.383999 
L 302.824456 60.657458 
L 304.64779 59.968643 
L 306.552162 59.498178 
L 311.171277 59.147017 
L 311.171277 59.522939 
L 308.794188 59.561206 
L 309.753127 59.813322 
L 310.712066 59.628737 
L 312.00866 60.15773 
L 315.893938 58.75984 
L 317.627232 59.147017 
L 315.574292 60.495384 
L 314.984522 61.035631 
L 314.655872 60.875808 
L 313.813986 60.657458 
L 314.41276 61.562373 
L 314.921493 63.76388 
L 315.358193 64.810609 
L 314.948506 65.508429 
L 314.984522 66.44936 
L 315.358193 68.043089 
L 315.119584 68.988522 
L 314.588341 69.492753 
L 314.057098 69.841663 
L 313.813986 70.321132 
L 307.389545 72.779257 
L 305.170029 74.454024 
L 304.202086 74.823193 
L 301.06415 75.51651 
L 299.803573 75.07981 
L 299.146272 75.392704 
L 296.445035 77.72252 
L 296.445035 78.066928 
L 297.178871 79.147422 
L 297.98474 79.944287 
L 299.047227 80.464275 
L 300.555417 80.747905 
L 302.693896 80.617345 
L 303.243147 80.747905 
L 303.634827 81.321918 
L 303.688851 81.98147 
L 303.900448 82.490203 
L 304.93142 82.641022 
L 305.849841 82.632018 
L 306.556664 82.305618 
L 308.177406 81.301659 
L 310.144807 80.959502 
L 313.089154 80.025324 
L 319.815233 79.498583 
L 320.301456 79.608884 
L 320.684131 79.924028 
L 321.044296 80.702884 
L 321.435975 81.090062 
L 323.403376 81.409708 
L 323.705014 81.688836 
L 323.448397 82.949413 
L 323.569952 83.525677 
L 324.272274 83.766537 
L 326.379238 83.766537 
L 328.616762 82.632018 
L 329.039956 82.800845 
L 329.607216 83.584203 
L 329.949372 83.766537 
L 332.254428 83.766537 
L 332.28144 83.939866 
L 334.401911 85.522341 
L 334.820602 85.686666 
L 335.450891 85.686666 
L 335.522924 85.103649 
L 336.081179 84.214492 
L 336.508875 83.111487 
L 336.265764 82.220079 
L 336.675451 81.814893 
L 337.211197 81.56728 
L 337.674909 81.499749 
L 337.566859 81.252136 
L 337.332752 80.36523 
L 339.223618 79.235213 
L 339.223618 78.823274 
L 338.845445 78.823274 
L 338.845445 78.478866 
L 340.259092 78.825525 
L 340.73631 78.823274 
L 341.857324 78.3348 
L 342.843275 76.864878 
L 344.396486 76.218832 
L 344.923227 75.457983 
L 344.959244 75.183358 
L 344.545054 74.987518 
L 344.545054 74.703888 
L 344.950239 74.231172 
L 345.157334 74.082604 
L 346.525961 72.626187 
L 348.286267 71.908108 
L 350.447256 71.725775 
L 355.06637 72.207496 
L 368.252907 70.541733 
L 370.328357 69.758374 
L 370.611986 71.3431 
L 370.404892 72.880554 
L 370.521945 74.188402 
L 371.814037 75.07981 
L 371.278291 74.409003 
L 371.003666 72.972846 
L 370.711032 72.43485 
L 371.287296 71.788804 
L 372.881025 71.257561 
L 373.353742 70.510219 
L 372.138185 70.537231 
L 371.05769 70.888392 
L 371.476382 70.370655 
L 373.353742 68.923242 
L 374.474755 68.32897 
L 375.789356 67.032377 
L 376.568213 66.73524 
L 377.293045 66.611434 
L 381.461953 65.276573 
L 383.559914 64.24335 
L 384.379289 63.680592 
L 386.373702 61.413805 
L 389.700725 58.597765 
L 390.06089 58.064271 
L 392.343434 55.747961 
L 393.221336 54.296046 
L 393.856127 53.816577 
L 394.986144 53.483424 
L 394.986144 53.82333 
L 394.607971 53.82333 
L 395.787511 54.933088 
L 398.173603 55.50485 
L 410.765868 55.50485 
L 412.841318 56.092369 
L 414.115401 55.666924 
L 415.704628 55.896529 
L 416.411452 56.513311 
L 415.038323 57.256151 
L 413.624676 57.436234 
L 407.699964 57.139098 
L 405.336382 56.61911 
L 403.877714 56.504307 
L 403.445517 56.616859 
L 402.540602 57.256151 
L 401.415087 57.256151 
L 399.983432 57.098579 
L 399.447686 57.27416 
L 399.110032 58.012498 
L 398.767875 57.60281 
L 397.633356 58.012498 
L 397.732401 58.485214 
L 397.962006 58.696811 
L 398.767875 58.80486 
L 398.416715 58.836375 
L 398.335677 58.908408 
L 398.353686 59.147017 
L 397.291199 58.809362 
L 396.102655 58.874642 
L 395.103198 59.266322 
L 394.607971 59.901112 
L 393.707559 59.237058 
L 392.613558 58.915161 
L 390.610141 58.80486 
L 389.709729 59.056976 
L 388.962387 59.698519 
L 388.602222 60.542656 
L 388.908362 61.413805 
L 387.791851 61.238224 
L 387.400172 61.035631 
L 387.021998 61.413805 
L 387.386665 62.075608 
L 387.116542 62.730657 
L 386.423224 63.210127 
L 385.509306 63.333934 
L 385.900985 64.088029 
L 386.360195 64.68005 
L 386.481751 65.166272 
L 385.855965 65.602972 
L 388.269069 66.586673 
L 389.615185 66.791516 
L 390.799228 66.357067 
L 389.939334 66.377327 
L 389.286535 66.18824 
L 388.152016 65.602972 
L 388.512181 64.952424 
L 389.03442 64.472955 
L 390.749705 63.550032 
L 391.587088 63.333934 
L 391.762669 63.061559 
L 391.933747 62.136385 
L 392.870176 61.670422 
L 396.46282 60.657458 
L 395.368819 60.279285 
L 395.368819 59.901112 
L 396.76896 59.698519 
L 397.219166 59.901112 
L 397.219166 59.522939 
L 398.25464 60.063186 
L 399.902395 59.80882 
L 402.918775 58.80486 
L 402.648652 58.201584 
L 402.540602 58.012498 
L 403.116866 57.764884 
L 404.444974 57.557789 
L 405.147296 57.60281 
L 405.147296 58.012498 
L 404.314414 58.138555 
L 403.756159 58.577506 
L 403.43201 59.210046 
L 403.296949 59.901112 
L 404.242381 58.827371 
L 404.431468 58.38842 
L 405.493954 59.403634 
L 406.115239 59.574713 
L 406.727519 59.147017 
L 407.375816 59.484671 
L 407.970088 59.468914 
L 408.510335 59.210046 
L 408.996558 58.80486 
L 409.149628 59.232556 
L 409.761908 59.9844 
L 410.914436 60.79252 
L 411.670782 60.657458 
L 412.733268 60.697977 
L 413.291524 60.603434 
L 413.912808 60.279285 
L 414.385524 59.833581 
L 414.957286 58.93542 
L 415.452513 58.38842 
L 416.86616 57.571296 
L 419.063166 56.740665 
L 421.260171 56.261196 
L 422.664814 56.504307 
L 421.962493 56.90274 
L 421.935481 57.562291 
L 422.354172 58.264613 
L 423.006971 58.80486 
L 425.402068 59.529692 
L 426.059368 59.901112 
L 425.01489 60.992862 
L 425.239993 61.843751 
L 426.815715 63.333934 
L 426.973287 63.93721 
L 426.973287 64.535984 
L 427.130859 65.004198 
L 427.743139 65.193285 
L 430.214771 65.193285 
L 430.214771 65.602972 
L 429.327865 65.70652 
L 428.70658 65.945129 
L 430.516409 65.843832 
L 433.406732 66.809525 
L 435.333614 67.079648 
L 436.751763 67.534356 
L 438.575098 69.733613 
L 440.074284 70.510219 
L 439.21439 70.868132 
L 438.561591 71.266565 
L 439.943724 71.259812 
L 442.005668 70.640778 
L 443.095167 70.888392 
L 442.397347 71.793306 
L 441.960647 72.022911 
L 442.613446 72.257018 
L 443.383299 71.941874 
L 443.883027 72.022911 
L 444.184666 72.302039 
L 444.986032 73.569369 
L 445.688354 74.386493 
L 446.503227 75.048296 
L 447.525195 75.444477 
L 448.82629 75.457983 
L 448.82629 75.07981 
L 448.371582 74.825444 
L 447.741294 74.192904 
L 447.286586 73.947542 
L 447.286586 73.569369 
L 454.116212 72.779257 
L 455.754962 72.333553 
L 458.582256 71.199034 
L 460.157978 70.888392 
L 460.410093 71.176524 
L 460.311048 71.419635 
L 459.955385 71.595215 
L 459.401631 71.680754 
L 459.401631 72.022911 
L 461.089904 72.536146 
L 465.479414 74.703888 
L 465.479414 75.07981 
L 464.682549 75.892432 
L 464.227841 76.959421 
L 463.548029 77.931866 
L 462.048843 78.478866 
L 462.715148 78.780504 
L 465.222796 80.698382 
L 467.167686 81.252136 
L 467.748452 82.28761 
L 467.811481 82.485701 
L 467.72144 82.953915 
L 467.937539 83.048458 
L 468.909984 83.048458 
L 469.544775 83.31408 
L 470.895393 83.644981 
L 470.980932 84.171722 
L 470.638775 84.793007 
L 470.017491 85.312995 
L 466.055677 87.244379 
L 465.479414 87.955705 
L 465.97464 88.631014 
L 467.010114 88.932652 
L 468.036584 89.074467 
L 468.504798 89.277059 
L 468.855959 89.882587 
L 469.66633 90.580406 
L 470.557738 91.053122 
L 471.15201 90.978838 
L 475.221873 92.998013 
L 477.054212 93.245626 
L 478.166221 94.033487 
L 479.904017 94.033487 
L 481.965961 94.693039 
L 486.413997 94.888878 
L 487.97171 94.609751 
L 488.629011 93.8444 
L 489.047702 93.673322 
L 489.934608 93.774618 
L 490.726971 94.236079 
L 490.889045 95.13199 
L 490.452345 95.543928 
L 487.86366 96.644682 
L 489.371851 97.049868 
L 490.694023 97.092735 
L 490.691923 97.098288 
L 490.760534 98.653479 
L 490.53183 99.513981 
L 491.366602 100.597469 
L 492.527278 102.747293 
L 492.630195 103.293326 
L 492.481537 105.317362 
L 492.52156 106.543791 
L 492.921794 107.684456 
L 494.265434 108.925179 
L 494.842913 110.080138 
L 496.003589 111.24939 
L 496.581069 114.113917 
L 498.199154 118.846674 
L 498.23346 119.850116 
L 498.404989 120.39329 
L 498.742328 120.744923 
L 499.588535 121.175174 
L 499.805805 121.483925 
L 500.526225 121.884159 
L 498.679434 123.955366 
L 498.096237 124.144047 
L 497.547346 124.637191 
L 497.15283 125.3133 
L 496.998455 126.049443 
L 497.198571 126.948538 
L 497.530193 127.731852 
L 497.644546 128.532318 
L 495.088771 133.126424 
L 493.390638 134.199906 
L 490.131596 135.767963 
L 486.76392 136.83144 
L 484.088075 138.033569 
L 484.088075 138.378055 
L 484.419697 138.934094 
L 485.220163 141.588497 
L 484.991458 142.634821 
L 484.419697 143.305212 
L 482.950269 144.07852 
L 483.584925 144.856116 
L 484.545484 145.313525 
L 485.706161 145.533653 
L 486.935448 145.587971 
L 488.044666 145.885287 
L 489.851433 147.180327 
L 491.360884 147.670613 
L 497.238595 150.302146 
L 498.096237 150.912502 
L 499.988769 153.182396 
L 500.566248 153.521165 
L 501.61829 153.81991 
L 503.207787 155.143539 
L 506.518288 155.942576 
L 510.046058 158.358269 
L 511.76706 159.221629 
L 510.217586 161.207072 
L 509.788765 162.492106 
L 510.817936 163.066727 
L 511.075229 163.657071 
L 510.16041 164.95497 
L 508.822487 166.254299 
L 505.957961 167.799485 
L 506.266713 169.996479 
L 507.581764 172.410743 
L 508.742441 174.020252 
L 508.410819 175.026553 
L 509.651542 175.882766 
L 511.52692 176.47454 
L 513.099265 176.698956 
L 514.64874 177.114913 
L 515.506382 178.086908 
L 515.489229 179.218996 
L 514.4086 180.09665 
L 514.4086 180.439707 
L 515.209066 181.210156 
L 514.997514 182.000617 
L 514.402882 183.006917 
L 514.065543 184.442039 
L 514.620151 185.235359 
L 518.216533 186.896327 
L 517.198797 187.678211 
L 516.775693 188.148485 
L 516.261108 189.675089 
L 515.066126 191.01444 
L 514.768809 191.551896 
L 514.57441 194.929579 
L 514.105566 196.011638 
L 513.253641 197.007933 
L 512.235905 197.852711 
L 509.062627 199.855306 
L 508.33649 200.814437 
L 508.502301 201.986548 
L 509.411402 202.848479 
L 510.411985 203.27873 
L 511.178146 203.916244 
L 511.395415 205.375666 
L 511.967177 206.7822 
L 513.213618 207.691301 
L 515.900898 209.082111 
L 516.6156 210.038383 
L 517.158773 211.442058 
L 517.250255 212.898621 
L 516.598447 214.006409 
L 515.523535 215.068457 
L 515.071843 216.143369 
L 515.374877 217.125369 
L 516.598447 217.922977 
L 520.211981 218.681991 
L 522.641969 219.659703 
L 525.237767 220.139983 
L 526.489925 220.514487 
L 527.353285 220.937591 
L 528.376739 221.609411 
L 528.9485 222.371283 
L 528.479656 223.063115 
L 529.257252 227.910225 
L 529.411627 228.291876 
L 530.435081 229.419676 
L 531.687239 230.344501 
L 532.493423 231.429419 
L 532.207542 233.03464 
L 532.636364 233.360544 
L 531.687239 234.531226 
L 530.938231 236.004942 
L 530.48654 237.557275 
L 530.309293 239.665646 
L 529.943366 240.034433 
L 529.514545 240.290296 
L 529.217228 240.673376 
L 529.120029 241.217979 
L 529.108594 242.281456 
L 528.942783 242.916112 
L 526.472772 246.865556 
L 523.682575 251.059428 
L 521.715714 252.443092 
L 520.932401 253.260711 
L 520.926683 254.289882 
L 520.051888 255.773604 
L 519.525867 256.413977 
L 518.988411 256.805634 
L 518.096463 256.960009 
L 516.895763 256.931421 
L 514.843138 256.639823 
L 511.938589 255.344782 
L 510.017469 255.001725 
L 509.748741 254.587198 
L 509.94314 253.59805 
L 510.88083 252.20581 
L 511.201016 251.471097 
L 510.9037 250.845018 
L 510.234739 250.836441 
L 507.175814 251.639766 
L 506.541158 251.322439 
L 506.844192 250.64776 
L 507.936257 249.186909 
L 508.039174 248.354995 
L 507.867645 247.81468 
L 507.444542 247.377283 
L 506.77558 246.865556 
L 506.095184 246.528216 
L 504.602886 246.290935 
L 503.916772 245.987902 
L 503.396469 245.53478 
L 502.767531 244.401263 
L 502.287251 245.165994 
L 501.658313 245.371828 
L 499.651429 245.300358 
L 498.101955 245.733468 
L 497.49017 245.724891 
L 496.88982 245.519057 
L 495.820626 244.669991 
L 493.762283 244.245458 
L 492.001257 244.421275 
L 490.67477 245.273199 
L 489.897174 246.865556 
L 489.279671 247.428741 
L 489.925762 247.697469 
L 491.795423 247.851845 
L 492.898923 248.134867 
L 492.813159 248.24636 
L 492.344314 248.452195 
L 492.292856 249.032533 
L 493.705107 249.915905 
L 495.746297 250.296126 
L 497.221442 250.836441 
L 496.88982 252.214387 
L 495.266017 253.086324 
L 490.926345 252.869054 
L 488.936614 253.132065 
L 488.336265 253.506568 
L 487.324246 254.472846 
L 486.649567 254.873079 
L 478.0274 257.380254 
L 476.963924 257.425995 
L 474.939887 257.260184 
L 473.859257 257.408842 
L 473.264625 257.67757 
L 472.418418 258.363684 
L 471.852374 258.632412 
L 471.154824 258.698165 
L 470.148524 258.606683 
L 469.639656 259.004058 
L 469.405234 259.541514 
L 469.576762 260.690755 
L 469.199399 261.033812 
L 468.541873 261.110999 
L 466.940941 261.745655 
L 465.946075 261.874301 
L 463.407453 261.694196 
L 462.212471 261.771384 
L 460.108388 262.265958 
L 459.042052 262.400322 
L 454.073443 262.383169 
L 451.563409 262.683344 
L 449.299232 263.552422 
L 449.939605 264.401488 
L 449.722336 265.147637 
L 448.984763 265.753705 
L 448.064227 266.19682 
L 448.384413 266.639935 
L 448.332955 266.974416 
L 448.001333 267.234568 
L 447.452442 267.431825 
L 446.491882 268.195127 
L 445.554193 268.738301 
L 444.525022 268.901253 
L 443.290016 268.515314 
L 442.924089 268.223715 
L 441.849177 267.177391 
L 441.020122 267.088768 
L 440.985817 267.288885 
L 440.654195 267.51759 
L 438.5787 268.455279 
L 438.269948 268.806912 
L 437.681034 269.927565 
L 436.520357 270.304928 
L 435.599821 270.044777 
L 434.702155 269.644543 
L 433.627243 269.58165 
L 431.78617 272.717763 
L 430.991422 273.63544 
L 429.630629 274.28439 
L 426.714644 274.175755 
L 424.113128 274.638882 
L 423.112545 274.518812 
L 422.683724 274.312978 
L 422.226314 274.250084 
L 421.763187 274.321554 
L 421.305778 274.52453 
L 420.945568 276.78013 
L 420.585358 277.789289 
L 419.802044 278.381063 
L 418.149653 279.421669 
L 416.257122 279.353058 
L 410.67101 277.271845 
L 410.173577 277.337597 
L 409.052924 277.752125 
L 408.063776 277.663502 
L 407.177545 277.697807 
L 406.274162 277.9065 
L 405.565177 278.355333 
L 404.341607 279.567468 
L 403.724104 279.94769 
L 403.003685 279.999148 
L 400.047677 279.656091 
L 395.908122 279.853349 
L 393.678251 280.273594 
L 391.734261 281.342788 
L 391.276852 282.146114 
L 391.276852 282.866533 
L 391.053864 282.943721 
L 390.356315 283.006615 
L 389.698789 283.383978 
L 388.074986 283.967175 
L 387.480354 284.344538 
L 385.765068 286.342845 
L 385.13613 286.765948 
L 384.518628 287.043253 
L 384.066936 287.474933 
L 383.918278 288.352587 
L 382.826213 289.250253 
L 382.528897 289.770556 
L 382.357369 290.753987 
L 382.523179 291.440101 
L 382.843366 292.031874 
L 382.843366 292.523589 
L 382.071488 292.883799 
L 381.128081 292.806611 
L 380.567754 292.246285 
L 379.28129 289.54471 
L 378.114896 288.667056 
L 378.315013 288.449787 
L 378.863904 288.040977 
L 378.892492 287.786543 
L 378.709529 287.586426 
L 378.315013 287.446345 
L 376.725515 287.420616 
L 375.919331 287.260522 
L 375.301829 286.911748 
L 375.084559 286.480068 
L 375.101712 285.530943 
L 374.775808 285.019216 
L 373.712331 284.536078 
L 369.664258 284.344538 
L 370.939287 285.196462 
L 371.385261 285.688178 
L 371.591095 286.477209 
L 371.488178 287.186193 
L 371.116533 287.443486 
L 370.544771 287.683626 
L 369.852939 288.352587 
L 370.424701 289.010113 
L 373.157722 290.105037 
L 374.512798 291.059879 
L 375.136018 291.677382 
L 375.559122 292.334908 
L 375.719215 293.166821 
L 375.330417 294.424697 
L 375.364722 295.253751 
L 375.845002 296.091382 
L 376.628316 296.551651 
L 377.514547 296.880413 
L 378.315013 297.326388 
L 378.806728 297.87242 
L 379.109762 299.293248 
L 387.53753 302.180645 
L 388.383737 302.718101 
L 390.419209 302.855324 
L 391.351181 303.427085 
L 391.494121 304.236128 
L 391.111041 304.982277 
L 391.048147 305.582627 
L 394.101355 306.637528 
L 394.444412 307.037761 
L 394.272883 308.112673 
L 393.826909 308.95888 
L 392.55188 310.482625 
L 392.145929 311.337409 
L 391.036712 311.117281 
L 390.699372 311.897735 
L 390.670784 313.058412 
L 390.493538 313.967513 
L 389.613025 314.544992 
L 387.325978 315.17393 
L 386.67417 316.005843 
L 386.948615 316.58904 
L 387.520377 317.298025 
L 388.6639 318.364361 
L 390.304857 319.20485 
L 392.91209 320.036764 
L 393.369499 320.62282 
L 393.409523 321.357533 
L 392.940678 322.035071 
L 393.523875 322.249482 
L 393.220841 322.818385 
L 393.786886 323.264359 
L 395.107655 323.736062 
L 395.690852 324.153448 
L 396.07965 324.753798 
L 396.55993 326.629176 
L 397.263197 327.786994 
L 397.697736 328.201521 
L 398.298086 328.610331 
L 398.921306 328.73326 
L 399.504503 328.678942 
L 399.916171 328.896212 
L 400.150594 331.643527 
L 400.425039 332.541193 
L 401.053977 333.341659 
L 402.134607 333.927715 
L 404.684664 334.711029 
L 405.7996 335.462895 
L 407.612084 338.113011 
L 408.48688 338.704784 
L 409.584662 338.964936 
L 412.843704 339.276546 
L 413.878593 339.185064 
L 413.632735 338.473221 
L 414.393178 338.315986 
L 416.508697 338.696208 
L 417.446386 339.024971 
L 418.246853 339.448075 
L 419.802044 340.525845 
L 420.762604 340.785997 
L 421.071355 341.237689 
L 421.145684 341.772286 
L 421.39726 342.286872 
L 423.175439 343.670535 
L 423.861553 343.924969 
L 429.041714 348.536227 
L 429.767851 349.625433 
L 430.648364 350.554546 
L 432.214992 351.154896 
L 435.559798 351.257813 
L 436.669016 351.537976 
L 437.343694 351.921057 
L 439.024674 353.399061 
L 441.374615 354.971406 
L 441.992117 355.934824 
L 442.026423 357.487157 
L 442.821172 358.336223 
L 444.410669 359.316795 
L 446.16026 360.14299 
L 447.452442 360.5518 
L 448.024204 359.588382 
L 448.550224 358.979455 
L 449.316385 358.747892 
L 450.585696 358.925138 
L 453.438787 360.154426 
L 454.445088 360.080097 
L 454.582311 361.126421 
L 455.171225 362.132721 
L 456.034585 362.996082 
L 456.977992 363.616443 
L 458.024316 363.942347 
L 460.085517 364.156758 
L 460.863113 364.442639 
L 462.149577 365.766267 
L 464.819704 369.282602 
L 465.900334 370.023033 
L 465.900334 370.023033 
" clip-path="url(#pc71d6f6e3d)" style="fill: none; stroke: #000000"/>
    <path d="M 487.715092 83.899348 
L 486.775355 85.391466 
L 486.317946 85.577289 
L 485.791925 85.66877 
L 486.758202 86.372037 
L 487.204244 87.235519 
L 480.930487 87.663071 
L 479.696922 87.555021 
L 478.769497 87.167844 
L 477.481908 88.027738 
L 475.865668 88.585993 
L 472.691715 89.087973 
L 469.193614 89.121738 
L 467.248724 88.777331 
L 466.23576 87.955705 
L 466.951587 87.798132 
L 468.099613 87.278144 
L 469.882429 87.048539 
L 471.800307 86.393489 
L 472.313542 86.064839 
L 472.718727 84.466607 
L 470.665788 82.166054 
L 470.809854 80.747905 
L 473.596629 80.849201 
L 474.582581 81.090062 
L 474.204408 81.499749 
L 474.339469 81.80814 
L 473.898267 82.888635 
L 473.826234 83.766537 
L 474.69063 82.85487 
L 475.401956 82.629766 
L 477.634978 82.632018 
L 477.346846 82.764828 
L 477.121743 82.908894 
L 476.973175 83.111487 
L 476.887636 83.422129 
L 478.769497 83.766537 
L 478.323793 83.048458 
L 479.030617 81.688836 
L 478.931571 80.214411 
L 478.166221 79.293739 
L 476.887636 79.608884 
L 476.43743 78.708471 
L 475.834154 77.965631 
L 475.082309 77.378112 
L 474.204408 76.966174 
L 473.110407 76.810853 
L 472.007402 76.952668 
L 471.440142 77.375861 
L 471.935369 78.066928 
L 471.935369 78.478866 
L 471.462653 78.634187 
L 470.962924 78.974093 
L 470.557738 79.40404 
L 470.395664 79.815978 
L 470.05801 79.933032 
L 468.126625 80.36523 
L 468.243679 79.62239 
L 468.657869 79.16318 
L 469.099071 78.83678 
L 469.252141 78.478866 
L 468.964009 77.803557 
L 468.549819 77.729273 
L 468.072601 77.931866 
L 466.303291 78.397829 
L 465.488418 79.039373 
L 464.709561 79.49183 
L 463.597552 79.235213 
L 464.038754 78.163722 
L 465.542442 76.340387 
L 465.857587 74.892975 
L 465.371364 74.042085 
L 463.11133 72.644195 
L 462.427016 72.022911 
L 462.940251 71.397125 
L 463.791141 70.868132 
L 464.817611 70.631774 
L 465.857587 70.888392 
L 466.343809 71.424137 
L 467.469324 73.231714 
L 468.126625 73.947542 
L 469.594297 74.827695 
L 473.240967 76.081519 
L 475.329923 76.554235 
L 477.013694 77.17552 
L 486.738145 83.476154 
L 487.683578 83.890344 
L 487.715092 83.899348 
" clip-path="url(#pc71d6f6e3d)" style="fill: none; stroke: #000000"/>
    <path d="M 77.67639 102.378057 
L 76.433822 102.486106 
L 74.511442 102.985835 
L 73.489474 103.134403 
L 73.489474 103.474308 
L 74.106256 103.618374 
L 74.583475 103.820967 
L 74.98866 104.149618 
L 75.375837 104.676359 
L 74.880611 104.50528 
L 74.164783 103.996547 
L 73.692067 103.888498 
L 73.133811 103.947025 
L 72.314436 104.203642 
L 71.976781 104.266671 
L 70.981826 103.971786 
L 70.220978 103.323489 
L 70.009381 102.672942 
L 70.653175 102.378057 
L 74.867104 101.608204 
L 76.93355 101.513661 
L 77.67639 102.378057 
" clip-path="url(#pc71d6f6e3d)" style="fill: none; stroke: #000000"/>
    <path d="M 81.863307 98.598576 
L 83.911745 97.9953 
L 91.448195 97.414534 
L 93.573168 97.810716 
L 81.863307 98.598576 
" clip-path="url(#pc71d6f6e3d)" style="fill: none; stroke: #000000"/>
    <path d="M 96.211375 96.644682 
L 98.746035 95.760027 
L 101.730902 95.462891 
L 107.997771 95.543928 
L 108.024783 95.807299 
L 107.934742 95.870328 
L 107.781672 95.868077 
L 105.206493 96.482608 
L 98.448899 97.013851 
L 96.211375 96.644682 
" clip-path="url(#pc71d6f6e3d)" style="fill: none; stroke: #000000"/>
    <path d="M 109.123286 95.543928 
L 110.037204 95.163504 
L 111.167221 95.059957 
L 112.225206 95.199521 
L 112.941033 95.543928 
L 112.765453 95.760027 
L 112.580869 95.847817 
L 112.148671 95.922101 
L 109.933657 95.514665 
L 109.123286 95.543928 
" clip-path="url(#pc71d6f6e3d)" style="fill: none; stroke: #000000"/>
    <path d="M 150.81237 95.922101 
L 151.505687 95.208525 
L 152.595186 94.924895 
L 153.837755 95.044199 
L 155.00829 95.543928 
L 154.215928 95.543928 
L 153.666676 95.676739 
L 152.784272 96.185472 
L 152.514149 96.300274 
L 152.03693 96.22599 
L 151.73079 96.097682 
L 151.397638 96.070669 
L 150.81237 96.300274 
L 150.81237 95.922101 
" clip-path="url(#pc71d6f6e3d)" style="fill: none; stroke: #000000"/>
    <path d="M 117.470107 93.655314 
L 122.404365 93.628301 
L 123.516374 94.033487 
L 123.543387 94.274347 
L 123.46235 94.328372 
L 123.327288 94.326121 
L 123.17872 94.375643 
L 119.144873 94.301359 
L 117.276518 94.573734 
L 117.12795 95.543928 
L 115.507208 95.5912 
L 115.011981 95.327829 
L 114.822895 94.582738 
L 115.102023 93.947948 
L 115.786336 93.693581 
L 117.470107 93.655314 
" clip-path="url(#pc71d6f6e3d)" style="fill: none; stroke: #000000"/>
    <path d="M 125.40724 93.655314 
L 126.811883 92.610835 
L 129.134946 92.302444 
L 133.812588 92.491531 
L 133.812588 92.867453 
L 133.024727 92.867453 
L 131.78666 93.331165 
L 130.237951 93.720593 
L 128.648724 93.776869 
L 127.293604 93.245626 
L 126.789373 93.673322 
L 126.30315 93.893923 
L 125.834936 93.889421 
L 125.40724 93.655314 
" clip-path="url(#pc71d6f6e3d)" style="fill: none; stroke: #000000"/>
    <path d="M 137.184631 92.867453 
L 136.117643 92.412745 
L 136.360754 92.061584 
L 137.346706 91.843234 
L 138.503735 91.764448 
L 139.413151 91.816222 
L 140.237029 91.971543 
L 141.709203 92.505037 
L 141.182461 92.444259 
L 140.588189 92.491531 
L 138.260624 92.169633 
L 137.265668 92.201148 
L 137.184631 92.867453 
" clip-path="url(#pc71d6f6e3d)" style="fill: none; stroke: #000000"/>
    <path d="M 330.912814 81.499749 
L 331.727687 80.241423 
L 333.731104 79.226208 
L 336.022653 78.782755 
L 337.674909 79.235213 
L 336.036159 82.116532 
L 335.450891 82.632018 
L 334.766578 82.645524 
L 334.721557 82.260598 
L 335.104232 81.294905 
L 334.861121 80.653362 
L 334.401911 80.646609 
L 334.100273 81.117074 
L 334.347886 81.877922 
L 333.537515 82.280857 
L 332.650609 82.253844 
L 331.759201 81.936449 
L 330.912814 81.499749 
" clip-path="url(#pc71d6f6e3d)" style="fill: none; stroke: #000000"/>
    <path d="M 339.367684 76.340387 
L 339.372186 76.209828 
L 339.669322 75.80014 
L 343.428543 74.733152 
L 344.202897 74.29195 
L 343.266469 75.070806 
L 340.709298 76.452939 
L 339.979964 77.344347 
L 339.669322 77.344347 
L 339.367684 76.340387 
" clip-path="url(#pc71d6f6e3d)" style="fill: none; stroke: #000000"/>
    <path d="M 197.449218 51.525028 
L 197.192601 51.592559 
L 197.071045 51.759135 
L 197.044033 52.006748 
L 197.10256 52.312888 
L 196.085094 52.88465 
L 195.382772 53.566712 
L 194.581406 54.190248 
L 193.289314 54.579676 
L 190.885214 54.687726 
L 189.746192 54.446865 
L 189.133912 53.82333 
L 189.737188 53.634243 
L 189.836233 53.32135 
L 189.584118 52.985947 
L 189.133912 52.727078 
L 190.885214 51.743378 
L 192.830104 51.22339 
L 195.018106 51.149106 
L 197.449218 51.525028 
" clip-path="url(#pc71d6f6e3d)" style="fill: none; stroke: #000000"/>
    <path d="M 324.272274 54.012416 
L 327.513758 57.60281 
L 320.558073 56.918497 
L 319.54511 57.256151 
L 319.792723 57.481254 
L 320.035834 57.5803 
L 317.811816 57.665839 
L 316.362153 57.524024 
L 315.736366 57.067065 
L 315.844416 55.94155 
L 315.587798 55.509352 
L 314.795436 55.336022 
L 313.345772 55.30901 
L 312.7515 55.41931 
L 312.33731 55.747961 
L 311.927623 55.747961 
L 311.743038 55.342775 
L 311.553952 55.11317 
L 311.256816 55.104166 
L 310.599515 55.342775 
L 310.446445 54.579676 
L 311.995154 52.344403 
L 314.165147 51.108587 
L 316.839371 50.845217 
L 321.557531 52.033761 
L 322.971178 52.742835 
L 323.407878 53.08049 
L 324.272274 54.012416 
" clip-path="url(#pc71d6f6e3d)" style="fill: none; stroke: #000000"/>
    <path d="M 428.70658 47.405642 
L 427.35146 48.053939 
L 427.031814 48.958853 
L 426.977789 50.030344 
L 426.446546 51.178369 
L 426.04136 51.48676 
L 425.258002 51.885193 
L 424.924849 52.312888 
L 424.726758 52.853136 
L 424.623211 53.406889 
L 424.546676 54.579676 
L 424.168503 54.579676 
L 424.168503 53.82333 
L 424.326075 52.551498 
L 426.059368 48.918335 
L 426.433039 47.518194 
L 426.838225 47.131016 
L 427.743139 46.991452 
L 428.50849 46.968942 
L 429.129774 47.02972 
L 429.471931 47.353868 
L 429.462926 47.9684 
L 429.431412 47.907622 
L 429.27384 47.792819 
L 429.053239 47.779313 
L 429.053239 48.535659 
L 428.70658 48.535659 
L 428.70658 47.405642 
" clip-path="url(#pc71d6f6e3d)" style="fill: none; stroke: #000000"/>
    <path d="M 459.401631 58.80486 
L 460.873805 60.380582 
L 461.819238 61.105413 
L 463.174358 61.413805 
L 462.43602 61.724447 
L 461.715691 62.248937 
L 461.166439 62.967016 
L 460.95034 63.869679 
L 460.95034 64.747581 
L 460.779262 65.094239 
L 460.202998 65.060474 
L 458.996446 64.810609 
L 459.644743 64.810609 
L 460.157978 64.641782 
L 460.383081 64.270362 
L 460.157978 63.680592 
L 459.779804 63.680592 
L 459.212545 64.040757 
L 458.361655 64.229844 
L 457.470247 64.236597 
L 456.794938 64.054263 
L 456.794938 63.680592 
L 458.847878 63.162855 
L 459.698767 62.766674 
L 460.157978 62.136385 
L 457.281161 62.251188 
L 455.998073 62.487546 
L 454.904073 62.924246 
L 457.95647 61.668171 
L 458.996446 61.413805 
L 458.996446 61.035631 
L 456.736411 60.997364 
L 456.196164 61.224718 
L 455.448822 61.735702 
L 454.980608 61.609644 
L 454.552912 61.244977 
L 453.927125 61.035631 
L 448.416603 61.413805 
L 447.426149 61.780722 
L 444.49981 63.293415 
L 443.883027 63.869679 
L 443.239233 64.716066 
L 441.884112 64.882642 
L 440.668556 65.256314 
L 440.452457 66.73524 
L 441.208803 66.357067 
L 441.222309 66.075689 
L 440.862145 65.945129 
L 443.504854 65.675005 
L 443.883027 65.776302 
L 444.288213 67.03913 
L 444.175661 67.619895 
L 443.302262 67.86976 
L 441.722038 67.723443 
L 439.970737 67.358776 
L 438.007838 66.60243 
L 438.44904 66.309796 
L 438.746176 65.656997 
L 439.317938 64.810609 
L 438.1429 65.31484 
L 437.805245 65.602972 
L 438.183418 65.945129 
L 436.495146 65.954133 
L 435.594733 66.305294 
L 435.045482 66.086944 
L 434.185588 65.602972 
L 433.375217 65.512931 
L 432.39827 65.236054 
L 431.794994 64.761087 
L 432.105636 64.054263 
L 431.299767 63.912448 
L 429.606992 64.398671 
L 429.053239 64.436938 
L 428.675066 64.009243 
L 429.01272 63.635572 
L 429.751058 63.473497 
L 430.592944 63.680592 
L 430.592944 63.333934 
L 427.162373 61.791978 
L 427.923222 60.603434 
L 429.01272 59.624235 
L 430.417363 59.252815 
L 432.105636 59.901112 
L 432.483809 59.522939 
L 433.127604 59.887606 
L 433.892954 59.806569 
L 435.536207 59.147017 
L 434.667309 59.090741 
L 434.010008 58.719321 
L 433.739884 58.179074 
L 433.996502 57.60281 
L 433.996502 57.256151 
L 433.240156 57.213382 
L 432.479307 56.646122 
L 431.91655 56.504307 
L 429.458424 56.88248 
L 430.417363 55.729953 
L 430.831553 55.432817 
L 432.326237 55.216718 
L 433.996502 54.701232 
L 435.131021 54.579676 
L 435.198552 54.190248 
L 435.536207 54.079947 
L 435.882865 53.82333 
L 433.676855 53.217803 
L 433.240156 52.727078 
L 433.699366 52.324144 
L 433.649843 51.934715 
L 432.020097 52.310637 
L 431.029644 52.375917 
L 429.958153 51.777143 
L 429.561972 50.584097 
L 429.201807 50.458039 
L 428.70658 50.46029 
L 429.976161 50.102377 
L 434.212601 49.73771 
L 435.131021 49.859265 
L 435.428157 50.190167 
L 436.071952 50.340986 
L 436.720249 50.624616 
L 437.251492 51.745629 
L 437.674685 51.538534 
L 437.88178 50.908245 
L 437.427072 50.048352 
L 438.223937 49.406808 
L 439.232399 48.792277 
L 440.276877 48.328565 
L 441.208803 48.123721 
L 440.592021 49.251487 
L 440.177831 49.73771 
L 439.696111 50.048352 
L 440.34891 50.075364 
L 440.614531 50.203673 
L 440.862145 50.46029 
L 440.583017 50.723661 
L 440.074284 51.525028 
L 440.871149 51.554291 
L 441.510441 51.419229 
L 442.005668 51.07032 
L 442.338821 50.46029 
L 441.870606 50.379253 
L 441.343865 50.129389 
L 440.862145 50.048352 
L 440.862145 49.670179 
L 441.613989 49.25824 
L 442.230771 49.998829 
L 443.207718 50.719159 
L 443.860517 51.475505 
L 443.504854 52.312888 
L 444.598855 53.235811 
L 445.976486 53.526194 
L 448.82629 53.483424 
L 448.416603 53.069235 
L 449.21797 52.108045 
L 449.582637 51.934715 
L 449.582637 51.525028 
L 448.848801 50.363496 
L 448.416603 50.048352 
L 448.416603 49.670179 
L 449.582637 49.25824 
L 449.582637 48.918335 
L 448.893821 48.940845 
L 447.691771 49.670179 
L 447.092997 49.730957 
L 445.193127 49.670179 
L 444.895991 49.494598 
L 444.220682 48.71124 
L 443.693941 48.535659 
L 442.86106 48.432112 
L 442.518903 48.157486 
L 442.329816 47.797321 
L 441.195297 46.631288 
L 440.020259 47.257074 
L 439.128851 47.975153 
L 437.832258 48.432112 
L 436.891327 49.028635 
L 435.891869 49.463084 
L 434.784362 49.25824 
L 434.590774 48.60319 
L 434.982453 47.583473 
L 435.702783 46.649296 
L 436.481639 46.235106 
L 436.886825 45.47876 
L 437.00838 44.963274 
L 436.846306 44.726916 
L 434.374675 45.100587 
L 433.564304 45.429237 
L 433.208641 45.36846 
L 433.240156 44.726916 
L 433.550798 44.353245 
L 434.136066 43.984076 
L 434.802371 43.704948 
L 442.392845 42.424112 
L 443.937052 42.410606 
L 445.39572 42.872067 
L 445.39572 43.214223 
L 444.54483 43.610405 
L 443.401307 43.99308 
L 442.397347 44.506315 
L 441.960647 45.289673 
L 442.127224 46.271123 
L 442.59994 47.056732 
L 443.329274 47.666762 
L 444.261201 48.123721 
L 446.570758 48.58068 
L 453.742541 47.779313 
L 456.205168 48.094457 
L 457.875433 49.17045 
L 458.2401 50.595352 
L 456.794938 51.934715 
L 454.341315 52.891403 
L 453.125758 53.580219 
L 452.608021 54.39059 
L 452.810614 55.320265 
L 453.296837 56.288208 
L 453.918121 57.112085 
L 454.494385 57.60281 
L 455.628904 57.949469 
L 458.249104 58.320889 
L 459.401631 58.80486 
L 459.401631 58.80486 
" clip-path="url(#pc71d6f6e3d)" style="fill: none; stroke: #000000"/>
    <path d="M 162.553744 42.11347 
L 165.31801 45.136603 
L 166.371492 45.47876 
L 165.615146 45.856933 
L 163.733284 46.253115 
L 162.436691 45.564299 
L 161.392213 44.461294 
L 160.29371 43.592397 
L 161.896444 41.841095 
L 162.886897 41.208555 
L 164.102453 40.949687 
L 164.120462 41.215308 
L 164.034922 41.276086 
L 163.87735 41.26258 
L 163.72428 41.32786 
L 163.112 41.692527 
L 162.553744 42.11347 
" clip-path="url(#pc71d6f6e3d)" style="fill: none; stroke: #000000"/>
    <path d="M 171.692928 38.649134 
L 174.772338 38.757183 
L 176.028413 39.202887 
L 177.014364 40.193341 
L 177.014364 40.571514 
L 176.555154 41.017218 
L 175.924865 42.079704 
L 175.465655 42.457877 
L 174.709309 42.599692 
L 173.77288 42.534412 
L 172.926493 42.345326 
L 172.449274 42.11347 
L 171.008615 42.430865 
L 169.216795 42.111218 
L 165.993319 40.949687 
L 167.082818 39.790406 
L 168.329889 39.088085 
L 169.842581 38.739175 
L 171.692928 38.649134 
" clip-path="url(#pc71d6f6e3d)" style="fill: none; stroke: #000000"/>
    <path d="M 164.102453 28.040027 
L 163.778305 30.000675 
L 165.651162 31.024894 
L 168.316382 31.40982 
L 180.372901 31.058659 
L 178.986267 31.69345 
L 172.071101 31.470598 
L 171.206705 31.740721 
L 169.680507 32.431788 
L 168.843124 32.571351 
L 165.029878 32.571351 
L 164.669713 32.463302 
L 164.192495 31.981581 
L 163.72428 31.848771 
L 163.193037 31.862277 
L 162.832872 31.945565 
L 161.158106 32.620874 
L 160.874476 32.773944 
L 160.725908 33.17913 
L 160.644871 34.268628 
L 160.482796 34.493731 
L 160.671883 37.514614 
L 160.527817 38.500566 
L 160.248689 39.263665 
L 159.902031 39.425739 
L 159.537364 38.649134 
L 159.492343 37.190466 
L 160.131636 31.186968 
L 160.653875 30.01193 
L 164.840791 23.238579 
L 167.168357 21.559311 
L 169.802062 22.369681 
L 166.425517 22.47548 
L 165.993319 22.747855 
L 167.52402 22.840147 
L 167.978728 23.513205 
L 167.488003 24.274053 
L 165.236973 25.003387 
L 164.192495 25.903799 
L 163.616231 27.013557 
L 164.102453 28.040027 
" clip-path="url(#pc71d6f6e3d)" style="fill: none; stroke: #000000"/>
    <path d="M 179.269897 50.476048 
L 182.831027 49.593644 
L 182.943578 50.192418 
L 182.497874 51.547538 
L 181.219289 52.729329 
L 179.643568 53.25607 
L 178.400999 53.242564 
L 177.698677 52.877897 
L 177.131418 52.078781 
L 177.473574 51.187373 
L 178.473032 50.737167 
L 178.878217 50.624616 
L 179.269897 50.476048 
" clip-path="url(#pc71d6f6e3d)" style="fill: none; stroke: #000000"/>
    <path d="M 138.8639 70.514721 
L 138.589274 70.638527 
L 138.508237 70.408922 
L 138.278632 70.366153 
L 138.103052 70.118539 
L 137.855438 69.947461 
L 137.522286 69.767379 
L 138.332657 69.72686 
L 138.670311 69.947461 
L 138.8639 70.514721 
" clip-path="url(#pc71d6f6e3d)" style="fill: none; stroke: #000000"/>
    <path d="M 139.318608 69.85742 
L 140.286551 69.690843 
L 140.484642 69.990231 
L 139.611242 70.150054 
L 139.318608 69.85742 
" clip-path="url(#pc71d6f6e3d)" style="fill: none; stroke: #000000"/>
   </g>
  </g>
 </g>
 <defs>
  <clipPath id="pc71d6f6e3d">
   <rect x="0" y="0" width="558" height="474.304831"/>
  </clipPath>
 </defs>
</svg>
