<?xml version="1.0" encoding="utf-8" standalone="no"?>
<!DOCTYPE svg PUBLIC "-//W3C//DTD SVG 1.1//EN"
  "http://www.w3.org/Graphics/SVG/1.1/DTD/svg11.dtd">
<svg xmlns:xlink="http://www.w3.org/1999/xlink" width="456.554774pt" height="554.4pt" viewBox="0 0 456.554774 554.4" xmlns="http://www.w3.org/2000/svg" version="1.1">
 <metadata>
  <rdf:RDF xmlns:dc="http://purl.org/dc/elements/1.1/" xmlns:cc="http://creativecommons.org/ns#" xmlns:rdf="http://www.w3.org/1999/02/22-rdf-syntax-ns#">
   <cc:Work>
    <dc:type rdf:resource="http://purl.org/dc/dcmitype/StillImage"/>
    <dc:date>2025-01-12T14:40:05.820290</dc:date>
    <dc:format>image/svg+xml</dc:format>
    <dc:creator>
     <cc:Agent>
      <dc:title>Matplotlib v3.10.0, https://matplotlib.org/</dc:title>
     </cc:Agent>
    </dc:creator>
   </cc:Work>
  </rdf:RDF>
 </metadata>
 <defs>
  <style type="text/css">*{stroke-linejoin: round; stroke-linecap: butt}</style>
 </defs>
 <g id="figure_1">
  <g id="patch_1">
   <path d="M 0 554.4 
L 456.554774 554.4 
L 456.554774 0 
L 0 0 
z
" style="fill: #ffffff"/>
  </g>
  <g id="axes_1">
   <g id="LineCollection_1">
    <path d="M 115.00068 46.534018 
L 115.295189 44.345166 
L 116.742813 43.331829 
L 118.769486 43.476591 
L 118.913942 46.509361 
L 126.162217 46.540015 
L 126.264166 47.436092 
L 126.950979 48.658136 
L 127.004636 49.658845 
L 126.84903 50.699796 
L 126.832933 51.5838 
L 127.181705 52.317563 
L 128.109976 52.898403 
L 130.122124 54.658362 
L 131.227464 55.376028 
L 132.62528 55.657361 
L 140.204327 55.594681 
L 142.538419 55.349199 
L 143.048163 55.487367 
L 143.992531 55.943454 
L 144.663247 56.034671 
L 162.885259 55.774433 
L 163.958601 56.308221 
L 164.087183 56.339176 
L 174.094265 56.253324 
L 177.19029 57.107817 
L 180.881911 58.968383 
L 183.001374 59.453981 
L 183.505752 59.833606 
L 184.321343 61.207233 
L 184.70231 61.459422 
L 185.743261 61.381619 
L 186.129593 61.505031 
L 186.473 61.967825 
L 186.676898 62.470862 
L 187.111522 63.903511 
L 187.996867 64.037654 
L 232.897279 92.895881 
L 233.86311 93.857688 
L 235.183079 95.973126 
L 235.982572 96.920177 
L 236.647923 97.287729 
L 238.198618 97.763938 
L 239.395175 98.803548 
L 240.028331 98.909521 
L 241.664878 98.503067 
L 243.290694 98.374289 
L 254.349459 99.621821 
L 257.257684 99.373656 
L 259.902988 98.217342 
L 259.967377 97.919544 
L 259.924451 97.45675 
L 260.031765 97.024809 
L 260.530778 96.822253 
L 260.80443 96.94164 
L 261.786359 97.755889 
L 262.204885 98.250878 
L 262.306834 98.661356 
L 262.510732 98.965861 
L 263.911187 99.223416 
L 264.19557 99.184514 
L 264.930675 98.897448 
L 265.354568 99.529262 
L 268.386204 99.747916 
L 268.423764 98.320632 
L 269.829585 100.171808 
L 270.63981 100.995448 
L 271.589544 101.515923 
L 280.582504 103.946598 
L 281.934667 103.925135 
L 284.113153 103.505267 
L 284.982401 103.623313 
L 285.760431 103.911721 
L 286.565291 103.900989 
L 289.548635 103.271858 
L 290.047648 103.392587 
L 295.391913 105.846066 
L 297.414793 106.276665 
L 299.394746 106.225691 
L 301.739569 104.87621 
L 302.421017 104.916453 
L 302.662475 105.454368 
L 302.184925 106.41215 
L 308.666724 106.605316 
L 310.265711 107.14323 
L 310.716432 107.725412 
L 310.990085 108.428322 
L 311.381783 109.121843 
L 312.208105 109.670488 
L 313.866115 109.583295 
L 314.740728 108.217717 
L 315.872897 104.760847 
L 317.214329 103.151129 
L 324.704885 96.315191 
L 325.697545 95.008636 
L 326.556062 93.408308 
L 329.024296 86.866144 
L 330.070613 85.583735 
L 346.371695 77.686725 
L 346.607787 77.38222 
L 346.618519 76.852354 
L 347.573618 77.024058 
L 356.926082 73.768402 
L 357.2051 73.505481 
L 357.510947 72.667086 
L 357.806062 72.392093 
L 374.316407 66.051144 
L 377.589501 63.900828 
L 378.732401 65.411281 
L 381.86062 67.532085 
L 383.137664 68.986197 
L 384.006912 70.591891 
L 384.543484 71.117732 
L 385.487852 71.599307 
L 387.966819 72.444409 
L 388.803872 72.943421 
L 390.161402 74.193636 
L 393.493519 78.853771 
L 395.800782 80.648607 
L 398.317308 81.669437 
L 401.032367 81.984673 
L 412.155521 81.347493 
L 414.763265 80.617754 
L 416.136891 80.542634 
L 420.29533 79.516438 
L 421.121652 79.572778 
L 422.495279 80.142887 
L 423.235749 80.279713 
L 423.986951 80.110693 
L 426.1869 78.853771 
L 428.655134 79.65863 
L 430.940935 80.865919 
L 433.253563 81.317981 
L 435.802284 79.875942 
L 407.648309 120.167194 
L 388.803872 138.818464 
L 388.058036 140.259162 
L 388.219008 166.095143 
L 388.320957 294.260923 
L 388.803872 331.56883 
L 417.000773 368.012854 
L 417.628563 369.155754 
L 417.816364 370.137683 
L 417.605347 374.455784 
L 413.650763 378.503317 
L 411.783321 381.35518 
L 411.538272 382.263552 
L 410.414426 382.956449 
L 407.461163 385.643538 
L 405.610621 387.916578 
L 404.53325 388.558776 
L 403.734728 387.57858 
L 402.767207 387.975728 
L 401.871511 387.882779 
L 401.275789 387.287056 
L 401.225089 386.167436 
L 400.185743 387.240581 
L 399.982944 388.482726 
L 399.501296 389.682621 
L 398.001427 389.543197 
L 395.521362 389.031974 
L 394.88339 389.429122 
L 393.852494 390.561418 
L 392.4498 391.152915 
L 391.342854 392.43731 
L 390.527433 392.39506 
L 389.348662 391.693713 
L 389.006439 391.195165 
L 388.790965 390.451568 
L 388.82899 389.682621 
L 389.340212 388.246127 
L 389.179663 386.894133 
L 389.390912 386.251935 
L 390.172534 385.09429 
L 388.334667 386.505434 
L 388.123417 392.610534 
L 387.016472 393.992104 
L 386.053176 393.269632 
L 385.08988 390.075545 
L 382.63939 388.296827 
L 382.022542 389.031974 
L 382.360541 389.809371 
L 382.51264 390.493818 
L 382.377441 391.152915 
L 383.222438 390.785342 
L 383.889985 390.962791 
L 384.342058 391.545839 
L 384.498382 392.39506 
L 384.388533 392.741509 
L 383.906885 393.020358 
L 383.788585 393.316106 
L 383.961809 393.814654 
L 384.722306 394.017454 
L 384.887081 394.363902 
L 384.975805 398.149487 
L 385.284229 400.160578 
L 385.951776 401.470323 
L 386.416524 401.597073 
L 387.616419 401.559048 
L 388.271292 402.015346 
L 388.77829 402.763168 
L 388.854339 403.329315 
L 388.271292 404.677085 
L 386.991122 406.253003 
L 385.837702 406.481152 
L 385.672927 405.89388 
L 387.37137 405.044658 
L 386.475674 404.72356 
L 385.757427 404.241912 
L 384.498382 402.915267 
L 384.304033 402.501219 
L 384.337833 402.040696 
L 383.788585 401.825222 
L 383.856185 401.943521 
L 383.505511 402.066046 
L 382.745014 402.20547 
L 381.447945 402.915267 
L 380.286075 404.309511 
L 379.196029 405.272807 
L 378.118658 404.68976 
L 378.287658 405.602356 
L 378.566507 405.991054 
L 379.242504 406.286803 
L 379.145329 406.624802 
L 378.794656 407.186725 
L 379.132654 407.947221 
L 380.602948 408.923192 
L 380.957847 409.64989 
L 380.349449 410.849785 
L 378.91718 412.256704 
L 377.299012 413.422799 
L 374.890772 414.41567 
L 371.713585 418.192805 
L 369.913742 418.877252 
L 368.320924 418.530803 
L 366.77458 417.833681 
L 365.122612 417.453433 
L 363.424169 417.630882 
L 358.17674 419.28285 
L 356.021999 420.829194 
L 354.712254 421.243242 
L 353.187035 422.193863 
L 350.601346 424.28523 
L 349.988724 424.927427 
L 349.532425 425.654124 
L 348.573354 427.825765 
L 347.022786 429.786157 
L 346.798862 430.660728 
L 346.900261 431.062102 
L 347.673433 432.092998 
L 347.732583 432.430996 
L 346.498888 436.993978 
L 346.380588 438.696646 
L 347.479084 439.528967 
L 347.208685 440.889412 
L 347.838207 441.489359 
L 348.907128 441.383735 
L 349.988724 440.585213 
L 350.030973 441.16826 
L 349.625375 441.785108 
L 347.808633 443.513126 
L 346.722812 444.962295 
L 346.443963 445.587592 
L 346.220039 448.223982 
L 345.89049 449.128128 
L 344.124448 451.637768 
L 344.086423 452.33489 
L 344.648345 454.223457 
L 344.639895 455.186753 
L 344.318797 455.9895 
L 343.858274 456.733097 
L 343.254101 457.383744 
L 342.514729 457.873842 
L 340.005089 459.014587 
L 339.320642 459.470885 
L 338.074272 460.928505 
L 337.372925 461.486202 
L 336.456104 461.634077 
L 336.861702 460.751055 
L 337.5208 458.051291 
L 336.587078 458.27944 
L 336.177255 458.786438 
L 336.101205 460.193358 
L 336.050506 460.675006 
L 335.746307 461.955175 
L 336.13078 462.833972 
L 335.218184 464.329616 
L 334.161938 467.101204 
L 332.776144 469.323545 
L 332.235346 472.310608 
L 331.639624 473.523178 
L 330.980526 474.114676 
L 330.528453 474.207625 
L 329.155334 473.565428 
L 328.475112 472.779581 
L 328.230063 472.728881 
L 326.848493 472.614807 
L 327.101992 471.955709 
L 326.565419 471.524761 
L 326.159821 472.475382 
L 326.303471 473.269679 
L 326.928768 473.734427 
L 327.976564 473.717527 
L 327.351266 474.452674 
L 327.562515 475.061072 
L 328.293437 475.301896 
L 330.097505 474.566749 
L 330.676328 474.985022 
L 331.005876 475.779319 
L 331.136851 476.548266 
L 331.035451 478.187559 
L 326.848493 489.725987 
L 325.517624 491.006156 
L 324.03043 491.242755 
L 322.982634 490.461134 
L 322.991084 488.699316 
L 321.841889 489.333063 
L 321.52079 489.725987 
L 321.706689 490.245659 
L 322.057363 490.769557 
L 322.467186 491.732853 
L 322.991084 492.210276 
L 324.140279 492.121552 
L 324.714877 492.400401 
L 324.567003 493.296097 
L 323.472732 494.504442 
L 322.796735 495.974736 
L 322.336212 496.540884 
L 321.884139 496.785933 
L 321.385591 496.515534 
L 321.039142 495.324089 
L 320.633544 495.049465 
L 320.278645 494.419942 
L 320.388495 493.228497 
L 320.312445 492.51025 
L 319.408299 493.274972 
L 318.073204 492.54405 
L 317.469032 492.4511 
L 316.898659 492.920074 
L 317.414107 493.414397 
L 318.026729 493.655221 
L 319.408299 493.984769 
L 319.0196 494.91004 
L 318.529502 495.349439 
L 316.366311 495.733912 
L 315.314291 495.733912 
L 315.124166 496.093036 
L 315.263591 497.706979 
L 315.479065 498.239327 
L 316.231112 497.225331 
L 317.954905 497.107031 
L 319.771647 497.639379 
L 320.789868 498.594225 
L 320.591294 499.84482 
L 317.997155 504.297952 
L 316.332511 508.531385 
L 314.634068 514.902659 
L 314.059471 516.372952 
L 313.594723 515.696955 
L 313.146874 515.73498 
L 312.293428 516.770101 
L 312.208928 517.053175 
L 312.259628 517.699597 
L 312.094854 517.991121 
L 311.194932 518.891042 
L 309.42044 524.23987 
L 309.090891 523.276574 
L 309.25144 521.76403 
L 309.065541 521.020433 
L 308.397994 521.540106 
L 307.291048 523.851172 
L 307.037549 523.821597 
L 306.669976 523.623023 
L 306.340427 523.673723 
L 306.201003 524.404645 
L 306.302402 524.835593 
L 307.113599 525.963663 
L 306.589701 526.68191 
L 304.840558 526.939634 
L 302.863267 526.453761 
L 301.621122 524.915868 
L 301.578872 525.215841 
L 301.270448 525.980563 
L 299.745229 525.52004 
L 298.621384 526.597411 
L 297.670763 528.076155 
L 296.441293 528.887351 
L 296.086394 528.980301 
L 295.917395 529.2 
L 222.214114 476.13764 
L 221.500472 475.204003 
L 220.979997 474.141589 
L 220.078555 470.943615 
L 219.686856 470.144122 
L 218.962483 469.478771 
L 217.980555 469.006587 
L 216.885946 468.716838 
L 215.775241 468.620255 
L 213.290909 468.76513 
L 213.140668 468.051488 
L 213.553829 467.037365 
L 213.763093 466.178849 
L 213.500172 465.771053 
L 212.647021 465.663739 
L 212.27142 465.282772 
L 212.190934 464.735468 
L 212.325078 464.12914 
L 212.834822 463.088189 
L 213.591389 462.251136 
L 214.750387 461.333596 
L 215.984504 460.673612 
L 216.966432 460.598491 
L 216.891312 459.670221 
L 217.073747 458.945847 
L 217.588857 458.500492 
L 218.533225 458.430737 
L 216.462054 445.772985 
L 215.667926 444.495942 
L 29.165951 340.373989 
L 27.239655 340.223749 
L 26.54211 339.767662 
L 26.440161 338.410133 
L 25.420673 338.410133 
L 21.466132 338.410133 
L 20.97785 320.767619 
L 24.025584 294.373603 
L 23.971927 292.366821 
L 20.75249 281.683656 
L 20.913462 280.658802 
L 28.548893 270.480016 
L 30.416166 269.031269 
L 30.861521 268.344456 
L 31.006396 267.287408 
L 30.421532 265.393306 
L 30.367874 264.438206 
L 30.598601 263.966022 
L 31.859547 262.361669 
L 32.020519 261.92168 
L 33.313659 256.62034 
L 34.20437 255.021354 
L 35.738968 253.969671 
L 37.847699 253.207737 
L 39.527172 252.354587 
L 40.777387 251.013155 
L 41.61444 248.786378 
L 41.931018 246.940567 
L 42.360277 246.48448 
L 45.692394 244.815739 
L 46.583104 244.005514 
L 47.328941 241.915563 
L 48.825979 239.970486 
L 50.172777 236.643735 
L 50.478623 235.581321 
L 50.510817 233.252595 
L 50.779104 232.147255 
L 51.213728 231.090206 
L 51.723472 230.161935 
L 52.785886 229.120984 
L 53.644403 229.322199 
L 54.492188 229.802432 
L 55.576065 229.595851 
L 56.1341 228.643434 
L 56.219952 227.473706 
L 56.57409 226.523972 
L 59.090616 225.949839 
L 60.861307 224.248903 
L 61.939818 223.588919 
L 66.210938 223.151612 
L 67.863582 222.403093 
L 68.518201 220.294362 
L 67.976262 218.228556 
L 67.07482 216.117142 
L 66.881654 214.271332 
L 69.966947 211.746757 
L 71.061556 207.554782 
L 72.258113 205.77336 
L 72.778589 205.511781 
L 73.867831 205.289103 
L 74.382941 205.053011 
L 74.914148 204.55534 
L 75.289749 203.966451 
L 76.937028 200.477387 
L 77.24824 199.350584 
L 77.301897 189.260332 
L 77.527258 188.628518 
L 78.498455 187.399766 
L 78.691621 186.843072 
L 78.4287 186.264914 
L 76.754593 184.588124 
L 76.384358 183.678634 
L 76.169729 182.639024 
L 76.10534 181.565878 
L 76.185826 180.55578 
L 76.674107 178.240468 
L 76.668742 177.235736 
L 71.378134 164.485424 
L 71.040093 162.446448 
L 71.49618 161.164039 
L 72.435182 160.439665 
L 73.481499 159.84407 
L 74.248798 158.923847 
L 74.388307 157.74607 
L 73.910757 156.860725 
L 72.494205 155.406613 
L 72.193724 154.416636 
L 71.898609 151.833038 
L 71.378134 151.124762 
L 70.90595 151.197199 
L 70.144016 152.01279 
L 69.430374 151.959132 
L 68.942093 151.481583 
L 66.752876 146.931445 
L 65.964114 142.421551 
L 64.697802 138.689687 
L 64.343664 138.249697 
L 64.070012 138.182626 
L 62.503219 137.337523 
L 62.315419 137.063871 
L 62.202739 136.884119 
L 62.004207 136.790219 
L 61.875429 136.873388 
L 61.515926 137.369718 
L 61.301296 137.47435 
L 60.721798 137.949216 
L 60.399854 138.059214 
L 59.691578 137.871413 
L 59.219394 137.383132 
L 58.441363 136.143649 
L 56.794085 134.311253 
L 56.273609 133.407128 
L 54.762421 125.548267 
L 54.154147 124.459776 
L 53.064904 123.738086 
L 50.618132 123.037858 
L 49.534255 122.348362 
L 48.970853 121.159853 
L 48.455743 114.785369 
L 47.785028 112.714198 
L 46.91578 111.626296 
L 46.507984 111.069602 
L 46.373841 110.448519 
L 46.529447 109.860972 
L 47.049923 108.589294 
L 47.130409 108.096989 
L 46.91578 107.52688 
L 46.277258 106.414833 
L 46.234332 105.852773 
L 46.524081 105.398027 
L 48.010388 104.806456 
L 48.997682 103.290638 
L 49.485963 101.210077 
L 49.614741 97.03554 
L 49.265968 95.943615 
L 48.504035 95.45265 
L 47.532838 95.154853 
L 46.556276 94.645108 
L 44.871437 92.84759 
L 43.937801 92.47333 
L 42.526614 92.882467 
L 41.984676 93.389528 
L 41.759315 93.887199 
L 41.517857 94.104511 
L 40.916896 93.763788 
L 40.133499 91.669812 
L 38.979868 90.180823 
L 38.947673 89.927292 
L 38.400369 89.972901 
L 37.370149 90.263991 
L 36.350661 90.331063 
L 35.014595 90.591301 
L 34.35461 90.341795 
L 34.698017 89.940706 
L 35.733602 89.27938 
L 35.084349 88.489277 
L 34.268759 88.18343 
L 34.172176 87.899047 
L 36.651142 86.616638 
L 37.214543 85.91641 
L 37.0804 85.206793 
L 35.932134 84.607173 
L 34.923377 84.601807 
L 32.862938 85.336912 
L 32.047347 85.497884 
L 30.840058 85.061918 
L 30.915179 84.161817 
L 31.575163 82.96526 
L 32.127833 81.634559 
L 31.999056 80.796164 
L 31.398094 80.199227 
L 30.636161 79.690824 
L 30.019102 79.11535 
L 29.611307 78.290369 
L 29.63277 77.763187 
L 29.85813 77.26954 
L 30.062028 76.546508 
L 30.196171 74.726185 
L 30.035199 74.123882 
L 29.600575 73.540359 
L 29.021077 73.010493 
L 28.56499 72.441726 
L 28.500601 71.734791 
L 28.570355 70.137146 
L 27.921102 68.93254 
L 26.751374 68.013659 
L 25.24897 67.287944 
L 46.228966 46.497089 
L 61.029845 38.978464 
L 74.245315 34.070712 
L 91.112826 27.726052 
L 92.03139 29.44836 
L 99.724366 25.2 
L 100.872571 26.577846 
L 98.920622 30.596565 
L 104.087546 30.596565 
L 107.991444 31.744771 
L 105.465393 38.174721 
L 110.135803 46.531406 
L 114.716139 48.108988 
L 115.00068 46.534018 
L 115.00068 46.534018 
" clip-path="url(#p6d96951819)" style="fill: none; stroke: #000000"/>
    <path d="M 392.656824 392.766859 
L 393.265221 392.078186 
L 394.672141 392.166911 
L 396.226934 392.673909 
L 397.295855 393.282307 
L 398.305626 394.91315 
L 397.916927 396.011645 
L 396.962081 396.189095 
L 396.260734 395.056799 
L 396.307209 395.627172 
L 396.231159 396.21022 
L 396.02836 396.645393 
L 395.698811 396.822842 
L 395.546712 396.890442 
L 395.449537 397.021416 
L 395.297438 397.152391 
L 394.989014 397.21999 
L 394.629891 397.097466 
L 394.342592 396.856642 
L 394.156693 396.615818 
L 394.101768 396.501743 
L 393.417321 396.603143 
L 392.49205 396.915792 
L 390.557007 397.921338 
L 390.083809 397.574889 
L 389.627511 397.659389 
L 389.281063 398.098787 
L 389.137413 398.808584 
L 389.416262 399.214182 
L 389.97396 399.543731 
L 390.371108 399.911304 
L 390.172534 400.439427 
L 389.526112 400.430977 
L 389.120513 400.126778 
L 388.892364 399.619781 
L 388.790965 398.986033 
L 387.637544 399.226857 
L 387.641769 398.048087 
L 388.258617 396.413019 
L 388.968414 395.246923 
L 389.91481 394.718801 
L 391.13583 394.355452 
L 392.200526 393.814654 
L 392.656824 392.766859 
" clip-path="url(#p6d96951819)" style="fill: none; stroke: #000000"/>
   </g>
  </g>
 </g>
 <defs>
  <clipPath id="p6d96951819">
   <rect x="0" y="0" width="456.554774" height="554.4"/>
  </clipPath>
 </defs>
</svg>
