<?xml version="1.0" encoding="utf-8" standalone="no"?>
<!DOCTYPE svg PUBLIC "-//W3C//DTD SVG 1.1//EN"
  "http://www.w3.org/Graphics/SVG/1.1/DTD/svg11.dtd">
<svg xmlns:xlink="http://www.w3.org/1999/xlink" width="383.151733pt" height="554.4pt" viewBox="0 0 383.151733 554.4" xmlns="http://www.w3.org/2000/svg" version="1.1">
 <metadata>
  <rdf:RDF xmlns:dc="http://purl.org/dc/elements/1.1/" xmlns:cc="http://creativecommons.org/ns#" xmlns:rdf="http://www.w3.org/1999/02/22-rdf-syntax-ns#">
   <cc:Work>
    <dc:type rdf:resource="http://purl.org/dc/dcmitype/StillImage"/>
    <dc:date>2025-01-12T14:40:03.516069</dc:date>
    <dc:format>image/svg+xml</dc:format>
    <dc:creator>
     <cc:Agent>
      <dc:title>Matplotlib v3.10.0, https://matplotlib.org/</dc:title>
     </cc:Agent>
    </dc:creator>
   </cc:Work>
  </rdf:RDF>
 </metadata>
 <defs>
  <style type="text/css">*{stroke-linejoin: round; stroke-linecap: butt}</style>
 </defs>
 <g id="figure_1">
  <g id="patch_1">
   <path d="M 0 554.4 
L 383.151733 554.4 
L 383.151733 0 
L 0 0 
z
" style="fill: #ffffff"/>
  </g>
  <g id="axes_1">
   <g id="LineCollection_1">
    <path d="M 343.002152 506.31991 
L 339.472102 509.608839 
L 338.217415 510.433916 
L 336.97482 510.633073 
L 335.687415 510.459522 
L 334.524483 510.519269 
L 333.649616 511.412629 
L 333.436945 512.584808 
L 333.752751 513.546449 
L 334.222191 514.502401 
L 334.669583 516.826843 
L 335.506751 518.357504 
L 335.575034 518.872466 
L 335.486836 519.395963 
L 333.821744 523.017768 
L 333.222852 523.882677 
L 332.724249 524.406174 
L 331.64098 525.310914 
L 330.332236 526.801743 
L 329.852127 527.177296 
L 329.240432 527.407748 
L 328.432425 527.419129 
L 327.775208 527.629666 
L 325.822762 528.682351 
L 325.137094 528.875817 
L 323.710991 529.020917 
L 320.764896 528.744943 
L 319.347328 528.841676 
L 318.650528 529.2 
L 317.961327 528.61281 
L 316.594178 527.778115 
L 314.039816 526.081937 
L 310.707241 524.353746 
L 309.236487 522.960833 
L 308.934056 522.501586 
L 308.527454 522.391815 
L 308.369517 522.329088 
L 306.296183 520.635473 
L 305.321682 520.362165 
L 304.969966 520.057493 
L 304.33822 518.431085 
L 301.791077 516.880845 
L 299.604611 516.298384 
L 298.186544 514.967687 
L 297.223245 514.295617 
L 296.385398 513.368162 
L 295.953033 513.06349 
L 294.615615 512.503432 
L 293.01945 511.51325 
L 292.43811 511.396758 
L 291.405363 511.584937 
L 291.385201 511.293707 
L 291.967661 510.437939 
L 292.088634 509.801713 
L 291.846689 508.703999 
L 291.47369 505.417579 
L 291.091731 504.326587 
L 290.854266 503.278158 
L 290.464466 503.092219 
L 289.712868 502.151322 
L 288.6678 501.414285 
L 288.286961 500.554036 
L 287.824353 500.209041 
L 287.381907 500.074627 
L 285.661409 499.684827 
L 284.329591 498.75065 
L 279.756158 497.641735 
L 278.70773 497.180248 
L 277.820598 496.479055 
L 275.874957 494.39788 
L 273.783701 493.300166 
L 273.158676 493.13887 
L 271.207434 492.905886 
L 271.059579 492.632577 
L 271.036057 491.761127 
L 270.659698 491.40493 
L 269.312199 490.540201 
L 269.029929 490.074233 
L 268.373541 489.785243 
L 267.056285 489.489532 
L 266.384216 489.088531 
L 266.257643 488.602401 
L 266.274444 488.066985 
L 266.022418 487.53381 
L 264.48898 485.804351 
L 263.549203 485.282377 
L 263.064192 485.253254 
L 262.817767 485.074036 
L 262.345078 484.513978 
L 261.894792 484.368363 
L 261.025582 483.850869 
L 259.879703 483.66269 
L 258.280178 482.997341 
L 255.400888 483.033059 
L 252.951787 482.170696 
L 250.005882 480.114163 
L 245.273531 478.469669 
L 244.349297 477.513254 
L 243.135092 476.919593 
L 242.110186 476.222881 
L 241.631896 476.054863 
L 240.554345 476.077265 
L 240.039092 475.940611 
L 239.220287 475.53737 
L 238.777841 475.73675 
L 238.544857 475.360391 
L 238.197621 474.217873 
L 237.957916 473.951286 
L 237.681248 473.828073 
L 236.881485 473.653335 
L 235.361488 472.916299 
L 233.668993 472.524258 
L 230.445236 471.449163 
L 228.317515 471.119479 
L 227.643507 471.579787 
L 227.65477 470.921923 
L 226.698512 470.080165 
L 225.698077 469.752136 
L 223.735806 468.883882 
L 221.209284 467.226159 
L 218.500384 465.185259 
L 218.491069 464.868147 
L 218.635879 464.538358 
L 218.120665 463.749271 
L 217.2815 463.36104 
L 214.520613 462.008611 
L 213.33105 461.854035 
L 212.881883 461.571766 
L 212.517257 461.161983 
L 212.429456 460.87524 
L 212.088782 460.653032 
L 211.422253 460.431107 
L 210.376597 460.663877 
L 208.447568 460.080492 
L 207.115527 459.127673 
L 206.974393 458.312229 
L 206.832138 458.090446 
L 206.805933 457.71194 
L 206.656698 457.323855 
L 204.585226 456.660879 
L 200.658059 454.992205 
L 198.724378 453.963221 
L 196.072423 452.907549 
L 195.491997 452.130077 
L 192.450971 450.596871 
L 191.699373 450.01441 
L 191.328615 449.902399 
L 190.535573 450.000969 
L 190.098728 449.696298 
L 188.955089 448.567221 
L 187.449654 448.146057 
L 187.138261 447.603921 
L 186.661822 447.491456 
L 186.660584 447.183863 
L 187.04237 446.99786 
L 187.597598 446.854863 
L 187.701695 446.485119 
L 187.282756 445.887904 
L 186.481874 445.401774 
L 185.367358 444.938046 
L 184.631442 444.212211 
L 185.164617 444.239093 
L 185.468169 444.084517 
L 185.588021 443.808969 
L 185.431205 443.224268 
L 185.238545 442.971122 
L 183.903367 441.752436 
L 183.35451 441.50377 
L 181.916281 441.30439 
L 181.51304 441.008679 
L 181.025789 439.904245 
L 179.735416 438.082937 
L 179.328814 437.267492 
L 178.0362 436.317634 
L 177.991396 436.133935 
L 178.0362 435.266966 
L 177.930909 435.067585 
L 176.717824 434.15133 
L 173.142381 432.391861 
L 172.475945 431.971585 
L 171.275998 431.01417 
L 169.807829 430.228685 
L 169.306017 429.946415 
L 168.768362 429.785119 
L 167.811783 428.626919 
L 166.663664 428.064621 
L 166.257062 427.66586 
L 166.349643 427.046048 
L 166.198813 425.757305 
L 165.359055 424.511523 
L 165.07939 424.345845 
L 164.994708 424.033257 
L 165.316195 423.347927 
L 164.881141 422.48378 
L 163.324599 421.608273 
L 162.995285 421.299121 
L 162.094712 420.187966 
L 161.811323 420.062513 
L 160.863705 419.896736 
L 160.681126 419.690635 
L 160.396382 418.816953 
L 161.151731 418.733783 
L 161.367444 418.482356 
L 161.410612 418.210359 
L 160.24204 415.953928 
L 159.361629 415.588771 
L 158.417372 414.22895 
L 157.467763 413.859472 
L 157.422974 414.46512 
L 156.882688 415.321873 
L 156.352998 414.399208 
L 156.58366 413.670031 
L 156.56302 412.645175 
L 156.317154 412.020082 
L 156.607226 411.808859 
L 156.616225 411.370415 
L 156.973151 411.159232 
L 156.800455 410.86536 
L 156.930699 410.342864 
L 156.671547 410.027468 
L 156.514295 409.560307 
L 156.838326 409.443749 
L 156.903462 408.758372 
L 156.711035 408.279472 
L 156.218806 407.987654 
L 156.17602 407.450009 
L 156.290272 407.051248 
L 156.149137 406.87875 
L 155.856787 406.811543 
L 155.675328 406.945957 
L 155.598503 407.387534 
L 155.405359 407.615969 
L 155.062887 407.490796 
L 154.592197 407.572935 
L 154.079427 407.280983 
L 153.503184 407.258657 
L 153.581832 406.152915 
L 153.95349 405.273002 
L 154.253217 404.891338 
L 154.125278 404.537735 
L 154.382541 404.330281 
L 154.874837 404.435017 
L 155.380738 404.042617 
L 156.202471 404.104375 
L 156.351948 404.416395 
L 156.073143 404.8109 
L 156.008443 405.184934 
L 157.142008 405.97607 
L 157.356412 405.685366 
L 157.378482 405.103534 
L 158.156385 401.907676 
L 158.254955 401.163919 
L 158.893421 399.398617 
L 159.358269 397.11358 
L 159.17681 395.061528 
L 158.951667 394.048943 
L 158.261617 392.105489 
L 156.797684 390.171102 
L 155.898259 389.338619 
L 151.934344 384.236747 
L 151.042527 383.261856 
L 150.833284 382.595212 
L 150.433186 381.992017 
L 150.130602 380.780403 
L 150.262779 379.807765 
L 150.137246 378.681831 
L 149.419481 377.637006 
L 147.526485 376.050922 
L 147.004511 375.399015 
L 145.579724 372.775704 
L 145.588685 371.783281 
L 144.082542 369.941603 
L 142.351065 368.755887 
L 142.002074 368.021932 
L 142.569973 367.307298 
L 142.80939 366.274815 
L 142.576621 365.224183 
L 141.625715 364.437562 
L 140.848953 363.065912 
L 138.225044 361.61935 
L 136.245799 360.808386 
L 135.593892 360.095993 
L 135.527805 359.710673 
L 135.765269 358.966916 
L 135.335145 357.878163 
L 134.370725 357.183691 
L 133.16212 356.820774 
L 132.00504 356.713243 
L 132.236904 356.20247 
L 132.826085 355.369104 
L 132.945938 354.712716 
L 132.803683 352.864525 
L 131.665645 349.925341 
L 131.825434 349.245053 
L 131.414356 348.591103 
L 131.415387 348.343706 
L 131.920751 348.413502 
L 132.221311 348.03267 
L 132.110487 347.471152 
L 131.440502 346.23792 
L 131.31953 345.653219 
L 131.013738 345.001312 
L 130.613857 344.472617 
L 129.546386 343.840872 
L 128.981848 343.045589 
L 129.174508 342.783482 
L 129.060256 342.333196 
L 128.589807 341.79554 
L 127.998386 340.798637 
L 127.240068 340.372993 
L 126.897312 339.900304 
L 126.420143 339.591152 
L 125.236181 339.064698 
L 124.340088 338.320941 
L 120.069086 336.08295 
L 119.002465 335.253641 
L 119.068719 334.911922 
L 118.869421 333.73068 
L 119.060894 333.560878 
L 118.982897 333.327505 
L 119.206363 333.09582 
L 120.046432 333.007452 
L 120.363927 332.900557 
L 120.477404 332.466502 
L 120.449682 331.752106 
L 119.791317 330.70815 
L 119.952041 330.383392 
L 119.384786 329.758323 
L 119.513582 329.479804 
L 119.230239 328.995508 
L 119.358684 328.763691 
L 119.123346 328.233078 
L 118.615698 327.604829 
L 118.728158 327.372343 
L 119.014869 327.109798 
L 118.53106 326.112976 
L 118.565166 325.756001 
L 118.06398 324.728336 
L 117.232483 323.574019 
L 117.298123 323.139426 
L 116.087294 322.135258 
L 116.090141 321.731217 
L 116.23462 321.482939 
L 115.764606 320.843708 
L 115.797673 320.64201 
L 114.427063 319.283452 
L 114.057425 318.750277 
L 113.462643 318.226063 
L 111.715367 315.270358 
L 111.781498 314.959972 
L 111.423042 314.290242 
L 110.159422 313.275151 
L 110.219887 312.83918 
L 109.920914 312.23104 
L 108.936255 310.779533 
L 109.159179 310.517826 
L 109.115249 310.207753 
L 108.801841 309.912563 
L 107.755976 309.245432 
L 107.690781 307.989723 
L 106.937192 307.315784 
L 106.87883 306.879948 
L 106.662931 306.303879 
L 106.794499 305.978424 
L 105.869289 304.621575 
L 104.706103 303.571556 
L 104.259068 302.450433 
L 104.495898 302.405539 
L 104.668317 302.250341 
L 104.623031 301.907841 
L 104.372692 301.57944 
L 104.452469 301.408808 
L 104.393755 300.848936 
L 103.954382 300.253546 
L 103.689142 299.310433 
L 102.991154 298.420413 
L 102.833271 298.372576 
L 102.8357 298.077246 
L 102.99539 297.907509 
L 102.837391 296.515387 
L 102.641361 296.264709 
L 102.595746 295.795693 
L 102.715953 295.239256 
L 102.963724 294.862611 
L 102.976627 294.002098 
L 101.889535 293.0337 
L 101.002847 292.023755 
L 100.826298 291.376559 
L 100.361201 290.896872 
L 100.140131 290.400668 
L 99.863317 290.123805 
L 99.534228 289.554031 
L 99.109461 289.092434 
L 98.984715 288.248656 
L 99.159902 287.481968 
L 98.637893 287.200737 
L 98.118176 285.301379 
L 98.344416 284.921147 
L 98.691748 284.577799 
L 98.467796 284.136034 
L 98.107683 284.131554 
L 97.534543 283.705415 
L 97.410716 282.953433 
L 97.491567 282.497193 
L 97.874832 282.119465 
L 97.572755 282.004637 
L 96.943175 281.186073 
L 96.592579 281.05614 
L 96.211739 281.094223 
L 95.969794 281.242079 
L 95.349638 280.547924 
L 95.261856 279.980324 
L 94.792553 279.573106 
L 95.602947 279.123857 
L 95.811628 278.577254 
L 95.853325 278.029073 
L 95.599447 277.368444 
L 95.083482 277.0532 
L 94.546529 276.901229 
L 93.915996 277.208479 
L 93.823542 277.428554 
L 93.949505 277.647753 
L 94.066252 278.872661 
L 93.754083 278.779334 
L 93.390198 278.026624 
L 92.468306 277.010137 
L 92.489242 276.717408 
L 92.379113 276.5699 
L 92.510031 276.442966 
L 93.585608 276.784535 
L 93.885013 276.236783 
L 93.891615 275.679554 
L 93.655445 275.019909 
L 92.994873 274.282708 
L 91.882757 274.145477 
L 91.626869 273.704183 
L 91.668168 273.24708 
L 91.990531 272.518015 
L 91.751738 272.278082 
L 91.085757 272.034265 
L 91.069672 271.741311 
L 91.292356 271.798286 
L 91.423985 271.616524 
L 91.428948 271.012667 
L 91.267625 270.315632 
L 90.518172 268.916896 
L 89.54705 267.659554 
L 88.252538 265.960122 
L 88.519338 265.211839 
L 88.837461 264.994092 
L 88.900927 264.20786 
L 88.77672 263.567009 
L 88.836617 263.146767 
L 88.389403 261.368884 
L 86.726598 259.164596 
L 85.013941 257.686043 
L 84.150332 257.354489 
L 83.408667 256.612002 
L 83.559192 256.265877 
L 83.984957 256.38023 
L 84.336476 256.12678 
L 84.471222 255.561081 
L 84.458491 254.994343 
L 82.7638 252.515128 
L 82.714316 251.911279 
L 82.040679 251.008767 
L 82.156742 250.608015 
L 81.258893 249.593462 
L 78.344578 247.090764 
L 78.33266 246.414183 
L 76.706042 245.328925 
L 73.513712 242.934118 
L 72.082247 241.339079 
L 71.191234 240.0474 
L 70.871392 238.90895 
L 68.937755 236.802978 
L 69.06923 236.603139 
L 69.40285 236.496829 
L 69.738848 236.189241 
L 69.781631 235.659395 
L 69.419465 234.997344 
L 68.433763 233.432336 
L 65.728907 229.857885 
L 65.55753 228.417416 
L 65.854712 228.100027 
L 65.969712 227.735547 
L 65.338693 226.209087 
L 65.363589 225.697404 
L 64.896165 224.428135 
L 62.576869 221.995133 
L 62.749803 221.411551 
L 62.79507 220.698616 
L 62.267777 220.034266 
L 57.917735 215.711567 
L 57.60905 215.139729 
L 56.120554 213.887274 
L 55.739762 213.021457 
L 55.639712 212.142369 
L 55.208526 211.241221 
L 54.111066 209.962388 
L 50.962701 207.476936 
L 49.572168 206.598829 
L 46.030254 204.554477 
L 32.474597 197.81684 
L 30.751335 196.159817 
L 28.743449 194.780345 
L 26.325778 193.395275 
L 23.915354 191.550823 
L 23.107296 190.518338 
L 22.539976 188.902775 
L 22.595966 186.604666 
L 22.573127 186.348182 
L 23.145809 185.872957 
L 23.436455 185.159909 
L 24.056097 185.122923 
L 24.346731 184.488293 
L 24.377402 184.052663 
L 24.638322 183.697571 
L 25.125455 183.730291 
L 25.654517 184.559685 
L 27.490251 185.326451 
L 28.361843 185.460975 
L 29.367707 184.464072 
L 30.451725 182.518027 
L 30.666457 179.944855 
L 29.97814 177.836396 
L 28.585003 174.806864 
L 27.752487 173.877281 
L 24.720855 170.818209 
L 24.108097 170.656411 
L 23.74643 170.777972 
L 23.085409 170.308422 
L 22.510358 169.407475 
L 21.802445 168.605472 
L 21.244627 167.767625 
L 21.563899 167.269968 
L 21.926421 167.120715 
L 22.138961 166.562577 
L 22.040007 166.255482 
L 21.813173 165.971642 
L 21.844357 165.61447 
L 22.231765 165.516908 
L 21.989959 164.442134 
L 22.227476 164.036735 
L 22.663349 164.093443 
L 23.153679 163.819784 
L 23.609344 164.284812 
L 24.430119 164.219567 
L 24.847642 163.613614 
L 24.964233 162.645763 
L 24.367797 161.336613 
L 23.457846 160.405312 
L 22.595379 159.75506 
L 20.558502 156.71198 
L 18.353916 154.350907 
L 17.415988 153.183341 
L 17.550041 152.801881 
L 17.888608 152.629718 
L 18.305273 152.227109 
L 18.232033 151.685613 
L 17.995171 151.062218 
L 18.243837 149.218507 
L 17.653536 147.632423 
L 17.766668 147.21798 
L 18.620196 146.359971 
L 19.013357 145.423555 
L 19.023438 144.79629 
L 18.620196 143.25277 
L 18.75349 142.708394 
L 19.440121 141.458345 
L 19.749273 141.081986 
L 22.148561 139.448857 
L 22.772465 138.810391 
L 23.285478 137.903097 
L 23.670798 137.472973 
L 24.690104 137.175022 
L 24.988054 136.87035 
L 25.421539 135.974258 
L 26.903453 133.742987 
L 27.765942 132.842414 
L 28.805409 132.02921 
L 29.931126 131.397464 
L 30.347809 131.007664 
L 30.772333 129.2334 
L 31.265184 128.267861 
L 32.00446 127.338165 
L 32.992402 126.531681 
L 37.358614 123.930772 
L 38.143815 123.171334 
L 39.307615 121.466517 
L 39.474512 120.893018 
L 40.645033 120.449452 
L 42.559311 120.512179 
L 43.651424 120.160462 
L 44.099471 119.797545 
L 44.856659 117.815227 
L 45.492654 118.146382 
L 46.535381 118.422356 
L 46.923025 118.721091 
L 46.758721 120.348485 
L 46.92587 120.50212 
L 47.379663 120.689896 
L 47.556059 120.889053 
L 47.622207 121.404015 
L 47.570995 121.930357 
L 47.354768 122.886309 
L 47.531875 123.07693 
L 48.04257 123.276087 
L 48.279424 124.368603 
L 48.268755 124.943312 
L 48.043992 125.720023 
L 48.070309 126.209379 
L 48.266621 126.994625 
L 48.006295 127.609166 
L 48.135035 128.163959 
L 48.93095 129.600731 
L 49.039775 130.593669 
L 49.687034 131.484184 
L 49.249601 131.976385 
L 47.1044 132.960788 
L 45.850425 134.653619 
L 45.275716 134.935283 
L 44.759331 134.830015 
L 43.029514 134.027698 
L 41.912103 134.036233 
L 41.404254 134.184178 
L 40.993138 134.477223 
L 40.373618 135.58681 
L 40.133819 136.301256 
L 40.084841 136.807355 
L 40.222828 137.148766 
L 40.825277 138.124634 
L 40.834524 138.383537 
L 40.72641 139.163093 
L 41.308943 140.380793 
L 42.269162 140.483217 
L 43.461257 140.130425 
L 44.731591 139.973945 
L 44.427878 140.582795 
L 40.78758 145.41092 
L 40.684445 145.88036 
L 40.925567 146.457915 
L 41.298985 146.790791 
L 42.991105 147.655699 
L 43.696688 147.621558 
L 43.961282 147.38257 
L 45.088651 146.77941 
L 47.638566 144.691111 
L 47.844124 144.255812 
L 48.1265 143.291325 
L 48.591673 142.719461 
L 49.175629 142.477628 
L 50.375547 142.304077 
L 50.551232 142.602812 
L 52.043483 143.018196 
L 52.539952 143.442115 
L 53.430467 144.412292 
L 54.731386 145.208918 
L 56.876587 145.484892 
L 57.574347 146.127884 
L 58.152612 146.989947 
L 58.836857 147.695531 
L 59.858957 147.854856 
L 61.707557 147.285837 
L 62.656396 146.722508 
L 63.651468 146.588789 
L 64.41253 146.967186 
L 66.017164 148.440945 
L 66.57907 148.822188 
L 67.241977 148.816498 
L 67.801749 149.143683 
L 67.955384 149.402587 
L 67.88639 149.80659 
L 67.251935 150.933248 
L 67.233441 151.525027 
L 68.035758 152.697206 
L 68.352275 154.33029 
L 69.078669 155.720079 
L 69.360861 156.814057 
L 69.835991 157.192455 
L 70.881563 157.843982 
L 71.03022 158.08866 
L 71.356694 158.868215 
L 71.596393 159.041766 
L 72.375949 159.403093 
L 73.417254 160.972163 
L 74.048865 161.140023 
L 76.485688 161.148558 
L 77.886897 161.578168 
L 79.193506 161.629379 
L 80.004358 162.352033 
L 80.798139 161.694816 
L 81.508702 160.940867 
L 81.706436 160.363312 
L 82.011572 159.021851 
L 82.305328 158.569481 
L 82.857987 158.430071 
L 83.582064 158.424381 
L 84.219365 158.282126 
L 84.510987 157.735868 
L 84.370155 157.078651 
L 83.749213 155.841035 
L 83.729298 155.087085 
L 84.039413 154.33029 
L 84.554375 153.621862 
L 85.809061 152.466753 
L 86.959191 151.818072 
L 89.776627 150.617846 
L 90.526939 150.122396 
L 90.775173 149.678561 
L 90.854125 148.093844 
L 91.751041 146.489211 
L 91.096669 146.090897 
L 90.761659 145.564555 
L 90.539742 144.543166 
L 90.506312 143.510397 
L 90.734631 142.932843 
L 91.241057 142.511769 
L 91.478623 141.974046 
L 91.741083 140.770571 
L 93.418977 137.265415 
L 93.713444 136.04487 
L 93.686416 134.406096 
L 93.819424 133.953726 
L 94.099666 133.663526 
L 95.479537 133.236762 
L 95.59334 133.122958 
L 95.591207 132.932337 
L 95.862913 130.895249 
L 96.343734 129.836874 
L 97.739253 128.758584 
L 97.907113 128.229396 
L 97.569258 125.961856 
L 98.260616 125.697262 
L 98.278398 125.429823 
L 98.163883 124.86934 
L 98.215095 123.344369 
L 98.400026 122.778196 
L 98.945172 121.554923 
L 99.301209 120.436683 
L 99.528106 118.945854 
L 99.334639 118.22889 
L 99.635508 117.708238 
L 100.098547 117.568828 
L 100.67539 117.648491 
L 101.868196 117.981367 
L 102.212452 118.257341 
L 102.418721 118.66988 
L 102.799253 120.439528 
L 103.062424 120.940265 
L 103.437265 120.761024 
L 103.873276 120.405387 
L 104.785128 120.120878 
L 105.038342 119.557549 
L 104.980017 118.800754 
L 104.634338 118.405286 
L 104.200462 118.098016 
L 103.882522 117.597279 
L 103.885367 116.994119 
L 104.210419 116.604341 
L 105.213315 115.858927 
L 105.553304 115.36957 
L 106.403987 113.739331 
L 106.79092 113.315412 
L 108.121001 112.211516 
L 110.903503 108.484442 
L 112.930633 106.714794 
L 113.44844 106.4502 
L 145.913672 94.997055 
L 147.135778 94.256126 
L 161.83638 83.003779 
L 173.942255 68.903492 
L 175.889465 66.974985 
L 176.101682 66.71846 
L 176.459453 65.762508 
L 180.688685 49.590993 
L 181.844505 50.740411 
L 182.004541 51.016385 
L 182.276248 51.238302 
L 182.903591 51.252528 
L 184.072213 51.113118 
L 185.619945 51.096047 
L 185.613543 50.911116 
L 184.886622 49.838516 
L 184.922185 49.115862 
L 183.710886 44.617768 
L 183.944184 43.841057 
L 183.90862 42.458341 
L 184.783487 41.829576 
L 184.80198 41.377206 
L 184.715205 40.950441 
L 184.800557 39.869306 
L 184.699557 39.360034 
L 184.263546 38.828001 
L 183.865944 38.93327 
L 183.499638 38.358561 
L 182.156754 37.27458 
L 181.535101 37.254664 
L 181.222852 37.061198 
L 180.710023 36.577532 
L 179.922643 35.493551 
L 179.413372 34.327062 
L 178.531392 31.217374 
L 178.21701 30.816216 
L 177.777442 30.540242 
L 176.848519 30.173225 
L 175.938089 29.42781 
L 175.669939 29.390824 
L 174.820678 29.379443 
L 174.571021 29.092089 
L 174.30216 28.554366 
L 174.169863 27.945516 
L 174.324209 27.46754 
L 174.726079 27.333821 
L 176.152894 27.749204 
L 177.031316 27.703683 
L 177.403313 27.791881 
L 179.343667 28.83603 
L 180.052807 28.904313 
L 181.023695 28.392196 
L 182.404988 28.503154 
L 183.123374 28.207265 
L 183.745739 27.766275 
L 184.072213 27.345201 
L 184.48902 27.200101 
L 184.924319 26.86438 
L 185.26573 26.457532 
L 185.762199 25.291043 
L 186.184696 25.2 
L 186.736644 25.259747 
L 187.975683 25.595468 
L 188.554659 25.888513 
L 189.078157 26.301051 
L 190.479365 28.096306 
L 190.713374 28.178814 
L 191.453099 28.267012 
L 191.625227 28.397886 
L 193.11819 29.905786 
L 193.707836 30.164689 
L 195.38004 30.508946 
L 195.689444 30.267113 
L 196.375823 29.168906 
L 196.703009 29.092089 
L 197.279852 29.601361 
L 197.671764 30.153309 
L 198.611356 32.059522 
L 197.85385 32.634231 
L 197.637622 33.004093 
L 198.950633 33.34266 
L 199.808429 33.490604 
L 200.504055 34.127906 
L 201.023285 34.076694 
L 201.425865 33.8121 
L 201.722466 33.752353 
L 201.986349 33.96289 
L 202.764482 35.271633 
L 203.922436 36.495024 
L 204.639399 37.061198 
L 206.637367 38.350025 
L 207.387049 39.203554 
L 207.76189 39.217779 
L 207.898455 39.337273 
L 208.044266 40.176576 
L 209.359411 43.013135 
L 209.293973 43.206601 
L 208.812441 43.747169 
L 208.801772 44.273511 
L 208.993105 44.67467 
L 210.111938 45.832623 
L 210.378666 45.912286 
L 211.068601 46.020399 
L 210.853796 46.461389 
L 211.01241 46.782885 
L 211.294075 47.073084 
L 211.444865 47.420186 
L 211.279849 47.724611 
L 210.111938 47.710385 
L 209.922739 48.034726 
L 210.0906 48.285094 
L 210.77769 48.746 
L 211.052242 49.113017 
L 211.444865 50.359168 
L 212.060827 51.16433 
L 212.792017 51.565488 
L 214.434347 51.864223 
L 216.110819 52.504369 
L 216.861213 52.481608 
L 217.287266 51.676447 
L 217.60236 51.966646 
L 218.379782 54.120382 
L 218.941688 54.447568 
L 219.241845 54.262637 
L 219.642292 54.000889 
L 219.877724 53.75052 
L 220.106754 53.946832 
L 220.13805 54.174439 
L 219.880569 54.658105 
L 219.918978 54.885713 
L 220.295241 55.087715 
L 221.15446 54.894248 
L 221.608964 55.059264 
L 221.768289 55.315322 
L 222.190785 56.407838 
L 222.954693 57.471903 
L 223.335936 57.722272 
L 224.51096 58.075063 
L 224.839568 58.083599 
L 225.299051 57.824695 
L 225.741463 57.127647 
L 226.156135 56.974012 
L 226.385877 57.469058 
L 226.771387 57.887287 
L 227.293462 58.180332 
L 228.237322 58.376643 
L 228.76153 58.763576 
L 229.408789 58.951352 
L 229.622171 59.500456 
L 230.024752 60.37959 
L 230.494193 60.353984 
L 230.633602 60.783593 
L 230.718955 61.568839 
L 231.004887 61.972842 
L 231.435919 62.171999 
L 231.302911 62.462199 
L 230.871168 62.985696 
L 231.125092 63.403925 
L 232.14577 63.881901 
L 232.45304 64.362722 
L 233.033439 64.789486 
L 233.24611 65.085376 
L 233.620951 67.159449 
L 233.593923 67.685792 
L 232.925326 68.08126 
L 232.688472 68.499489 
L 232.3748 69.409919 
L 232.315053 70.473984 
L 232.867001 71.156807 
L 234.686439 72.348901 
L 234.817313 72.812651 
L 235.248345 72.795581 
L 236.276847 72.872398 
L 236.621103 73.091471 
L 237.282588 73.691785 
L 237.564252 73.734462 
L 237.773366 73.430037 
L 238.217201 72.997582 
L 238.639697 72.946371 
L 239.562931 73.185359 
L 239.737904 73.091471 
L 239.850285 72.363126 
L 240.131949 72.363126 
L 241.132 73.378825 
L 241.618511 73.637729 
L 241.804865 73.939309 
L 241.60144 74.963543 
L 241.747963 75.344785 
L 242.398067 76.110116 
L 242.557392 76.571021 
L 242.18184 77.902525 
L 242.473462 78.696306 
L 242.951438 79.404735 
L 243.503386 81.128862 
L 243.874671 81.475963 
L 242.804915 83.407782 
L 241.555919 84.608412 
L 241.430735 85.063627 
L 241.487637 85.333911 
L 241.89164 86.05372 
L 242.353968 86.489019 
L 242.557392 87.521788 
L 243.009762 87.826213 
L 244.210392 88.124948 
L 244.45507 88.369626 
L 244.624353 88.955716 
L 244.98568 88.62853 
L 245.378303 87.709565 
L 247.364179 88.907349 
L 247.763915 89.257296 
L 248.493681 90.989958 
L 248.709908 91.163509 
L 248.964544 91.160664 
L 250.510853 90.790802 
L 250.839461 90.474996 
L 252.308953 89.854766 
L 252.768435 90.014091 
L 253.492512 90.529053 
L 253.698781 89.934428 
L 254.26211 89.573101 
L 254.513901 90.011246 
L 254.848199 91.075311 
L 255.304837 90.921676 
L 255.653361 90.597335 
L 256.37886 89.095125 
L 256.723116 88.651291 
L 257.22812 88.728108 
L 257.711786 88.989857 
L 258.962205 89.999865 
L 259.481435 90.164881 
L 262.303768 90.608716 
L 262.549869 90.822098 
L 262.690701 91.154974 
L 263.056296 91.48785 
L 263.542807 91.746753 
L 264.053501 91.863402 
L 264.670887 91.81219 
L 266.725045 91.18627 
L 266.700862 90.622941 
L 266.843116 90.509137 
L 267.827519 90.341277 
L 269.60428 90.75097 
L 270.015396 90.622941 
L 271.228829 89.23169 
L 271.998427 88.565938 
L 272.766602 88.264358 
L 273.662807 88.252978 
L 275.388357 88.497656 
L 275.873445 88.378162 
L 276.212011 88.039595 
L 276.338618 87.4279 
L 276.54062 87.214518 
L 277.840828 86.207355 
L 278.968908 84.403565 
L 279.246304 84.383649 
L 281.448407 83.097667 
L 281.658944 83.245612 
L 281.61769 84.215789 
L 281.853833 84.682384 
L 282.387288 84.597031 
L 283.309099 84.121901 
L 283.959203 84.23855 
L 285.582329 85.265629 
L 287.167047 85.592814 
L 287.477162 85.828957 
L 287.610881 86.346764 
L 287.646445 87.496182 
L 287.837066 87.917256 
L 288.275211 88.127793 
L 288.48717 87.803453 
L 288.758877 86.770683 
L 289.141542 86.37806 
L 289.421784 86.477639 
L 289.904027 87.334012 
L 290.656555 88.446444 
L 290.58116 88.679742 
L 290.091803 89.23169 
L 290.403341 89.806399 
L 291.33511 89.610087 
L 293.303915 88.651291 
L 293.520142 89.029688 
L 294.030836 88.907349 
L 295.013816 88.446444 
L 295.313974 88.514726 
L 295.935627 88.856137 
L 296.232939 88.793545 
L 296.750746 88.389542 
L 297.530302 87.994074 
L 298.056645 86.691021 
L 298.68541 86.395131 
L 299.809934 86.269947 
L 300.503426 86.685331 
L 301.1706 86.722317 
L 301.420257 86.582907 
L 301.167755 85.883014 
L 301.107297 85.257093 
L 301.397496 84.870161 
L 302.188433 84.890076 
L 303.355633 85.385123 
L 304.045568 85.518842 
L 304.615298 85.265629 
L 305.451044 85.7749 
L 306.877859 87.294181 
L 307.827409 87.917256 
L 309.35238 88.400922 
L 310.065076 88.491965 
L 310.272057 88.844757 
L 310.377325 89.698285 
L 311.245079 90.418094 
L 311.451348 90.995648 
L 311.499715 91.715457 
L 311.688913 91.863402 
L 312.824106 91.863402 
L 313.036777 91.749598 
L 313.107193 90.921676 
L 313.588014 90.617251 
L 313.947918 90.844858 
L 314.287196 91.240326 
L 314.713249 91.453708 
L 315.69694 91.672781 
L 316.524862 92.204813 
L 316.935978 93.01851 
L 317.258897 93.177836 
L 317.54554 93.155075 
L 318.497935 92.802283 
L 319.67367 92.859185 
L 320.020772 93.126624 
L 319.89132 93.724094 
L 319.155863 94.116717 
L 319.172934 94.350014 
L 319.478781 94.805229 
L 319.616768 94.887737 
L 320.291056 94.705651 
L 320.842293 94.36993 
L 321.370769 94.193534 
L 321.97464 94.492269 
L 322.320319 95.001541 
L 322.707963 96.170875 
L 323.017367 96.663076 
L 323.528062 96.856542 
L 324.45414 96.509441 
L 324.998975 96.936205 
L 325.373816 97.877931 
L 325.611382 97.815339 
L 326.041702 97.038628 
L 326.603608 96.665921 
L 326.901632 96.867923 
L 327.429397 98.486781 
L 327.658427 98.819657 
L 328.122177 99.141153 
L 321.027224 110.22564 
L 309.306858 128.51106 
L 310.503932 128.641935 
L 314.532585 130.801361 
L 316.002787 131.165533 
L 316.736111 131.174069 
L 317.444539 130.869643 
L 318.526386 129.882396 
L 319.118877 129.523914 
L 319.892743 129.441406 
L 320.951829 129.811268 
L 321.985309 130.562373 
L 322.88507 131.506945 
L 323.542998 132.445826 
L 323.88441 133.413158 
L 324.039467 134.400405 
L 324.329667 135.30799 
L 325.064412 136.042025 
L 327.850471 137.461727 
L 328.67626 138.133169 
L 329.71543 139.490279 
L 330.480761 141.02094 
L 330.546198 141.78627 
L 330.291562 142.520304 
L 329.807896 143.171831 
L 328.885374 143.840428 
L 328.496307 143.894485 
L 328.112931 143.794906 
L 327.434376 143.214507 
L 327.283586 143.012505 
L 327.155557 142.326838 
L 326.856111 141.826101 
L 326.30843 141.621254 
L 325.692467 141.681001 
L 325.186752 141.94844 
L 324.828981 142.452022 
L 324.380167 143.493326 
L 323.855247 143.951387 
L 323.329616 143.129154 
L 323.148242 142.870251 
L 322.424876 142.747912 
L 321.064921 141.675311 
L 320.797482 141.311139 
L 320.75125 140.813248 
L 321.000195 139.774788 
L 320.951829 139.214305 
L 320.742714 138.813146 
L 320.414817 138.451819 
L 320.071983 138.349396 
L 319.566268 139.140332 
L 319.229124 139.040754 
L 318.541323 138.429059 
L 318.082551 138.244128 
L 317.680682 138.204296 
L 316.852759 138.491651 
L 315.727525 139.393546 
L 315.312141 139.53011 
L 315.025498 139.356559 
L 314.812827 138.551398 
L 314.383929 138.383537 
L 313.945073 138.6083 
L 313.404505 139.865831 
L 312.103586 139.103346 
L 312.085804 138.690807 
L 312.184671 138.184381 
L 312.144128 137.786067 
L 311.711674 137.695024 
L 311.267839 137.874265 
L 311.016049 138.184381 
L 310.712335 139.020838 
L 310.410044 139.254136 
L 309.912863 139.242756 
L 307.918452 138.813146 
L 306.606153 139.450448 
L 306.249805 139.769098 
L 306.16374 140.13896 
L 306.39775 140.807557 
L 306.316664 141.066461 
L 305.464559 141.413563 
L 304.84006 142.764982 
L 303.671438 144.011134 
L 303.416802 144.537476 
L 302.849917 145.117875 
L 301.837775 144.079416 
L 301.713302 144.691111 
L 301.180558 145.132101 
L 299.742363 144.534631 
L 299.068787 144.80207 
L 298.696791 145.4223 
L 298.45069 145.57309 
L 298.021081 145.501963 
L 297.790628 145.294271 
L 297.31692 144.497645 
L 296.863128 144.756548 
L 296.094952 145.820613 
L 295.335312 144.972775 
L 294.698011 144.847591 
L 294.046484 144.992691 
L 293.60265 145.382469 
L 293.5301 145.709655 
L 293.581311 146.267293 
L 293.221407 146.605859 
L 292.882841 146.489211 
L 292.710713 146.577408 
L 292.365034 146.995637 
L 291.988059 147.152118 
L 291.770409 146.987102 
L 291.33511 146.48352 
L 290.955289 146.440844 
L 289.683532 146.631465 
L 288.434536 146.699748 
L 288.054716 146.859073 
L 287.869785 147.095216 
L 287.546867 147.866236 
L 286.253771 147.743897 
L 284.999085 148.284465 
L 285.101508 147.704066 
L 284.824112 147.786574 
L 284.26505 148.338522 
L 283.676116 148.483622 
L 283.459889 148.375508 
L 282.737235 147.769503 
L 282.452725 147.854856 
L 282.138343 148.076773 
L 281.612 148.153591 
L 280.382919 147.738207 
L 280.156734 147.852011 
L 279.94762 148.341367 
L 279.755576 148.398269 
L 277.014328 148.782356 
L 276.300209 149.285938 
L 275.002846 150.540625 
L 274.189149 150.796683 
L 273.482143 151.354322 
L 273.260226 151.408378 
L 272.502009 151.169391 
L 272.292894 151.396998 
L 271.48631 152.796784 
L 270.96139 153.232084 
L 269.437842 154.074232 
L 267.5487 155.400046 
L 266.686636 155.582132 
L 265.656712 155.437032 
L 265.322413 155.522385 
L 264.971044 156.054417 
L 263.831584 156.367378 
L 263.535694 156.688873 
L 263.335115 158.191083 
L 263.044915 158.634918 
L 262.000766 159.263683 
L 261.261041 159.508362 
L 261.228323 159.929436 
L 260.83001 160.57954 
L 259.911044 160.667737 
L 259.41742 160.889655 
L 258.983543 161.219686 
L 258.312101 161.94803 
L 257.548193 162.306512 
L 257.192557 162.656458 
L 256.710313 163.706298 
L 256.45141 163.777425 
L 254.970538 163.777425 
L 253.880867 163.555508 
L 253.533766 163.820102 
L 253.182396 164.272472 
L 252.704421 164.483009 
L 251.436931 164.687856 
L 250.951843 164.585432 
L 250.867912 164.724842 
L 250.815278 165.234114 
L 250.216386 165.487327 
L 249.855059 165.504398 
L 249.190729 165.675103 
L 249.079771 166.081952 
L 249.675818 167.396385 
L 249.776819 169.51598 
L 249.024291 170.671089 
L 248.726979 172.284257 
L 247.91755 173.979933 
L 247.661491 174.870448 
L 247.782408 175.780878 
L 248.024241 176.662857 
L 248.019973 177.433878 
L 247.567603 179.980237 
L 247.284516 180.788244 
L 246.894738 181.550729 
L 244.024038 185.35462 
L 243.078044 186.222374 
L 241.50613 189.704769 
L 240.907238 190.674946 
L 240.469093 191.702025 
L 240.454868 192.970937 
L 240.710926 193.639534 
L 242.041008 195.138899 
L 242.196065 195.614029 
L 242.64559 198.450588 
L 243.436526 200.339731 
L 243.435104 200.937201 
L 243.304229 201.548896 
L 242.86324 202.675553 
L 242.211713 203.810746 
L 241.454918 204.587457 
L 240.501812 205.093883 
L 239.265618 205.415379 
L 237.319574 205.435295 
L 236.727794 205.640141 
L 235.747659 206.513585 
L 234.670791 207.173647 
L 232.804409 208.775435 
L 230.583813 210.047192 
L 229.20252 211.148244 
L 228.073018 211.916419 
L 227.475548 212.954879 
L 226.324707 213.668997 
L 226.026684 213.996183 
L 225.859534 214.457088 
L 225.798365 215.973524 
L 225.122655 218.471516 
L 224.728609 219.248227 
L 224.569995 219.928204 
L 224.811828 220.576886 
L 226.71164 223.291106 
L 227.301997 225.481828 
L 226.981213 226.036622 
L 226.526709 226.301215 
L 225.989697 226.383723 
L 224.197999 226.383723 
L 223.714333 226.540203 
L 222.714283 227.143363 
L 222.101165 227.373816 
L 221.593316 227.339675 
L 220.475905 226.907221 
L 219.874879 226.907221 
L 219.970189 227.405112 
L 220.765393 228.745151 
L 220.93681 229.44789 
L 220.190684 231.519118 
L 218.895455 232.056841 
L 219.137999 232.540507 
L 220.246875 233.189188 
L 223.841651 236.930487 
L 224.602714 237.445449 
L 225.471179 237.821002 
L 226.499681 238.128272 
L 227.327603 238.791179 
L 227.592197 239.883695 
L 227.284927 240.94207 
L 226.392989 241.496864 
L 225.471179 241.166833 
L 225.057218 241.158297 
L 225.025922 241.656189 
L 225.493228 243.3604 
L 226.327552 243.989166 
L 227.499731 244.452916 
L 228.542458 245.00202 
L 229.184027 246.504229 
L 230.088767 247.72193 
L 230.384657 248.370611 
L 230.400305 248.902644 
L 230.245247 249.929723 
L 230.32491 250.44753 
L 230.673434 251.084831 
L 231.468638 252.128981 
L 231.716872 252.857325 
L 231.85557 253.986827 
L 232.044058 254.507479 
L 232.437392 254.874496 
L 234.915469 256.32834 
L 235.639546 257.161952 
L 235.906984 257.270066 
L 236.732062 257.429391 
L 237.120417 257.830549 
L 237.316729 258.334131 
L 237.34518 258.891769 
L 237.086276 260.12085 
L 237.104769 260.638657 
L 237.281165 261.093872 
L 238.952658 263.079748 
L 239.523099 263.387018 
L 241.123465 263.725584 
L 241.646962 263.998714 
L 242.12636 264.462464 
L 242.432208 264.983116 
L 242.917297 266.155295 
L 245.042582 269.225152 
L 245.450853 269.563718 
L 246.472242 270.23516 
L 246.830724 270.613558 
L 247.590364 271.74875 
L 247.756802 272.203965 
L 248.049846 274.508491 
L 247.931775 275.330724 
L 247.702745 275.851376 
L 247.416813 276.201323 
L 246.164972 277.191415 
L 246.146478 277.94821 
L 245.985731 278.278241 
L 245.613023 278.491623 
L 244.447957 278.872866 
L 244.146377 279.308165 
L 243.69543 280.187299 
L 243.055284 281.037983 
L 241.604286 282.491826 
L 241.013929 283.410791 
L 252.071387 283.462003 
L 255.553782 284.193192 
L 255.953518 284.446405 
L 256.403043 284.235869 
L 256.937921 284.343982 
L 258.051775 284.691084 
L 259.714733 285.408047 
L 260.949504 285.541767 
L 262.616729 285.425118 
L 263.18717 285.538922 
L 263.71778 285.817741 
L 264.975312 286.819214 
L 266.015194 287.041131 
L 266.04649 287.30857 
L 266.087744 288.691286 
L 266.34238 289.149346 
L 267.092062 290.031325 
L 267.257077 290.523527 
L 267.161767 291.049869 
L 266.834581 292.088328 
L 267.158922 293.132478 
L 269.099276 294.333108 
L 269.74938 295.738584 
L 270.043847 296.586422 
L 269.981255 296.927834 
L 269.396588 297.72446 
L 269.378095 299.255121 
L 269.07367 299.832675 
L 291.212771 299.866816 
L 291.709239 299.741632 
L 292.08906 299.317713 
L 292.241272 299.164078 
L 292.638163 299.121401 
L 293.131787 299.38884 
L 293.359394 299.519715 
L 293.737792 299.496954 
L 294.271247 299.223825 
L 295.240001 298.469875 
L 296.578618 298.023195 
L 296.947058 297.494007 
L 297.554485 296.253546 
L 298.016813 295.90929 
L 299.855455 295.104128 
L 301.563223 294.654603 
L 302.064671 294.270516 
L 302.275208 293.95471 
L 302.839959 292.930476 
L 303.15861 292.668728 
L 304.182844 291.974525 
L 305.415481 290.332905 
L 306.80033 289.593181 
L 307.345166 289.163572 
L 308.94482 287.692658 
L 310.773504 286.676959 
L 311.289889 286.167687 
L 312.252242 284.995509 
L 312.823395 284.506152 
L 313.360406 284.250094 
L 313.908087 284.133445 
L 315.063906 284.013951 
L 315.053949 284.449251 
L 314.77015 284.935762 
L 314.561036 285.735233 
L 314.046785 285.962841 
L 314.105821 286.051039 
L 314.234561 286.355464 
L 313.883904 286.443662 
L 313.655585 286.716791 
L 313.602951 287.066737 
L 313.975658 287.715419 
L 313.718177 287.780856 
L 312.469892 287.689813 
L 312.326926 287.726799 
L 312.595076 288.230381 
L 312.97703 289.638702 
L 313.285011 290.051241 
L 314.094441 290.685697 
L 314.413091 291.081165 
L 314.599445 291.647339 
L 314.556768 292.162301 
L 314.341252 292.634587 
L 313.916622 293.266197 
L 313.710353 293.758399 
L 313.561697 293.778314 
L 313.129954 293.596228 
L 312.583696 293.9604 
L 312.200319 294.492433 
L 311.940704 295.599175 
L 311.861042 327.504061 
L 314.22247 325.631989 
L 314.812827 325.50396 
L 315.553974 326.141261 
L 316.784477 327.589414 
L 317.47868 328.21818 
L 318.744036 328.83272 
L 320.128174 329.057482 
L 321.549299 328.9892 
L 322.923479 328.724606 
L 324.045158 328.340519 
L 330.724016 324.986153 
L 331.877702 325.043055 
L 332.402622 325.193845 
L 332.937499 325.225141 
L 334.792501 325.20238 
L 335.267632 325.398691 
L 336.303246 326.058753 
L 337.217944 326.240839 
L 341.142751 325.893738 
L 350.548632 342.207508 
L 365.735745 368.567306 
L 365.456926 368.686799 
L 365.296178 368.940013 
L 364.902133 369.907345 
L 364.193704 370.661295 
L 362.993074 371.409555 
L 362.730615 371.807868 
L 362.697896 372.257393 
L 362.953243 372.516296 
L 363.843758 372.758129 
L 364.119732 373.062554 
L 363.272605 374.539158 
L 361.00222 375.145163 
L 360.441736 375.517871 
L 360.017106 376.089735 
L 359.669293 376.866445 
L 359.063999 376.783938 
L 358.730412 377.2989 
L 358.435945 377.964652 
L 357.568191 378.627559 
L 357.413133 379.247789 
L 357.423091 380.428503 
L 357.810735 383.532501 
L 357.603755 386.792979 
L 357.676305 387.903988 
L 358.068216 390.069105 
L 357.747432 395.443488 
L 357.849144 396.066563 
L 357.438739 397.409448 
L 357.201885 397.76224 
L 356.405259 398.69543 
L 356.393878 399.420929 
L 356.387477 399.742425 
L 356.145644 400.044005 
L 355.831972 400.100907 
L 354.632765 399.987103 
L 354.247255 400.613024 
L 354.812717 401.406805 
L 356.299279 402.584674 
L 356.604415 402.994368 
L 356.604415 403.310173 
L 356.375385 404.078349 
L 356.408104 404.451056 
L 356.764452 405.506586 
L 357.236738 406.206479 
L 357.512712 409.025967 
L 357.877595 409.529549 
L 359.351354 410.476966 
L 359.637997 410.872434 
L 359.797322 411.299198 
L 359.969451 412.246614 
L 360.652984 414.090235 
L 360.775324 415.054722 
L 360.244713 415.612361 
L 358.384022 415.845658 
L 357.459366 416.076111 
L 356.764452 416.559777 
L 356.611528 417.034908 
L 356.569563 417.56694 
L 356.598725 418.631005 
L 356.814952 419.123207 
L 357.191927 419.67231 
L 357.312133 420.224258 
L 356.764452 420.72215 
L 354.440721 422.07926 
L 353.158295 423.393693 
L 352.521705 423.638371 
L 352.43493 424.113502 
L 352.515304 425.382414 
L 352.353133 425.689684 
L 350.584196 425.598641 
L 350.230693 426.133519 
L 350.056431 429.661436 
L 349.676611 430.455217 
L 349.239178 430.70274 
L 347.710651 431.118124 
L 347.094688 431.482296 
L 346.843609 431.855003 
L 346.803777 432.327289 
L 346.862813 434.793986 
L 346.289526 436.338872 
L 346.4645 436.816848 
L 347.516473 437.772799 
L 349.099768 440.125692 
L 349.550716 440.572372 
L 351.634747 442.17985 
L 352.315436 443.121576 
L 352.966963 443.741807 
L 352.902948 444.245389 
L 352.470494 444.583955 
L 351.286934 444.575419 
L 350.916361 445.63664 
L 349.999529 445.94391 
L 349.468208 446.410505 
L 349.028641 446.976679 
L 348.869316 447.420514 
L 349.173029 448.478889 
L 348.980274 448.601228 
L 347.949639 448.996696 
L 347.590446 449.491742 
L 347.232675 451.121981 
L 345.449512 453.736623 
L 345.206257 454.558855 
L 345.362737 455.383932 
L 350.997446 469.051765 
L 351.95482 470.215408 
L 353.060851 470.997809 
L 353.718067 471.211191 
L 354.423651 471.211191 
L 354.734477 471.083162 
L 355.569512 470.582425 
L 355.867536 470.608031 
L 356.764452 470.878315 
L 357.538318 470.627947 
L 358.158548 470.994964 
L 359.280227 472.187059 
L 360.714154 472.744697 
L 361.347899 473.160081 
L 361.627429 473.90265 
L 361.012178 474.844377 
L 356.996327 476.485996 
L 356.276518 477.348059 
L 356.030418 477.826035 
L 355.973516 478.386519 
L 356.07665 481.308431 
L 356.814241 482.304214 
L 356.023305 483.297151 
L 355.5624 483.630027 
L 353.959189 484.432344 
L 353.449206 484.551838 
L 352.464092 484.642881 
L 352.023814 484.907475 
L 351.767755 485.300098 
L 351.244969 486.788082 
L 350.865149 487.371326 
L 348.071267 490.233491 
L 347.3415 491.761307 
L 347.015025 492.131169 
L 345.658627 492.987542 
L 345.57683 493.254981 
L 345.666451 493.414306 
L 345.997904 493.67321 
L 345.86703 494.108509 
L 345.277384 494.765726 
L 344.541927 495.033165 
L 343.753125 495.17542 
L 343.00202 495.459929 
L 342.151337 496.014722 
L 340.495492 497.371832 
L 339.899445 497.482791 
L 339.595731 498.080261 
L 339.166833 499.608076 
L 338.696681 500.310815 
L 338.753844 500.318105 
L 340.602183 500.646536 
L 342.258739 502.040632 
L 342.657764 502.535678 
L 342.966456 503.349375 
L 343.050387 504.322397 
L 343.002152 506.31991 
L 343.002152 506.31991 
" clip-path="url(#p5b9b80e1f1)" style="fill: none; stroke: #000000"/>
    <path d="M 158.973765 417.038626 
L 159.146079 417.352399 
L 159.232168 417.582466 
L 159.512531 417.729041 
L 159.404481 417.917148 
L 159.080873 417.854174 
L 158.649625 417.540182 
L 158.283012 417.351676 
L 158.283375 417.038112 
L 158.499215 416.933679 
L 158.973765 417.038626 
" clip-path="url(#p5b9b80e1f1)" style="fill: none; stroke: #000000"/>
    <path d="M 152.134797 405.124344 
L 152.326932 405.207856 
L 152.325535 405.498938 
L 152.196124 405.769003 
L 151.940378 405.830628 
L 151.640393 405.830121 
L 151.403079 405.767613 
L 151.47328 405.434522 
L 151.709223 405.206431 
L 151.772454 404.915801 
L 152.071171 404.937189 
L 152.134797 405.124344 
" clip-path="url(#p5b9b80e1f1)" style="fill: none; stroke: #000000"/>
    <path d="M 130.413994 356.536254 
L 131.484122 357.488664 
L 131.71874 357.74581 
L 131.822677 357.925562 
L 131.534718 357.847519 
L 131.193598 357.897357 
L 130.827832 357.639635 
L 130.305139 357.304321 
L 129.99272 356.867422 
L 129.837392 356.482433 
L 130.100332 356.355517 
L 130.413994 356.536254 
" clip-path="url(#p5b9b80e1f1)" style="fill: none; stroke: #000000"/>
    <path d="M 31.030973 200.071937 
L 30.874114 200.273827 
L 30.688038 200.730296 
L 30.836842 201.114909 
L 31.064537 201.373194 
L 31.085691 201.705087 
L 31.053776 202.163816 
L 31.12419 202.649479 
L 30.815459 202.696265 
L 30.456446 202.66582 
L 30.357264 202.40935 
L 30.463704 202.130128 
L 30.366956 201.695147 
L 30.138803 201.487993 
L 30.347143 201.261219 
L 30.429722 200.854296 
L 30.751153 199.889606 
L 31.030973 200.071937 
" clip-path="url(#p5b9b80e1f1)" style="fill: none; stroke: #000000"/>
   </g>
  </g>
 </g>
 <defs>
  <clipPath id="p5b9b80e1f1">
   <rect x="0" y="0" width="383.151733" height="554.4"/>
  </clipPath>
 </defs>
</svg>
