<?xml version="1.0" encoding="utf-8" standalone="no"?>
<!DOCTYPE svg PUBLIC "-//W3C//DTD SVG 1.1//EN"
  "http://www.w3.org/Graphics/SVG/1.1/DTD/svg11.dtd">
<svg xmlns:xlink="http://www.w3.org/1999/xlink" width="558pt" height="397.395166pt" viewBox="0 0 558 397.395166" xmlns="http://www.w3.org/2000/svg" version="1.1">
 <metadata>
  <rdf:RDF xmlns:dc="http://purl.org/dc/elements/1.1/" xmlns:cc="http://creativecommons.org/ns#" xmlns:rdf="http://www.w3.org/1999/02/22-rdf-syntax-ns#">
   <cc:Work>
    <dc:type rdf:resource="http://purl.org/dc/dcmitype/StillImage"/>
    <dc:date>2025-01-12T14:40:19.500370</dc:date>
    <dc:format>image/svg+xml</dc:format>
    <dc:creator>
     <cc:Agent>
      <dc:title>Matplotlib v3.10.0, https://matplotlib.org/</dc:title>
     </cc:Agent>
    </dc:creator>
   </cc:Work>
  </rdf:RDF>
 </metadata>
 <defs>
  <style type="text/css">*{stroke-linejoin: round; stroke-linecap: butt}</style>
 </defs>
 <g id="figure_1">
  <g id="patch_1">
   <path d="M 0 397.395166 
L 558 397.395166 
L 558 0 
L 0 0 
z
" style="fill: #ffffff"/>
  </g>
  <g id="axes_1">
   <g id="LineCollection_1">
    <path d="M 459.625 175.926228 
L 460.252867 178.327021 
L 461.891706 179.755153 
L 462.396128 180.900212 
L 463.028252 181.828178 
L 464.277601 182.379424 
L 465.614213 182.639085 
L 466.529409 182.690165 
L 465.550362 184.827042 
L 465.746172 185.727339 
L 466.325086 186.197707 
L 467.163661 186.38926 
L 467.7894 186.887297 
L 467.712779 188.26222 
L 467.253053 188.983735 
L 465.648267 190.501257 
L 465.039555 191.361116 
L 464.869286 192.201819 
L 464.788408 193.204278 
L 464.562802 194.104576 
L 463.962603 194.621768 
L 462.404642 195.551863 
L 461.906605 196.971481 
L 462.091772 198.691198 
L 463.060178 202.286003 
L 463.270886 203.961025 
L 463.117643 207.532418 
L 464.179697 207.736741 
L 471.85883 210.507869 
L 472.429231 211.58695 
L 472.071667 212.610692 
L 470.854243 213.047006 
L 471.531062 214.177167 
L 472.322813 215.20091 
L 473.327401 216.030971 
L 476.575283 217.182416 
L 477.733112 217.937985 
L 478.54189 219.144767 
L 481.581192 226.072588 
L 481.759975 227.896595 
L 481.15552 231.238125 
L 479.303844 237.557235 
L 479.295331 240.975386 
L 480.121135 243.112262 
L 481.462004 244.408435 
L 482.998682 245.555623 
L 484.437455 247.243415 
L 484.939749 248.792863 
L 484.926979 250.467885 
L 484.437455 253.807286 
L 483.126384 257.485097 
L 480.368025 260.256226 
L 473.340171 264.108563 
L 474.47246 265.051428 
L 475.583465 266.675369 
L 477.277642 269.878555 
L 478.30777 272.851878 
L 480.133906 275.637905 
L 481.645043 277.30867 
L 486.404063 280.703409 
L 486.923383 281.271682 
L 487.65554 282.499747 
L 488.12378 283.02971 
L 488.983639 283.446869 
L 489.745593 283.540517 
L 490.409642 283.817204 
L 490.980043 284.772839 
L 490.801261 286.237153 
L 489.622148 290.651378 
L 489.817957 291.55806 
L 490.541601 291.747485 
L 492.721044 292.801024 
L 493.359553 293.256494 
L 493.674551 293.867334 
L 494.185358 295.457221 
L 494.55995 296.029751 
L 495.538997 296.821502 
L 495.998723 296.868326 
L 496.449936 296.404343 
L 499.906398 293.850307 
L 500.119234 292.258292 
L 500.608757 290.5705 
L 501.438819 289.199834 
L 502.69881 288.540042 
L 503.877923 288.706054 
L 504.465351 289.357333 
L 504.937848 290.163983 
L 505.763653 290.800363 
L 506.54689 290.898268 
L 508.155933 290.566243 
L 510.228958 290.49175 
L 510.60355 290.851444 
L 510.492875 292.024172 
L 510.709968 292.841463 
L 511.620907 292.941496 
L 512.655292 292.681836 
L 513.251234 292.411534 
L 513.259747 294.203615 
L 513.851432 295.802016 
L 515.88189 298.562503 
L 517.746336 300.180059 
L 518.099644 300.973938 
L 517.971943 301.876364 
L 516.920531 303.359833 
L 516.60979 304.249489 
L 516.85668 305.724444 
L 517.648432 306.735417 
L 518.627478 307.618687 
L 519.393689 308.708409 
L 519.432 311.588084 
L 519.844902 312.922568 
L 521.300702 313.256721 
L 522.441505 313.929284 
L 523.416295 314.655055 
L 524.454936 315.272281 
L 525.795805 315.61069 
L 526.664177 315.946972 
L 526.570529 316.525886 
L 526.115059 317.153754 
L 525.949047 317.628379 
L 527.085593 319.231036 
L 527.86883 320.754944 
L 528.196598 321.023117 
L 528.911728 321.35727 
L 528.784027 321.704194 
L 528.05187 322.383141 
L 528.043356 323.091886 
L 527.84329 324.6988 
L 527.617684 325.51822 
L 528.903215 325.756597 
L 529.856722 325.369235 
L 530.45692 324.430627 
L 530.656986 322.998238 
L 531.346576 323.713368 
L 531.725424 324.558328 
L 531.91272 325.501193 
L 532.087246 327.642326 
L 531.810559 328.136107 
L 531.282725 328.448976 
L 530.567595 329.019377 
L 530.205773 329.027891 
L 529.103281 328.555394 
L 528.562677 328.836338 
L 528.503083 329.34076 
L 529.558751 330.645447 
L 528.447745 333.186712 
L 528.707406 334.525452 
L 528.579704 334.880889 
L 528.128491 335.681153 
L 528.162545 336.189832 
L 528.486056 336.381385 
L 529.184159 336.575066 
L 529.843951 337.545599 
L 530.107868 338.237317 
L 530.282394 339.078021 
L 530.359015 340.061324 
L 530.180233 340.957365 
L 529.605575 341.555435 
L 529.605575 341.92577 
L 530.473947 343.449678 
L 530.627189 344.230787 
L 529.954626 345.294969 
L 528.813824 345.495035 
L 527.728359 345.835573 
L 526.85573 348.002247 
L 526.212964 348.440689 
L 525.706414 349.057915 
L 525.783035 350.271082 
L 526.098032 350.471148 
L 526.723771 350.701011 
L 527.366537 351.147967 
L 527.770926 351.995056 
L 527.787953 352.850657 
L 527.36228 355.451517 
L 527.434645 356.328403 
L 527.728359 357.490489 
L 527.524036 358.435482 
L 525.812832 359.214463 
L 525.221147 359.733783 
L 526.136343 360.044524 
L 526.732285 360.419116 
L 527.685791 362.053699 
L 528.349841 362.632614 
L 528.303017 362.023902 
L 528.767 361.147016 
L 529.405509 360.904383 
L 530.610162 364.26294 
L 530.763404 365.00361 
L 531.593466 363.522269 
L 532.636364 364.948273 
L 532.470351 366.872313 
L 531.91272 369.0475 
L 531.759478 371.235457 
L 529.486386 371.146066 
L 524.080344 369.230539 
L 521.300702 368.949595 
L 514.20474 369.477429 
L 510.782332 370.103168 
L 504.444068 372.423084 
L 501.332401 372.929634 
L 494.594004 372.652947 
L 492.899827 372.291125 
L 487.647027 370.00952 
L 487.076626 370.013777 
L 486.719061 370.154249 
L 485.808121 370.779987 
L 482.675171 372.461394 
L 481.581192 372.678487 
L 479.827421 372.508218 
L 474.859822 370.886405 
L 472.816593 370.950256 
L 471.33951 371.66113 
L 468.610948 374.108747 
L 465.563132 375.777384 
L 451.652152 379.33175 
L 450.317668 378.667701 
L 447.978597 375.143131 
L 446.50577 374.100234 
L 442.934377 372.835986 
L 441.204018 372.423084 
L 439.778015 372.359233 
L 438.390322 372.63592 
L 436.78128 373.248888 
L 434.37623 374.54719 
L 433.654715 374.755769 
L 432.479858 374.721716 
L 432.179759 374.402461 
L 432.118037 373.827803 
L 431.677465 373.044566 
L 429.359678 370.511814 
L 428.003911 369.434862 
L 426.396997 368.783583 
L 424.704948 368.59203 
L 419.384041 368.885744 
L 417.685607 368.668651 
L 417.20034 367.991832 
L 416.844904 367.183054 
L 415.531704 366.561572 
L 413.090472 366.387046 
L 412.302977 366.089075 
L 411.436733 365.310094 
L 411.262208 364.607735 
L 411.430348 363.730849 
L 409.384992 361.968565 
L 406.164778 360.325468 
L 403.170172 360.359522 
L 401.790992 363.641458 
L 401.52069 365.229217 
L 400.57144 366.037995 
L 399.222058 366.131643 
L 397.753488 365.569755 
L 396.157216 365.74428 
L 394.726956 365.603809 
L 393.51166 364.956786 
L 392.56241 363.628688 
L 392.196332 362.028159 
L 392.494303 360.670263 
L 393.72024 357.869337 
L 394.033109 356.451848 
L 394.122501 354.795981 
L 393.767064 353.246533 
L 392.711396 352.122757 
L 391.455662 351.935461 
L 390.031787 352.165325 
L 388.522778 352.212149 
L 387.039308 351.462965 
L 386.266713 352.378161 
L 385.613305 351.939718 
L 385.070573 351.888637 
L 382.378194 352.331337 
L 382.003602 352.144041 
L 381.216107 351.313979 
L 380.760638 351.096886 
L 380.139156 351.14371 
L 378.029948 351.637491 
L 377.31269 351.522559 
L 376.297461 350.875537 
L 375.603614 350.688241 
L 374.879971 350.739321 
L 372.015194 351.382087 
L 371.598035 351.816273 
L 371.117025 351.850327 
L 370.719021 351.705598 
L 369.631428 351.054319 
L 365.668416 349.994394 
L 339.019183 349.036631 
L 218.192016 348.538594 
L 215.829533 348.887646 
L 213.692657 349.841152 
L 208.908097 353.212479 
L 203.89793 355.464287 
L 199.287896 358.784534 
L 178.49379 368.3196 
L 175.654554 368.902771 
L 160.632568 368.034399 
L 154.094237 368.489869 
L 152.510734 368.204668 
L 147.360096 366.514748 
L 144.435725 366.259344 
L 138.212392 367.319269 
L 136.909834 367.983318 
L 136.233014 367.868387 
L 134.453703 367.178797 
L 133.572561 367.021298 
L 132.708445 367.200081 
L 120.423534 373.712872 
L 117.929093 374.708945 
L 113.778785 374.742999 
L 109.479492 375.79441 
L 107.95984 375.854005 
L 96.794448 375.121848 
L 93.767916 375.836978 
L 91.888142 377.113927 
L 91.346241 376.073611 
L 90.957437 374.984291 
L 90.595448 373.29836 
L 90.072575 372.738617 
L 88.835778 371.887272 
L 86.942038 370.077325 
L 86.097396 369.011468 
L 85.748814 367.948962 
L 85.748814 364.520119 
L 85.929808 363.77603 
L 86.740932 363.052052 
L 86.925279 362.297907 
L 87.528594 361.429803 
L 91.621084 359.029948 
L 93.417624 358.969617 
L 95.975011 359.180777 
L 98.730152 357.491494 
L 99.611663 356.770867 
L 100.98253 354.632449 
L 104.136529 352.380071 
L 105.651521 354.109575 
L 106.817931 357.233409 
L 107.960879 357.937277 
L 108.011155 356.656907 
L 108.855797 355.651382 
L 110.313809 355.242468 
L 111.932706 355.597754 
L 114.69455 357.13956 
L 117.174847 357.80991 
L 119.903174 359.070169 
L 121.334372 359.180777 
L 122.953269 358.416578 
L 124.934155 356.013371 
L 126.392167 355.242468 
L 128.30937 355.32291 
L 129.941673 355.902763 
L 131.570625 356.073702 
L 133.450958 354.937458 
L 134.40956 354.55871 
L 135.049744 355.279337 
L 135.532397 356.325084 
L 136.004994 356.928399 
L 142.420249 354.578821 
L 143.89502 354.236942 
L 145.869202 354.116279 
L 147.14622 353.747586 
L 148.212078 352.983386 
L 149.438819 352.366664 
L 151.242062 352.433699 
L 152.686667 353.197899 
L 156.175842 355.919522 
L 156.866303 356.677018 
L 157.824904 356.844606 
L 163.103915 356.928399 
L 163.61003 357.290389 
L 164.675887 358.386412 
L 165.071394 358.617683 
L 165.798724 358.520482 
L 167.910328 358.004312 
L 168.855523 357.431162 
L 169.770551 356.345194 
L 170.936961 355.691603 
L 172.659762 356.422285 
L 173.108897 356.043537 
L 173.63177 355.792155 
L 174.164699 355.7821 
L 175.290888 356.583169 
L 175.770188 356.502727 
L 176.192509 356.301622 
L 176.648348 356.422285 
L 177.291884 357.149615 
L 177.844923 358.547296 
L 178.287355 359.180777 
L 178.820283 359.660078 
L 179.410192 360.00866 
L 180.154281 360.223172 
L 181.153103 360.249986 
L 182.088242 360.062288 
L 185.852261 358.540593 
L 187.360549 357.032304 
L 189.891123 353.811269 
L 190.832965 353.127512 
L 191.670903 352.705191 
L 192.267515 352.132041 
L 192.495435 350.999149 
L 192.022837 350.496386 
L 191.121216 350.110934 
L 190.618453 349.665151 
L 191.322321 349.004856 
L 190.5179 347.13793 
L 189.767108 344.630819 
L 189.498968 342.063376 
L 190.202836 340.0054 
L 191.154733 339.442305 
L 192.33455 339.402084 
L 193.571347 339.50934 
L 194.697536 339.392029 
L 195.843836 338.899321 
L 196.624794 338.306061 
L 197.140964 337.551917 
L 197.513008 336.579909 
L 199.205644 338.195453 
L 200.754153 338.631181 
L 201.806604 337.763077 
L 202.007709 335.460423 
L 200.734043 336.767607 
L 199.520708 336.727386 
L 198.277208 336.194457 
L 196.946562 336.016814 
L 195.703062 336.556446 
L 193.6719 338.021162 
L 192.193777 338.32282 
L 191.35919 338.326172 
L 190.122394 338.497111 
L 189.002908 339.073613 
L 188.513552 340.286947 
L 188.513552 345.066547 
L 189.589465 349.004856 
L 189.57941 351.012556 
L 189.33138 351.562243 
L 187.337087 353.248175 
L 186.703606 354.052596 
L 182.554136 357.749579 
L 181.461465 358.419929 
L 180.482753 358.466854 
L 179.624704 358.091458 
L 178.900725 357.491494 
L 179.369971 355.027956 
L 176.869563 353.915174 
L 171.027458 352.99009 
L 167.062335 355.463683 
L 165.607674 355.802211 
L 165.326127 355.540774 
L 164.964138 354.960921 
L 164.370877 354.377716 
L 163.385462 354.116279 
L 162.379936 354.293922 
L 160.988959 355.068177 
L 159.986785 355.242468 
L 159.031535 354.981031 
L 157.791387 354.350902 
L 155.740114 352.99009 
L 155.642913 352.584528 
L 155.787039 351.478449 
L 155.478677 351.257234 
L 153.812856 350.945521 
L 153.440812 350.744416 
L 152.924642 350.060658 
L 151.801805 347.878667 
L 151.500147 347.600472 
L 151.121399 347.446291 
L 150.806334 347.15804 
L 150.494621 345.401722 
L 150.068948 344.456528 
L 149.559482 344.456528 
L 149.559482 345.066547 
L 149.438819 345.405073 
L 148.171856 347.627286 
L 147.863495 350.436054 
L 145.564193 351.870605 
L 142.19233 352.433699 
L 141.320874 352.802392 
L 139.122124 354.116279 
L 138.250668 354.02243 
L 136.256375 353.50626 
L 133.142597 353.50626 
L 132.217513 353.720772 
L 130.645541 354.40453 
L 129.76403 354.632449 
L 128.771912 354.632449 
L 126.11062 354.116279 
L 125.215702 354.293922 
L 124.069403 355.068177 
L 123.325313 355.242468 
L 123.043766 355.631271 
L 122.638204 356.516134 
L 122.07511 357.451273 
L 121.334372 358.004312 
L 117.955806 356.928399 
L 115.220775 355.4 
L 113.943758 354.350902 
L 113.407477 353.248175 
L 113.079005 353.057125 
L 112.324861 352.825854 
L 111.564013 352.460513 
L 111.158451 351.870605 
L 111.295873 351.052777 
L 111.818746 350.322095 
L 112.576242 349.799221 
L 113.407477 349.618227 
L 113.407477 349.004856 
L 112.140515 348.97469 
L 111.339446 348.351264 
L 110.876904 347.352442 
L 110.595357 346.192735 
L 110.032262 352.99009 
L 109.412188 352.99009 
L 108.322868 351.558892 
L 105.296236 348.994801 
L 104.920839 347.372552 
L 103.955534 348.130048 
L 103.318701 349.045077 
L 102.567909 349.809277 
L 101.264077 350.131045 
L 100.278662 349.92994 
L 99.611663 349.366845 
L 99.283191 348.492038 
L 99.343523 347.372552 
L 100.509933 345.220727 
L 102.152291 343.605182 
L 103.231556 341.734904 
L 102.722089 338.828935 
L 102.158995 341.694683 
L 101.716564 342.418662 
L 100.942309 343.011922 
L 99.303302 344.496749 
L 98.606137 345.344742 
L 98.264258 346.410599 
L 98.163706 348.160214 
L 98.753614 351.079591 
L 98.579323 352.426996 
L 96.099026 353.469391 
L 92.495892 356.422285 
L 89.730696 357.370831 
L 88.209 356.485968 
L 87.568815 354.354253 
L 87.431393 351.562243 
L 87.880528 348.652922 
L 89.187712 345.757008 
L 91.309371 344.134759 
L 94.185175 345.066547 
L 94.315894 343.846509 
L 93.139428 342.948239 
L 91.433386 342.613064 
L 89.985429 343.102419 
L 88.289442 345.143637 
L 87.3476 345.807284 
L 86.305205 345.582716 
L 86.79456 344.912366 
L 86.962148 344.201794 
L 86.79456 343.50463 
L 86.305205 342.820872 
L 88.09504 340.374093 
L 88.453678 339.154055 
L 88.048116 337.706097 
L 87.431393 337.706097 
L 87.045942 338.617774 
L 86.482847 339.019985 
L 85.970029 338.70492 
L 85.748814 337.451364 
L 85.949919 336.465949 
L 86.442626 335.413499 
L 89.382114 331.129959 
L 89.680419 330.084212 
L 89.596626 329.031761 
L 89.117325 326.155958 
L 89.301671 324.433157 
L 90.112796 321.011017 
L 90.29379 318.815619 
L 90.166424 317.468214 
L 89.811138 316.777753 
L 89.936863 314.880662 
L 90.234833 313.959081 
L 90.758411 313.286518 
L 92.060969 312.030784 
L 92.320629 311.239033 
L 93.538053 309.225601 
L 96.411343 308.597734 
L 165.62145 309.212831 
L 166.174825 308.814827 
L 166.498336 295.821171 
L 166.826104 294.659085 
L 167.77961 294.144021 
L 173.521934 293.603417 
L 177.221029 292.449844 
L 178.25967 292.424304 
L 183.814697 292.954266 
L 185.159823 292.822308 
L 187.637237 292.011402 
L 189.539994 290.996172 
L 191.468291 290.287428 
L 194.039353 290.398102 
L 203.025302 292.271062 
L 206.060347 292.266805 
L 208.742084 291.783667 
L 211.440849 290.806748 
L 213.807588 289.267942 
L 215.501765 287.109782 
L 215.999802 284.832433 
L 216.310543 279.737132 
L 217.464116 277.90674 
L 221.044023 274.275753 
L 222.925495 273.535083 
L 225.190074 274.975984 
L 228.889169 278.370723 
L 233.02245 281.297222 
L 238.407208 283.987473 
L 241.191107 284.700475 
L 244.345341 284.951622 
L 245.584048 285.307058 
L 248.33815 286.958668 
L 249.849287 287.439678 
L 251.534951 287.754676 
L 252.416093 288.286766 
L 254.076216 290.553473 
L 256.374848 292.560519 
L 259.12895 293.699193 
L 262.138455 294.050373 
L 265.190528 293.699193 
L 267.859495 293.043658 
L 268.800231 293.371426 
L 271.920411 296.21279 
L 273.01439 296.821502 
L 274.206273 297.159912 
L 276.798619 297.262073 
L 277.894726 297.564301 
L 278.816307 298.498652 
L 279.446303 299.326585 
L 280.225284 300.011918 
L 281.097913 300.597218 
L 284.101033 302.118997 
L 286.254936 302.717067 
L 288.483332 302.887336 
L 293.167859 302.482948 
L 297.63955 303.304496 
L 300.023316 303.223618 
L 301.823911 302.353117 
L 305.780538 299.433003 
L 307.014989 298.890271 
L 308.440992 298.907298 
L 311.976203 297.653692 
L 315.296449 297.615381 
L 318.603925 296.744881 
L 324.827258 296.221304 
L 328.90733 294.476046 
L 331.252786 290.979146 
L 331.569912 286.764987 
L 329.594792 282.870083 
L 328.762602 282.19752 
L 326.893899 281.11844 
L 326.142587 280.490573 
L 325.714786 279.796726 
L 325.18908 278.234508 
L 324.763408 277.51725 
L 323.384228 276.416886 
L 321.406979 275.433582 
L 319.314798 274.720581 
L 317.584439 274.426867 
L 316.479819 274.601392 
L 314.802669 275.565541 
L 313.834264 275.986957 
L 312.974405 276.118915 
L 310.656618 276.029524 
L 308.985853 276.43817 
L 305.176083 278.347311 
L 300.423448 279.398723 
L 298.86123 280.060643 
L 294.295891 282.844542 
L 289.458122 284.534462 
L 288.029991 284.870744 
L 286.525238 284.666421 
L 284.545861 283.75761 
L 277.898983 279.105008 
L 277.066793 278.217481 
L 276.532574 277.112861 
L 275.43221 273.535083 
L 274.648973 271.960094 
L 273.535839 270.595813 
L 271.941695 269.346464 
L 268.404356 267.728908 
L 265.016002 267.477761 
L 261.678729 268.352519 
L 256.621738 271.117262 
L 255.604381 271.436517 
L 254.450808 271.029999 
L 251.066711 269.02721 
L 250.49631 268.399343 
L 248.895781 263.055023 
L 248.159367 261.5375 
L 247.116469 260.132781 
L 244.209125 257.834149 
L 241.19962 256.85723 
L 232.881977 256.491152 
L 227.978229 254.67353 
L 226.215945 254.588395 
L 220.209704 256.746555 
L 214.003398 260.622304 
L 212.249627 261.028822 
L 211.551524 260.513758 
L 209.955251 258.442861 
L 209.184784 257.727731 
L 205.617648 257.1701 
L 201.803621 258.581204 
L 198.321619 261.079902 
L 195.754814 263.789308 
L 194.839617 265.1919 
L 193.988272 266.915874 
L 193.240032 269.288798 
L 193.039022 270.404261 
L 192.87301 273.675554 
L 191.578965 274.101227 
L 105.638114 273.771414 
L 104.82699 272.561431 
L 104.411373 271.700031 
L 104.465001 269.387322 
L 105.872737 268.1036 
L 107.94412 267.057853 
L 110.032262 265.462419 
L 109.593182 265.224445 
L 108.292702 264.389858 
L 109.338449 263.414498 
L 110.109352 262.157591 
L 109.971931 261.158769 
L 108.292702 260.961015 
L 108.513918 262.278254 
L 108.111708 263.873688 
L 107.2369 264.993174 
L 106.047028 264.902676 
L 105.45712 266.632181 
L 104.17675 267.801943 
L 102.561205 268.244374 
L 100.98253 267.761721 
L 99.537924 266.280247 
L 99.172583 264.761903 
L 99.856341 261.52411 
L 100.017225 259.489596 
L 100.235089 258.668416 
L 100.98253 257.5858 
L 103.90861 254.20053 
L 104.411373 253.037472 
L 104.894025 253.342481 
L 106.657047 254.213937 
L 106.472701 253.838541 
L 106.047028 252.474377 
L 108.906073 251.968263 
L 109.046847 253.597214 
L 109.640107 255.139021 
L 110.575246 256.070808 
L 111.771822 255.852944 
L 111.148396 253.972611 
L 111.007622 251.891172 
L 110.655688 250.245462 
L 109.412188 249.662257 
L 109.851267 248.549475 
L 111.637752 240.880665 
L 111.771822 239.543315 
L 109.971931 242.117461 
L 109.217786 243.726303 
L 108.567546 247.135035 
L 107.722904 249.172901 
L 106.633585 250.527009 
L 105.530858 250.225351 
L 104.920839 250.225351 
L 104.096308 251.33143 
L 102.641647 251.760454 
L 100.932253 251.98167 
L 99.343523 252.474377 
L 98.45866 253.198356 
L 98.163706 253.882113 
L 98.026284 254.58263 
L 97.607315 255.340126 
L 97.15818 255.742336 
L 96.212986 256.271913 
L 95.670002 256.721048 
L 94.848822 258.23604 
L 94.225396 258.785728 
L 93.39081 258.40698 
L 93.129373 257.605911 
L 93.12267 256.586978 
L 92.968489 255.71217 
L 92.214345 255.340126 
L 91.165246 254.616147 
L 90.736222 252.987195 
L 90.846829 251.257691 
L 91.419979 250.225351 
L 90.917216 249.099162 
L 90.568634 247.818793 
L 90.29379 245.164205 
L 90.374232 243.766524 
L 90.65578 242.965455 
L 91.165246 242.422471 
L 93.058986 240.9477 
L 94.024291 240.58571 
L 95.080093 240.538786 
L 97.50341 240.810278 
L 98.653062 241.162212 
L 99.437372 241.825859 
L 99.343523 242.91853 
L 100.496526 241.906301 
L 101.404851 240.689615 
L 102.55115 240.022616 
L 104.411373 240.669504 
L 104.381207 238.856206 
L 105.028095 238.045082 
L 106.07049 237.542319 
L 107.21679 236.68427 
L 106.191154 237.032852 
L 105.07502 237.260772 
L 104.035977 237.059666 
L 103.231556 236.1681 
L 106.955353 233.912371 
L 108.292702 232.742609 
L 110.431121 230.18187 
L 111.600882 229.196455 
L 114.245415 228.445662 
L 115.525785 226.863635 
L 116.524607 226.501645 
L 117.211716 226.81671 
L 117.872012 227.420026 
L 118.555769 227.782015 
L 121.19695 226.380982 
L 121.84719 225.938551 
L 116.658677 225.747501 
L 114.433113 224.919618 
L 114.580591 223.133134 
L 113.280111 223.793429 
L 112.797458 224.983301 
L 113.052191 226.230153 
L 113.970572 227.06474 
L 112.948287 227.621131 
L 112.100294 227.557447 
L 111.275762 227.252438 
L 110.313809 227.06474 
L 109.619997 227.319473 
L 109.325042 227.942899 
L 108.906073 229.367394 
L 106.791117 233.017453 
L 106.047028 233.868798 
L 105.202386 234.244194 
L 103.419254 234.65646 
L 102.440542 235.296644 
L 101.716564 236.201618 
L 100.690927 238.115469 
L 99.856341 238.929944 
L 98.006173 239.53326 
L 96.256558 239.191381 
L 94.476778 238.588066 
L 92.495892 238.417126 
L 94.429853 235.028504 
L 94.490185 234.431892 
L 95.87781 234.043089 
L 98.163706 231.562792 
L 97.060979 231.881208 
L 95.995122 233.49005 
L 95.080093 233.868798 
L 93.260091 233.922426 
L 92.539465 234.08331 
L 91.932797 234.431892 
L 92.901454 235.531267 
L 92.821012 236.268653 
L 91.419979 237.854032 
L 91.178653 238.487513 
L 90.967493 239.66733 
L 90.548523 240.357791 
L 88.912868 242.181145 
L 88.557582 242.91853 
L 88.182186 245.23124 
L 88.557582 253.037472 
L 88.048116 253.037472 
L 87.55876 237.227254 
L 87.146494 234.840806 
L 85.782331 230.875683 
L 84.280746 227.942899 
L 83.546712 227.06474 
L 82.470799 226.575384 
L 80.325678 226.106139 
L 79.50785 225.38216 
L 79.082177 224.195639 
L 78.381661 219.754567 
L 77.845381 218.346831 
L 77.181734 217.311139 
L 75.623169 215.769333 
L 74.909245 215.387233 
L 74.366261 215.273274 
L 74.010975 214.931395 
L 73.883609 213.852131 
L 73.984161 213.007489 
L 74.399779 211.388592 
L 74.49698 210.44675 
L 74.094769 209.085938 
L 73.099299 207.624574 
L 70.511746 205.077242 
L 64.619364 202.369026 
L 63.714391 201.423831 
L 63.245146 200.337864 
L 60.335824 196.084489 
L 58.163889 190.416675 
L 54.83895 185.958844 
L 52.472612 183.837185 
L 51.058173 182.888639 
L 49.439276 182.157957 
L 47.652792 181.866354 
L 46.318794 181.501013 
L 42.826268 179.717881 
L 42.289988 179.107862 
L 39.568364 179.141379 
L 37.202027 178.859832 
L 35.137347 178.993902 
L 33.290532 180.280975 
L 33.984344 181.071989 
L 34.976463 181.36024 
L 34.359741 182.560167 
L 33.290532 183.049523 
L 34.359741 184.169008 
L 33.850274 185.348825 
L 33.572079 185.429267 
L 33.290532 185.908568 
L 32.207915 185.22481 
L 26.67082 178.551471 
L 25.363636 177.371654 
L 38.961697 173.838906 
L 42.9838 170.648038 
L 55.271326 165.556725 
L 58.096854 163.341217 
L 71.1888 148.171184 
L 73.80987 144.383703 
L 79.548071 138.186313 
L 91.004362 118.474655 
L 96.729156 111.107502 
L 107.880437 92.776767 
L 107.739663 91.928773 
L 107.21679 90.762363 
L 109.079359 87.6694 
L 109.888137 83.127473 
L 110.083947 74.158552 
L 110.57347 73.213558 
L 111.710016 69.574058 
L 113.140276 66.253811 
L 113.506354 60.6775 
L 114.102296 59.021634 
L 115.302693 58.021303 
L 118.341995 57.318944 
L 119.627526 56.501652 
L 120.146847 55.663077 
L 120.500155 54.6968 
L 123.871482 40.756023 
L 124.301412 37.46983 
L 124.922893 35.924639 
L 126.063696 34.379447 
L 127.583347 32.953444 
L 129.337118 31.91906 
L 131.214334 31.552981 
L 134.862349 32.119126 
L 135.798828 31.95737 
L 136.637403 31.578522 
L 139.05948 29.914142 
L 140.004474 29.488469 
L 140.996291 29.3182 
L 142.034932 29.51401 
L 142.792629 29.960966 
L 143.401341 30.569678 
L 144.397415 31.999938 
L 145.793621 33.425941 
L 147.462257 34.204922 
L 149.322447 34.413501 
L 151.289054 34.145327 
L 152.459654 33.447224 
L 153.076879 33.345063 
L 153.762212 33.502562 
L 154.826393 33.911207 
L 155.345714 33.958031 
L 155.954426 33.8431 
L 159.219335 32.43838 
L 160.381421 32.310678 
L 163.258968 32.983241 
L 163.952814 32.983241 
L 165.983272 32.629933 
L 167.2986 32.693784 
L 171.023236 33.872897 
L 173.69646 34.017626 
L 174.394563 34.217692 
L 176.339886 35.111604 
L 177.629674 35.430859 
L 178.893922 35.362751 
L 180.111346 34.966876 
L 181.247891 34.268772 
L 183.06977 32.655473 
L 184.04456 32.072302 
L 185.300295 31.880749 
L 188.837634 32.583109 
L 190.055058 32.468177 
L 191.034104 31.999938 
L 191.825856 31.280551 
L 193.826517 28.513679 
L 194.848131 27.636793 
L 196.044271 27.117473 
L 197.291492 27.223891 
L 198.066216 27.841116 
L 198.538712 28.679691 
L 199.1006 29.450159 
L 200.117958 29.871574 
L 201.331125 29.846034 
L 202.488954 29.56509 
L 205.958186 28.168884 
L 207.243717 27.90071 
L 209.887144 27.811319 
L 213.786305 28.407261 
L 215.114403 28.360437 
L 223.95988 27.015311 
L 225.696624 26.385316 
L 226.232972 26.044778 
L 226.58628 25.576538 
L 226.616077 24.963569 
L 226.343646 24.439992 
L 225.011291 23.184258 
L 224.521768 22.081766 
L 224.68778 21.017584 
L 225.40291 20.20455 
L 226.577766 19.893809 
L 227.765393 20.238604 
L 228.51032 21.038868 
L 229.157342 21.983861 
L 230.017201 22.775612 
L 230.608886 22.962908 
L 231.221854 22.907571 
L 231.805026 22.669194 
L 232.315833 22.298859 
L 232.720222 21.792309 
L 232.903261 21.260218 
L 233.162921 20.106645 
L 233.695012 19.344691 
L 234.542101 18.79983 
L 236.381006 18.063417 
L 237.317486 18.523143 
L 238.470544 19.779443 
L 239.096797 20.975017 
L 239.952399 22.017915 
L 241.47205 22.243522 
L 243.983519 21.664607 
L 258.051998 22.643654 
L 259.001248 22.532979 
L 261.785147 21.830619 
L 262.602438 21.809336 
L 263.326082 22.005145 
L 265.641741 23.06507 
L 266.548423 23.218312 
L 267.459363 23.188515 
L 270.909439 22.247778 
L 271.788453 22.226495 
L 275.127854 22.899057 
L 276.019638 22.916084 
L 276.900781 22.81818 
L 277.760639 22.592573 
L 278.575802 22.230751 
L 280.736091 20.979274 
L 281.525714 20.681303 
L 283.141141 20.583399 
L 288.362015 22.571289 
L 288.998396 22.992705 
L 289.343191 23.605674 
L 289.309137 24.5081 
L 288.874951 26.074575 
L 289.015423 26.70457 
L 289.78589 27.040852 
L 292.942253 26.768421 
L 293.740389 27.1345 
L 294.019204 27.773009 
L 294.127751 29.245836 
L 294.555552 29.884345 
L 295.413282 30.271707 
L 298.327011 30.565421 
L 298.995317 30.948526 
L 300.393651 32.719324 
L 300.978951 33.242902 
L 302.93066 34.579513 
L 305.727329 37.729491 
L 310.620436 42.011757 
L 313.355382 43.539922 
L 313.913013 44.037959 
L 315.351786 45.702338 
L 316.083943 46.162065 
L 317.703628 46.770777 
L 318.461325 47.175166 
L 318.955105 47.732797 
L 319.012571 48.307455 
L 318.49325 49.575959 
L 318.340008 50.274062 
L 318.508149 50.81041 
L 319.319055 51.836281 
L 319.680877 52.576951 
L 319.710674 53.270797 
L 319.289258 54.747881 
L 319.595742 56.063209 
L 320.998333 56.799623 
L 324.229188 57.714819 
L 324.908136 58.102181 
L 326.206438 59.055688 
L 326.74917 59.621832 
L 327.157816 60.290138 
L 327.853791 62.507893 
L 328.245409 63.295387 
L 328.76473 64.01903 
L 329.418137 64.631999 
L 330.165193 65.083212 
L 330.861168 65.253481 
L 331.529474 65.18963 
L 332.178624 64.959767 
L 333.528006 64.206326 
L 334.856105 63.218766 
L 335.417993 62.622824 
L 336.880178 60.571082 
L 337.50166 59.992167 
L 338.199763 59.600549 
L 338.925535 59.404739 
L 339.689617 59.366429 
L 340.477111 59.45582 
L 340.308971 60.511488 
L 339.472524 62.980389 
L 339.736441 63.844505 
L 340.125932 64.078624 
L 340.979405 64.402136 
L 341.443388 64.806525 
L 341.677508 65.219427 
L 343.331246 66.206987 
L 343.905904 66.304892 
L 344.44438 66.16442 
L 346.700445 64.998077 
L 347.17507 64.900173 
L 349.011847 64.861862 
L 349.635457 64.678823 
L 352.134156 63.631668 
L 356.471759 62.737756 
L 358.048876 62.158841 
L 358.519245 62.141814 
L 359.064105 62.248232 
L 359.215219 63.397548 
L 357.833912 65.900503 
L 357.682798 67.177521 
L 358.519245 67.730895 
L 361.522365 66.594349 
L 362.7632 66.624147 
L 363.171846 67.062589 
L 364.240284 68.654605 
L 366.506991 70.131689 
L 367.002899 70.723374 
L 367.209351 71.357626 
L 367.40516 73.434908 
L 368.550219 76.210293 
L 369.080182 77.065895 
L 369.701664 77.85339 
L 370.425307 78.577033 
L 372.504718 80.109454 
L 372.985728 80.743707 
L 373.166639 81.429039 
L 373.115558 82.131399 
L 372.80056 83.523349 
L 372.80056 84.200168 
L 372.977214 84.753542 
L 373.328394 85.247323 
L 374.820377 86.932986 
L 375.552533 88.20149 
L 375.948409 89.60621 
L 375.971821 91.198226 
L 375.331184 93.288278 
L 375.43973 93.990638 
L 375.865403 94.552526 
L 376.442189 94.990968 
L 378.361973 96.204135 
L 378.915347 96.778793 
L 380.207263 98.796481 
L 380.300911 99.400937 
L 380.156183 100.005392 
L 378.91109 101.891121 
L 378.608863 102.559427 
L 378.519471 103.291584 
L 378.63866 103.98543 
L 379.417641 106.032916 
L 380.656348 105.998862 
L 383.127377 105.577446 
L 384.327774 105.641297 
L 384.919459 105.875417 
L 386.443367 106.941727 
L 387.045694 107.177975 
L 388.942065 107.676012 
L 389.972193 108.259183 
L 390.853335 109.044549 
L 391.447148 110.012954 
L 391.640829 111.172912 
L 391.176846 114.271809 
L 391.187488 114.989067 
L 391.34073 115.689298 
L 391.630187 116.444867 
L 392.102915 116.798219 
L 394.624794 117.428171 
L 395.806036 117.281314 
L 397.051128 116.534259 
L 398.14085 115.682913 
L 399.351888 115.029506 
L 400.641676 114.859237 
L 401.948491 115.446665 
L 402.467812 116.057505 
L 402.721087 116.772635 
L 403.053112 119.049984 
L 403.325542 119.609743 
L 404.523811 121.284765 
L 404.679181 121.923274 
L 404.691951 124.681632 
L 405.00482 126.024629 
L 405.683768 127.291005 
L 406.684099 128.336031 
L 411.589976 131.581785 
L 412.639258 132.656608 
L 413.173478 134.003862 
L 412.72865 135.146793 
L 411.362241 135.361757 
L 408.548545 135.078685 
L 407.70997 135.693782 
L 408.205878 136.721781 
L 410.806738 139.101291 
L 411.538895 139.352438 
L 412.326389 139.367337 
L 414.086545 139.0119 
L 414.957046 139.0119 
L 415.787107 139.241763 
L 416.536291 139.746185 
L 416.968349 140.31233 
L 417.1748 140.944454 
L 417.191827 141.621273 
L 416.746999 143.711326 
L 416.802336 144.360476 
L 417.151388 145.328881 
L 419.226542 145.973775 
L 422.316925 148.868349 
L 424.57913 149.769655 
L 425.428592 149.662228 
L 428.033708 148.889633 
L 429.300084 148.702337 
L 430.068423 148.964125 
L 430.717574 149.594121 
L 431.781755 150.898807 
L 436.319425 153.501795 
L 437.758198 154.557463 
L 438.632956 155.057629 
L 440.561253 155.491815 
L 441.440266 155.964311 
L 442.15114 156.749677 
L 442.542759 157.55207 
L 444.462542 164.124455 
L 444.509366 165.011982 
L 445.645912 165.671775 
L 448.425554 168.887731 
L 449.874969 170.071101 
L 455.057533 172.446354 
L 459.625 175.926228 
L 459.625 175.926228 
" clip-path="url(#p71f854a75f)" style="fill: none; stroke: #000000"/>
   </g>
  </g>
 </g>
 <defs>
  <clipPath id="p71f854a75f">
   <rect x="0" y="0" width="558" height="397.395166"/>
  </clipPath>
 </defs>
</svg>
