<?xml version="1.0" encoding="utf-8" standalone="no"?>
<!DOCTYPE svg PUBLIC "-//W3C//DTD SVG 1.1//EN"
  "http://www.w3.org/Graphics/SVG/1.1/DTD/svg11.dtd">
<svg xmlns:xlink="http://www.w3.org/1999/xlink" width="558pt" height="417.736343pt" viewBox="0 0 558 417.736343" xmlns="http://www.w3.org/2000/svg" version="1.1">
 <metadata>
  <rdf:RDF xmlns:dc="http://purl.org/dc/elements/1.1/" xmlns:cc="http://creativecommons.org/ns#" xmlns:rdf="http://www.w3.org/1999/02/22-rdf-syntax-ns#">
   <cc:Work>
    <dc:type rdf:resource="http://purl.org/dc/dcmitype/StillImage"/>
    <dc:date>2025-01-12T14:40:07.014813</dc:date>
    <dc:format>image/svg+xml</dc:format>
    <dc:creator>
     <cc:Agent>
      <dc:title>Matplotlib v3.10.0, https://matplotlib.org/</dc:title>
     </cc:Agent>
    </dc:creator>
   </cc:Work>
  </rdf:RDF>
 </metadata>
 <defs>
  <style type="text/css">*{stroke-linejoin: round; stroke-linecap: butt}</style>
 </defs>
 <g id="figure_1">
  <g id="patch_1">
   <path d="M 0 417.736343 
L 558 417.736343 
L 558 0 
L 0 0 
z
" style="fill: #ffffff"/>
  </g>
  <g id="axes_1">
   <g id="LineCollection_1">
    <path d="M 287.876853 18.988016 
L 293.230082 27.282672 
L 293.879303 29.500845 
L 295.542221 32.86085 
L 301.721213 42.456797 
L 306.539119 52.533965 
L 307.325019 53.630238 
L 309.83648 56.079056 
L 310.798922 58.134923 
L 326.989591 76.512443 
L 332.411159 81.267704 
L 333.179973 81.76601 
L 336.813335 85.151643 
L 337.001268 86.581069 
L 337.018352 88.300936 
L 337.451167 89.758836 
L 339.928458 90.852262 
L 340.646019 92.025416 
L 342.690497 97.310305 
L 343.601684 98.534714 
L 344.69511 99.0558 
L 345.611993 99.810377 
L 348.795455 104.787741 
L 350.70895 106.701235 
L 351.369561 107.754796 
L 351.625832 108.871001 
L 352.109901 109.953037 
L 355.486991 112.91155 
L 356.563331 115.337587 
L 357.520079 120.636714 
L 358.835606 123.552515 
L 362.423408 127.544657 
L 362.696765 128.381811 
L 362.28673 129.19049 
L 361.637509 129.962152 
L 361.227474 130.71673 
L 361.199 131.394426 
L 361.705848 133.584124 
L 362.3209 139.83715 
L 362.970121 142.724477 
L 365.29365 148.621571 
L 365.481582 151.508897 
L 364.752632 154.179816 
L 363.175138 156.605854 
L 361.910865 159.601384 
L 362.269645 162.352032 
L 363.226393 165.222274 
L 363.607952 168.115295 
L 363.175138 174.089271 
L 362.748019 175.373476 
L 360.583948 177.483445 
L 359.741099 178.670837 
L 359.370929 180.054704 
L 359.074793 188.511666 
L 359.31398 189.659193 
L 359.741099 190.297024 
L 360.208083 190.553296 
L 360.583948 190.906381 
L 360.988287 193.28686 
L 361.506526 195.109235 
L 362.070323 195.428151 
L 362.446188 195.821101 
L 362.184221 196.914526 
L 361.620424 197.529578 
L 360.202388 197.996562 
L 359.036153 198.775873 
L 358.971496 199.733733 
L 360.446541 200.841277 
L 362.623904 202.909328 
L 364.043079 203.106695 
L 365.840363 201.965924 
L 370.288098 198.025036 
L 371.143419 196.865209 
L 372.298406 197.609307 
L 372.554678 198.810936 
L 373.050136 200.060972 
L 373.414612 201.453381 
L 372.322485 202.838185 
L 369.79944 206.903189 
L 369.606962 208.724239 
L 368.857852 213.515066 
L 367.044144 217.67731 
L 367.1445 220.280799 
L 365.288323 224.804808 
L 363.323831 228.103089 
L 363.906224 229.351987 
L 364.551023 229.978238 
L 365.01885 230.651904 
L 364.753822 232.176346 
L 364.604303 233.983348 
L 364.131885 236.699265 
L 363.42002 237.84964 
L 362.269645 239.113913 
L 361.210389 239.580897 
L 360.749101 238.347946 
L 360.339066 236.741977 
L 359.433573 235.537501 
L 358.459741 235.332483 
L 357.878859 236.699265 
L 358.835606 236.878655 
L 359.405099 237.46808 
L 359.678455 238.330861 
L 359.741099 239.324625 
L 359.433573 240.264288 
L 358.716013 240.483542 
L 357.913028 240.543339 
L 357.354926 240.998933 
L 357.457434 241.500086 
L 357.547052 242.801102 
L 357.832417 244.143724 
L 356.587202 245.86504 
L 357.63876 246.921775 
L 357.542858 247.872706 
L 356.103489 248.258211 
L 354.748564 248.925026 
L 352.803607 250.499305 
L 351.158093 250.4491 
L 350.802651 251.452526 
L 350.681858 252.742863 
L 349.79553 253.985764 
L 350.190712 254.940107 
L 350.213491 255.333057 
L 348.308083 258.583203 
L 347.063403 259.809882 
L 345.919518 261.734151 
L 344.039407 261.687639 
L 343.054972 261.819575 
L 342.331716 261.785405 
L 341.570872 262.065657 
L 340.7348 262.146114 
L 340.667583 263.129288 
L 341.226289 263.811038 
L 341.318708 264.628189 
L 340.959638 265.559088 
L 339.39267 266.158762 
L 337.357665 264.7353 
L 336.7868 264.15939 
L 334.952422 265.769812 
L 334.117041 267.05267 
L 333.849173 268.418605 
L 333.281769 268.745815 
L 332.946111 268.058116 
L 332.111186 267.316783 
L 332.347396 269.400629 
L 331.813344 269.399745 
L 331.5779 268.928689 
L 331.277416 268.817439 
L 329.878745 269.561667 
L 329.411477 269.09013 
L 328.845557 267.51378 
L 329.079511 266.093995 
L 329.613966 264.291823 
L 329.714506 263.281928 
L 329.380864 263.036238 
L 328.746439 263.800566 
L 326.610364 266.886133 
L 325.642784 266.940955 
L 325.575772 265.520981 
L 325.642294 264.182985 
L 325.17621 264.127323 
L 324.569248 265.236529 
L 324.07477 266.913934 
L 322.340429 266.750302 
L 317.732508 266.811175 
L 317.467834 265.525979 
L 316.999229 264.844133 
L 316.363216 266.78598 
L 315.662204 267.060358 
L 314.03299 266.45887 
L 313.270519 265.287784 
L 312.433365 265.208055 
L 311.357025 265.888598 
L 311.357025 262.827577 
L 311.066584 262.574152 
L 310.468617 262.776322 
L 309.961768 263.419849 
L 309.921904 264.501884 
L 308.811394 263.790019 
L 307.945765 262.764932 
L 306.989018 262.129948 
L 305.582372 262.591237 
L 305.889898 261.603168 
L 305.309015 260.199369 
L 305.582372 259.678284 
L 304.881896 257.838823 
L 304.471862 257.645196 
L 303.668877 258.243163 
L 302.797554 259.365063 
L 302.780469 260.113945 
L 303.668877 261.631642 
L 304.164336 263.482493 
L 304.454777 264.131714 
L 305.052744 264.974563 
L 306.220203 266.264463 
L 306.391051 266.913685 
L 306.060745 267.844805 
L 306.613153 267.907449 
L 307.97424 268.323178 
L 307.359188 268.659179 
L 306.744136 268.793009 
L 305.3261 268.795857 
L 304.580065 268.653484 
L 304.369353 268.283314 
L 304.335183 267.81633 
L 304.101692 267.366431 
L 302.951317 266.466633 
L 299.175582 265.376055 
L 298.116326 265.321953 
L 295.798492 265.683581 
L 295.166356 265.939853 
L 295.211915 266.432463 
L 296.020594 267.366431 
L 294.722152 267.579991 
L 292.324589 268.570907 
L 289.57394 269.185959 
L 289.21516 270.07152 
L 289.078482 271.033962 
L 288.332447 271.666099 
L 288.332447 272.141625 
L 295.314424 269.100535 
L 296.498968 269.035044 
L 296.738155 270.265147 
L 297.159579 271.167793 
L 297.301952 271.970777 
L 296.738155 272.901897 
L 295.844052 273.311932 
L 294.47727 273.499864 
L 293.110488 273.44861 
L 292.204995 273.141084 
L 291.732317 273.824475 
L 292.056927 274.15478 
L 292.689064 274.456611 
L 293.161743 275.054578 
L 293.252861 275.942987 
L 293.161743 277.400887 
L 292.63781 280.265434 
L 293.281336 280.769435 
L 293.896388 280.601434 
L 294.380456 280.043332 
L 294.596863 279.354246 
L 295.542221 280.265434 
L 294.568389 281.700555 
L 292.802962 283.591269 
L 291.23656 283.978347 
L 289.133908 283.862561 
L 289.169863 282.792034 
L 291.094485 282.691471 
L 291.441875 282.22164 
L 287.096649 281.820148 
L 286.191156 281.524012 
L 285.188849 280.379332 
L 285.046476 279.804145 
L 285.764036 279.433975 
L 287.3757 278.921432 
L 285.786816 276.301767 
L 284.642136 277.230039 
L 283.491762 279.052415 
L 281.868708 279.137839 
L 280.388028 277.503396 
L 279.613518 277.096209 
L 278.024635 276.962378 
L 277.324159 277.309768 
L 276.936904 278.155464 
L 276.794531 279.228958 
L 276.828701 280.265434 
L 275.34802 280.060417 
L 272.096219 280.18001 
L 270.814861 279.593433 
L 270.666793 279.21472 
L 270.575674 277.919125 
L 270.251063 277.850786 
L 269.470859 277.967532 
L 268.462857 277.776752 
L 266.817024 277.660006 
L 266.236142 277.400887 
L 265.911531 276.839937 
L 265.945701 276.290377 
L 266.236142 275.293765 
L 266.122243 270.108537 
L 266.236142 269.274231 
L 267.107465 267.702431 
L 267.192889 266.845345 
L 266.099464 267.918839 
L 265.199666 269.171722 
L 264.089156 270.111384 
L 262.409153 270.230978 
L 263.690511 272.70827 
L 262.819187 273.192338 
L 260.922778 273.158169 
L 259.111792 274.097831 
L 258.377147 272.417829 
L 257.932943 271.73159 
L 257.147043 271.233284 
L 256.942026 273.488474 
L 256.190296 275.270985 
L 254.7267 276.347326 
L 252.858765 276.484004 
L 251.446424 276.102444 
L 250.894017 276.153699 
L 250.466897 276.484004 
L 249.424726 275.777834 
L 248.234487 275.510172 
L 245.398415 275.532952 
L 244.453058 275.401969 
L 244.077193 275.046036 
L 243.906345 274.513561 
L 243.49631 273.835865 
L 242.693326 273.311932 
L 242.505394 273.850102 
L 242.77875 275.054578 
L 241.99285 276.785835 
L 241.343629 277.400887 
L 238.695489 279.137839 
L 237.226199 279.676009 
L 236.172638 278.932822 
L 234.851416 276.723191 
L 233.75799 276.364411 
L 232.99487 277.258514 
L 232.619006 278.659465 
L 232.698734 279.829772 
L 233.347956 281.068418 
L 234.429991 282.668692 
L 235.671485 284.063948 
L 236.781995 284.650525 
L 237.567894 285.487679 
L 238.30254 285.77812 
L 239.173863 285.328221 
L 241.343629 283.653914 
L 242.847089 283.488761 
L 244.128447 283.693778 
L 245.324381 283.756422 
L 246.639908 283.178387 
L 246.560179 284.559407 
L 246.332382 285.538933 
L 245.637602 287.51792 
L 244.834617 291.011755 
L 244.253735 291.820435 
L 241.793528 292.498131 
L 239.845864 291.695146 
L 238.285455 291.42179 
L 237.004097 293.733929 
L 236.491554 293.531759 
L 236.39474 293.659895 
L 236.04735 293.733929 
L 236.594062 294.656507 
L 237.004097 295.641729 
L 237.51664 298.768242 
L 237.197724 299.349124 
L 236.474469 299.018819 
L 235.329789 298.027902 
L 233.655482 297.857054 
L 232.408293 297.290409 
L 231.605309 296.25678 
L 231.263614 294.690676 
L 231.690733 293.209996 
L 232.601921 291.752096 
L 233.262532 290.373924 
L 232.937921 289.192227 
L 232.374124 288.534464 
L 231.263614 286.561172 
L 230.973172 286.407409 
L 230.170188 286.347613 
L 229.828493 286.045782 
L 229.794323 285.687001 
L 229.913917 285.265577 
L 230.118934 284.997916 
L 229.059678 283.16415 
L 228.87744 282.480759 
L 228.940085 282.067877 
L 229.31595 281.025706 
L 229.162187 280.632756 
L 228.837576 280.325231 
L 228.512965 280.236959 
L 228.359202 280.5274 
L 228.120016 280.684011 
L 226.924081 283.178387 
L 226.223606 283.844694 
L 225.864826 283.878863 
L 223.478652 284.570796 
L 222.089091 284.713169 
L 219.065086 284.650525 
L 217.926102 284.929577 
L 218.848679 285.553171 
L 220.65397 286.202392 
L 222.140345 286.561172 
L 222.140345 287.002529 
L 219.167595 287.782734 
L 217.664135 288.477514 
L 217.407863 289.431414 
L 218.005831 289.832906 
L 219.321358 289.397244 
L 220.021834 289.644974 
L 220.517292 290.31128 
L 220.369224 290.556161 
L 219.993359 290.63589 
L 219.799732 290.823823 
L 220.773564 293.608641 
L 222.795262 295.100711 
L 224.982112 296.25678 
L 226.479877 298.027902 
L 225.762317 297.936783 
L 224.00828 298.027902 
L 227.0152 298.981802 
L 227.403605 299.756649 
L 227.601673 301.214952 
L 226.240691 302.24784 
L 224.873909 302.193739 
L 224.00828 302.373129 
L 220.824818 300.738686 
L 219.799732 300.465329 
L 218.894239 300.607702 
L 217.766644 301.034822 
L 216.809896 301.598619 
L 216.405557 302.133942 
L 216.57071 302.356044 
L 217.407863 303.80825 
L 218.388947 303.985529 
L 218.981521 304.30944 
L 221.641457 303.737312 
L 223.097093 304.759302 
L 219.777867 307.271316 
L 218.598924 308.652918 
L 217.316724 308.168091 
L 215.300156 309.430185 
L 215.511454 310.650701 
L 216.405557 311.453685 
L 214.469067 311.461573 
L 211.610857 308.343839 
L 210.625209 306.672796 
L 207.999849 304.329335 
L 207.196865 304.480251 
L 204.423437 305.676185 
L 204.90181 306.672796 
L 203.762826 306.348186 
L 202.663705 306.171643 
L 201.724043 305.764456 
L 201.074821 304.759302 
L 200.989398 303.731368 
L 201.433602 303.133401 
L 203.489469 302.005806 
L 204.90181 300.465329 
L 205.773134 298.956174 
L 206.274287 298.437936 
L 207.293678 298.027902 
L 207.225339 299.195361 
L 206.883644 300.328651 
L 205.858558 302.373129 
L 207.90873 302.262078 
L 209.622902 301.746687 
L 210.647989 300.579228 
L 210.625209 298.51197 
L 210.215174 297.703291 
L 209.674157 297.242002 
L 209.258427 296.700984 
L 209.195783 295.641729 
L 209.571648 295.086474 
L 211.587651 293.249861 
L 212.316601 293.565929 
L 212.794975 293.993048 
L 212.914568 294.539761 
L 212.544398 295.206067 
L 212.965823 296.120102 
L 213.56379 296.757934 
L 214.366774 296.974341 
L 215.44881 296.641188 
L 215.904404 296.154272 
L 216.861151 294.462879 
L 217.407863 293.733929 
L 216.434032 292.540843 
L 216.058167 291.293654 
L 215.562708 290.729857 
L 214.235791 291.581248 
L 212.709551 292.113723 
L 211.445278 291.245247 
L 209.719716 288.95304 
L 208.728799 290.234398 
L 207.316458 293.221386 
L 206.336931 294.206608 
L 205.32893 294.542608 
L 204.474691 294.505591 
L 202.720655 294.206608 
L 201.894891 294.445795 
L 201.126076 295.026677 
L 199.861803 296.402001 
L 199.298005 296.794951 
L 196.735289 298.027902 
L 194.463015 299.323497 
L 193.079148 299.733532 
L 192.959555 300.311566 
L 192.993724 301.083229 
L 192.862741 301.90045 
L 192.401452 302.475637 
L 191.752231 303.102079 
L 191.42762 303.848114 
L 191.951553 304.759302 
L 188.090395 307.89151 
L 188.215683 310.784532 
L 187.560767 311.265753 
L 185.698527 310.496938 
L 185.083475 311.109142 
L 184.793034 311.795381 
L 184.827203 312.547111 
L 185.220153 313.364332 
L 184.31466 313.127993 
L 182.355606 311.974771 
L 179.667602 311.325549 
L 179.05255 311.018023 
L 178.505838 309.676869 
L 178.796279 306.131779 
L 178.528617 304.759302 
L 178.915872 303.885131 
L 178.830448 302.80879 
L 178.369159 301.866281 
L 177.57187 301.37367 
L 176.814445 301.55306 
L 176.051325 302.145332 
L 175.464748 302.902757 
L 175.231256 303.569063 
L 175.516003 304.5372 
L 175.960207 305.380049 
L 175.982986 305.969473 
L 173.82461 306.564593 
L 174.103661 307.418831 
L 175.669765 309.061817 
L 172.987456 310.346022 
L 171.979455 311.11199 
L 173.260813 311.610296 
L 173.329152 311.951991 
L 173.249423 312.293686 
L 173.021626 312.447449 
L 172.594507 312.376263 
L 171.60359 311.974771 
L 170.681012 312.088669 
L 170.49308 312.410432 
L 170.48169 312.931518 
L 170.122909 313.623451 
L 169.576197 313.92813 
L 167.503245 314.360944 
L 166.72304 314.904809 
L 166.443989 315.357556 
L 164.598833 320.762038 
L 164.598833 321.570718 
L 162.890356 321.268887 
L 159.667029 322.145905 
L 158.85835 322.009227 
L 158.761536 321.183463 
L 159.422147 319.500613 
L 159.291164 318.706171 
L 158.653333 318.253424 
L 157.770619 318.108204 
L 155.942549 318.185085 
L 155.942549 317.749424 
L 156.432312 317.066033 
L 156.56899 315.964065 
L 156.808177 315.927048 
L 157.121398 316.012472 
L 157.423229 315.841624 
L 158.414146 314.355249 
L 158.602078 313.640536 
L 158.334417 312.925823 
L 157.987026 312.698026 
L 157.474483 312.549958 
L 155.680582 312.276602 
L 155.578074 311.897889 
L 155.942549 311.453685 
L 155.971023 310.556735 
L 156.23299 309.693954 
L 156.107702 309.232665 
L 154.985802 309.540191 
L 155.293327 307.851646 
L 156.688584 307.003102 
L 158.550824 306.706966 
L 160.293471 306.672796 
L 159.974555 306.131779 
L 159.541741 305.716049 
L 158.995028 305.425608 
L 158.334417 305.237676 
L 159.439232 304.599844 
L 160.122623 303.853809 
L 160.145403 303.198893 
L 159.291164 302.80879 
L 158.977943 302.911299 
L 158.345807 303.56052 
L 157.901603 303.80825 
L 157.32072 303.802555 
L 156.415227 303.341266 
L 155.942549 303.329876 
L 155.515429 303.648792 
L 155.224988 304.127165 
L 154.985802 304.759302 
L 154.365055 304.8732 
L 151.585932 304.782082 
L 150.765863 304.901675 
L 149.735082 305.237676 
L 149.604098 304.127165 
L 149.006131 303.483639 
L 147.343214 302.80879 
L 147.365993 302.586688 
L 147.018603 302.022891 
L 146.597178 301.684043 
L 146.181449 302.401603 
L 145.685991 302.637943 
L 145.122193 302.731909 
L 144.677989 302.589536 
L 143.043546 301.37367 
L 142.804359 300.670346 
L 142.923952 300.468177 
L 143.208699 300.37421 
L 143.482055 299.986956 
L 143.761106 300.314414 
L 144.461582 300.322956 
L 144.96843 299.986956 
L 144.677989 299.269395 
L 142.804359 298.51197 
L 141.352153 297.634952 
L 141.23256 295.618949 
L 141.841917 293.377996 
L 142.576562 291.820435 
L 142.650596 291.290807 
L 142.593647 290.641585 
L 142.696156 290.094873 
L 143.265648 289.867076 
L 144.336294 290.037923 
L 144.746328 290.268568 
L 145.207617 291.102874 
L 147.343214 293.733929 
L 146.676907 294.457184 
L 146.47189 295.15766 
L 146.819281 296.641188 
L 148.265791 299.986956 
L 149.137115 300.416922 
L 152.605323 300.895296 
L 154.091698 301.740992 
L 154.894683 301.681195 
L 155.464175 300.465329 
L 154.678276 300.562143 
L 154.262546 300.391295 
L 152.822383 300.132994 
L 152.143736 299.259243 
L 151.252706 298.52486 
L 151.500508 296.917392 
L 150.576373 297.056573 
L 150.129712 298.046331 
L 149.402959 298.100133 
L 148.963563 296.793611 
L 148.748072 295.046607 
L 149.28019 294.050898 
L 148.876656 292.827425 
L 150.791049 292.671662 
L 153.723996 293.198567 
L 154.105746 293.758032 
L 153.909461 295.220304 
L 154.074614 295.641729 
L 154.803414 296.029728 
L 155.227242 296.501881 
L 156.139583 296.992048 
L 157.395407 297.401518 
L 158.154528 298.0078 
L 159.870283 298.985914 
L 160.173877 298.677123 
L 158.708629 297.083026 
L 159.579501 296.927198 
L 162.540778 298.29076 
L 164.558169 298.821123 
L 166.022564 298.51197 
L 164.547579 298.306953 
L 163.351645 297.683359 
L 161.250218 296.162814 
L 161.762761 295.641729 
L 160.247911 294.730541 
L 157.958552 292.315893 
L 156.688584 291.820435 
L 154.945937 291.532841 
L 152.876287 291.64315 
L 151.449254 290.880772 
L 149.686016 291.272816 
L 148.06819 290.834259 
L 147.85524 290.169758 
L 148.855941 289.139132 
L 149.836457 288.808848 
L 151.921803 289.07644 
L 154.582462 288.098703 
L 157.782009 290.037923 
L 158.85835 289.867076 
L 159.815097 290.388161 
L 159.507571 289.041312 
L 159.644249 287.811208 
L 160.481403 286.91141 
L 162.195575 286.561172 
L 165.401818 287.349919 
L 167.041956 287.44958 
L 166.546497 286.561172 
L 167.628533 286.114121 
L 168.209415 286.01446 
L 168.938365 286.045782 
L 167.896194 285.06056 
L 166.30731 284.821373 
L 162.673949 285.089034 
L 162.947305 284.411339 
L 162.673949 282.742726 
L 162.93022 282.281437 
L 163.607916 281.512622 
L 163.630696 280.786519 
L 163.066899 279.752891 
L 162.104457 279.513704 
L 161.062285 279.915196 
L 160.293471 280.786519 
L 160.208047 281.367402 
L 160.669336 282.546251 
L 160.771844 283.178387 
L 160.652251 283.272354 
L 159.815097 284.650525 
L 159.029198 287.036698 
L 158.300247 287.851073 
L 156.910686 287.953581 
L 156.910686 287.791276 
L 156.472177 287.51792 
L 156.756923 287.144902 
L 157.423229 286.045782 
L 156.472177 285.647137 
L 155.834345 285.880629 
L 155.219293 286.324833 
L 154.296716 286.561172 
L 152.434476 286.219477 
L 151.842204 286.450121 
L 151.725162 287.172682 
L 150.765863 287.159139 
L 149.256708 287.569174 
L 148.522063 287.261648 
L 148.282876 286.51846 
L 148.784029 285.82368 
L 150.213455 284.650525 
L 151.022134 283.500151 
L 151.170202 282.480759 
L 150.98227 281.435741 
L 151.221457 280.92035 
L 152.12695 280.265434 
L 151.255626 279.701636 
L 150.492506 278.531329 
L 150.076777 277.1617 
L 150.213455 276.011326 
L 151.187287 275.27668 
L 152.50851 274.533493 
L 152.918544 273.918441 
L 151.170202 273.576746 
L 150.372913 273.696339 
L 149.530064 274.376882 
L 148.317046 274.821086 
L 148.419554 275.504477 
L 148.76125 276.307462 
L 148.784029 276.962378 
L 147.804502 277.694176 
L 146.540229 277.765362 
L 145.315821 277.437904 
L 144.438802 276.962378 
L 145.39555 276.484004 
L 144.256565 275.686715 
L 143.82375 275.165629 
L 143.482055 274.533493 
L 144.285039 274.194645 
L 145.070939 274.228814 
L 146.819281 274.533493 
L 146.608568 273.030033 
L 148.561927 271.438302 
L 148.043689 269.971859 
L 146.050466 267.708126 
L 144.820362 266.785549 
L 143.482055 266.409684 
L 144.034463 267.981483 
L 143.550394 268.881281 
L 142.559477 268.909755 
L 141.568561 267.844805 
L 142.223477 267.09877 
L 140.423881 265.139716 
L 140.173304 263.977951 
L 141.181306 263.018356 
L 142.610732 262.861746 
L 143.8807 263.394221 
L 144.438802 264.501884 
L 145.32721 264.0349 
L 145.822669 263.231916 
L 146.386466 261.631642 
L 146.881925 262.428932 
L 146.973043 263.100933 
L 146.785111 264.393681 
L 146.386466 265.452936 
L 146.523144 265.868666 
L 147.343214 265.888598 
L 147.690604 267.206973 
L 147.946875 267.43477 
L 148.784029 267.844805 
L 149.461725 268.041279 
L 150.640575 268.075449 
L 151.170202 268.323178 
L 150.765863 269.120468 
L 150.879761 269.889282 
L 151.380915 270.603995 
L 152.12695 271.233284 
L 153.892376 267.955856 
L 154.074614 266.845345 
L 154.040444 265.598157 
L 153.698749 265.151106 
L 152.383221 264.880597 
L 151.825119 264.624325 
L 151.36383 264.239918 
L 150.646269 262.668119 
L 148.351215 260.472725 
L 147.821587 259.461876 
L 147.97535 259.120181 
L 148.630266 258.453875 
L 148.784029 257.807501 
L 148.043689 257.380382 
L 147.684909 256.825127 
L 147.821587 255.85699 
L 146.921789 256.147431 
L 145.993517 256.269872 
L 144.000293 256.289804 
L 144.780498 255.501057 
L 146.061856 255.259023 
L 147.514061 255.193531 
L 148.784029 254.940107 
L 148.146198 254.649666 
L 147.889926 254.51014 
L 147.343214 254.421869 
L 147.684909 253.789732 
L 149.000436 252.730476 
L 149.239623 252.200848 
L 148.784029 250.816982 
L 149.023216 249.726404 
L 149.632573 248.650063 
L 151.170202 246.733721 
L 151.580237 247.081112 
L 152.605323 248.168842 
L 153.841122 248.476368 
L 154.467563 248.442199 
L 154.296716 247.929655 
L 151.990271 245.788364 
L 151.648576 245.042329 
L 152.161119 243.387953 
L 153.362748 241.340628 
L 155.258856 237.729684 
L 156.857814 235.853779 
L 159.140516 235.187248 
L 161.741433 234.751295 
L 163.965563 234.653306 
L 164.99157 233.983718 
L 165.977102 232.825144 
L 167.370522 232.533825 
L 169.900807 234.965161 
L 170.84047 235.221432 
L 169.929282 232.607462 
L 169.280061 231.420071 
L 168.220805 230.924612 
L 158.292003 232.245404 
L 154.833505 230.490581 
L 155.101035 227.854773 
L 156.739838 227.19159 
L 158.170094 226.042726 
L 159.494032 224.808867 
L 164.170953 222.658693 
L 166.12789 220.437857 
L 166.425775 218.348645 
L 168.71862 217.122766 
L 171.228725 216.916949 
L 173.685295 217.163584 
L 175.242646 218.139508 
L 176.358851 218.367305 
L 177.104886 219.415171 
L 177.395327 218.845678 
L 177.634514 218.054084 
L 177.737023 217.231168 
L 176.158187 216.244038 
L 174.820141 215.70505 
L 171.415657 213.845535 
L 171.60359 213.241873 
L 172.184472 212.592652 
L 172.765354 212.205397 
L 173.403186 212.085804 
L 178.164142 212.233872 
L 178.796279 211.96621 
L 179.223398 211.336921 
L 179.382856 210.821531 
L 179.718856 210.465598 
L 180.681299 210.331767 
L 180.988825 210.10397 
L 180.624349 209.591427 
L 179.878314 209.064646 
L 179.05255 208.816917 
L 178.830448 208.95929 
L 173.687932 210.644988 
L 171.96237 210.713327 
L 165.229125 210.318974 
L 165.197579 209.11425 
L 164.985623 207.456646 
L 164.339465 206.999901 
L 162.251565 206.419188 
L 159.172193 206.810587 
L 158.869959 204.699937 
L 172.150302 203.631689 
L 173.277897 203.082129 
L 174.479526 203.366875 
L 175.948817 202.757518 
L 178.528617 201.171482 
L 181.803199 200.115073 
L 183.187065 199.312089 
L 183.312354 198.30124 
L 177.771192 199.685107 
L 176.358851 200.473854 
L 175.174307 201.396431 
L 173.864475 201.906127 
L 172.304065 202.119687 
L 170.84047 202.64362 
L 169.775519 202.222195 
L 169.416739 201.735279 
L 169.30284 201.0946 
L 168.938365 200.214735 
L 168.357483 199.454462 
L 167.178634 198.198732 
L 166.546497 197.34734 
L 167.520329 196.709509 
L 167.064735 196.271 
L 165.231884 195.709535 
L 163.630696 193.483334 
L 162.400545 193.051284 
L 161.47015 193.486208 
L 161.029854 193.483053 
L 160.993895 192.712311 
L 159.412684 191.89415 
L 158.046362 192.068353 
L 157.389059 193.839267 
L 156.910686 193.483334 
L 157.189368 191.438966 
L 159.565558 190.464782 
L 161.663844 189.929531 
L 164.598833 190.613093 
L 163.562357 189.229226 
L 162.97578 188.685361 
L 162.195575 188.224072 
L 161.728592 188.135801 
L 161.170489 188.400615 
L 160.771844 188.224072 
L 159.815097 187.267325 
L 161.284387 184.004133 
L 162.127236 182.566165 
L 163.152323 182.016605 
L 162.377813 181.250638 
L 159.405063 180.515992 
L 158.334417 180.057551 
L 159.387978 179.271652 
L 162.503101 178.662295 
L 163.152323 177.933344 
L 162.702424 177.005072 
L 161.597608 176.77158 
L 159.291164 176.76019 
L 158.81279 176.492529 
L 157.423229 175.27951 
L 157.423229 174.806831 
L 158.334417 174.806831 
L 157.285814 173.238267 
L 158.553552 172.672745 
L 159.998014 172.320487 
L 161.344484 170.738331 
L 164.226391 170.091526 
L 165.58975 169.504857 
L 161.506489 169.504857 
L 160.521268 169.957603 
L 159.012113 171.768589 
L 157.901603 171.939437 
L 157.206822 171.258894 
L 156.56899 169.966146 
L 156.164651 168.639228 
L 156.21021 167.856176 
L 157.668111 166.480852 
L 158.345807 165.632309 
L 158.123705 165.250749 
L 156.781999 165.641054 
L 155.626738 164.889145 
L 155.294845 164.834256 
L 154.969867 164.191245 
L 155.275959 163.604903 
L 155.217097 162.963365 
L 154.864718 161.760623 
L 154.438766 161.250758 
L 154.408098 160.957626 
L 155.373778 160.908935 
L 156.773125 160.386156 
L 158.232812 160.424827 
L 158.341702 159.572321 
L 158.761536 158.818332 
L 158.190715 158.210755 
L 157.361105 158.071672 
L 156.237477 157.178206 
L 156.948277 156.358559 
L 157.933182 155.721947 
L 157.266998 154.752025 
L 155.589222 154.499284 
L 155.24994 153.330494 
L 155.786145 152.469674 
L 157.423229 152.260627 
L 156.158956 150.967879 
L 155.942549 150.352828 
L 155.355972 150.75432 
L 154.365055 151.622796 
L 153.254545 152.004355 
L 153.032443 152.499814 
L 153.072307 152.992425 
L 153.566889 153.600993 
L 153.653963 154.787824 
L 153.138433 156.15218 
L 153.445914 157.98453 
L 152.702917 159.548885 
L 152.06949 160.188855 
L 150.774137 159.376089 
L 149.420965 159.327667 
L 148.07448 158.615433 
L 148.411705 154.835699 
L 148.827382 153.470822 
L 148.023577 153.163629 
L 148.265791 151.389304 
L 147.514061 150.666048 
L 146.386466 150.825506 
L 145.75433 151.736694 
L 145.583482 152.855747 
L 145.076634 153.675816 
L 143.482055 153.695748 
L 144.136971 154.772089 
L 145.412634 156.409379 
L 145.873923 157.562601 
L 145.105108 158.086534 
L 145.207617 158.664569 
L 146.386466 159.948774 
L 145.315821 160.119622 
L 144.410328 160.535352 
L 143.652903 161.133319 
L 143.043546 161.859421 
L 142.975207 160.825793 
L 142.576562 159.948774 
L 143.539004 158.240297 
L 141.483137 155.529513 
L 142.098189 154.171274 
L 141.568561 152.260627 
L 140.275813 152.841509 
L 138.424963 154.720834 
L 135.537636 155.483954 
L 134.820076 155.523819 
L 133.971532 155.128021 
L 133.476074 154.151342 
L 133.36787 153.507815 
L 133.709565 153.217374 
L 136.596892 153.240154 
L 137.331537 152.838662 
L 137.314452 151.782253 
L 136.562722 150.683133 
L 135.486382 150.258861 
L 134.358787 149.994047 
L 133.453294 149.39608 
L 133.094514 150.233234 
L 132.889496 151.975881 
L 132.496547 152.78456 
L 131.676478 153.382527 
L 131.403121 152.81873 
L 131.488545 151.064693 
L 131.351867 149.361911 
L 131.545494 148.889232 
L 133.339395 147.061161 
L 133.692481 146.42333 
L 133.971532 145.529227 
L 134.495465 146.81628 
L 135.355398 147.960959 
L 135.725569 147.681908 
L 136.186857 147.710383 
L 137.314452 147.960959 
L 136.579807 147.129501 
L 135.833772 146.05316 
L 137.826996 146.531534 
L 138.647065 146.360686 
L 139.176692 145.529227 
L 137.388486 145.426718 
L 136.289366 145.028074 
L 136.158383 144.15675 
L 137.314452 142.66468 
L 135.731263 141.613967 
L 135.833772 140.640135 
L 137.041096 139.854235 
L 138.749573 139.361624 
L 138.305369 141.070101 
L 138.476217 141.54278 
L 139.438659 141.707933 
L 141.175611 141.682306 
L 141.642595 141.423187 
L 142.098189 140.793898 
L 142.223477 139.219251 
L 142.046934 137.103587 
L 142.371545 135.378025 
L 144.000293 134.976533 
L 143.789581 135.941822 
L 143.840835 137.453825 
L 144.148361 138.985759 
L 145.019685 140.828067 
L 144.592565 141.477288 
L 143.909174 142.058171 
L 143.482055 142.66468 
L 143.504835 143.308207 
L 144.000293 144.618039 
L 143.618733 144.948345 
L 142.098189 145.791193 
L 142.166528 146.394855 
L 142.394325 147.032687 
L 142.764495 147.405704 
L 143.265648 147.220619 
L 144.444497 146.349296 
L 145.32721 146.329364 
L 147.343214 147.439874 
L 145.896703 144.928412 
L 145.38416 143.365156 
L 146.130195 142.66468 
L 147.25779 143.82075 
L 147.946875 144.17953 
L 148.265791 143.422105 
L 148.561927 143.185766 
L 149.290878 142.949426 
L 150.691829 142.66468 
L 150.691829 142.229018 
L 150.133726 142.160679 
L 148.784029 141.707933 
L 148.784029 141.272271 
L 150.469727 140.956203 
L 151.460644 139.666303 
L 151.716915 138.094504 
L 151.170202 136.932739 
L 150.560846 136.770434 
L 148.72708 136.744807 
L 147.821587 136.451518 
L 147.143891 135.790907 
L 146.921789 135.141686 
L 147.25779 134.913889 
L 148.265791 135.497618 
L 148.72708 134.412735 
L 148.231622 133.769209 
L 147.155281 133.507242 
L 145.873923 133.584124 
L 146.392161 133.045953 
L 147.086942 132.658699 
L 147.838672 132.55619 
L 149.774946 133.370564 
L 150.042608 133.154157 
L 149.735082 132.627377 
L 149.735082 132.106291 
L 152.314882 132.072121 
L 153.550681 132.419512 
L 154.074614 133.344937 
L 153.721528 133.917277 
L 153.049527 134.523786 
L 152.639493 135.318228 
L 153.083697 136.451518 
L 153.698749 135.958907 
L 154.490343 135.614364 
L 155.173734 135.625754 
L 155.464175 136.212331 
L 155.543904 136.702095 
L 155.868515 137.146299 
L 155.942549 137.624672 
L 155.81726 137.80691 
L 155.185124 138.410572 
L 154.985802 138.843386 
L 154.985802 141.969899 
L 155.219293 142.875392 
L 155.731837 143.510376 
L 156.24438 143.749563 
L 156.472177 143.422105 
L 156.756923 141.679458 
L 158.038281 138.336538 
L 158.334417 136.690705 
L 158.710282 136.30345 
L 159.558826 136.764739 
L 160.771844 137.84108 
L 162.155711 139.760269 
L 163.152323 139.794438 
L 163.152323 139.361624 
L 162.651169 138.829149 
L 162.041812 137.40257 
L 161.506489 136.690705 
L 156.910686 132.866563 
L 157.149873 132.111986 
L 157.74784 132.19741 
L 158.4654 132.738428 
L 159.581605 133.854633 
L 160.173877 134.276057 
L 160.891438 134.538024 
L 161.762761 134.540871 
L 162.417677 134.233345 
L 162.480322 133.752124 
L 162.001948 133.302225 
L 161.011031 133.10575 
L 159.678419 132.593207 
L 158.228789 131.507941 
L 157.575625 129.89208 
L 157.423229 128.80893 
L 158.704587 128.780455 
L 159.820792 129.210422 
L 160.823099 129.913745 
L 166.195253 132.93033 
L 166.895083 133.885641 
L 166.56529 134.831919 
L 165.885886 135.471991 
L 166.022564 135.973144 
L 166.717345 137.038095 
L 166.802769 137.693011 
L 166.546497 138.843386 
L 167.315312 138.416267 
L 167.622838 137.898029 
L 167.81077 137.317147 
L 167.544494 135.600125 
L 167.829555 135.033066 
L 168.920824 133.460765 
L 170.075572 133.028329 
L 171.159386 133.020326 
L 172.371161 133.144635 
L 173.712249 133.537302 
L 175.409563 133.901964 
L 176.626513 134.540871 
L 178.101498 135.75389 
L 178.204007 137.248807 
L 177.104886 140.272812 
L 177.94204 139.828608 
L 179.257568 138.470369 
L 179.975128 138.365012 
L 180.476281 138.9402 
L 180.766722 139.970981 
L 180.846451 142.397019 
L 180.521841 143.348071 
L 180.453502 143.900479 
L 180.59018 144.475666 
L 181.210927 145.31282 
L 181.803199 147.491128 
L 181.603876 148.114722 
L 180.453502 148.396621 
L 180.664214 148.986046 
L 180.93757 149.387538 
L 181.34191 149.660894 
L 181.922792 149.874454 
L 182.332827 148.302655 
L 183.021912 147.368687 
L 183.374998 146.372076 
L 182.794115 144.618039 
L 184.212152 144.948345 
L 185.698527 145.096413 
L 183.295269 142.960816 
L 182.577708 141.784814 
L 184.007134 141.272271 
L 185.294187 141.101423 
L 188.335277 140.119049 
L 190.573382 138.752267 
L 191.626943 138.353623 
L 192.384367 137.670232 
L 192.862741 135.973144 
L 192.726063 135.671313 
L 191.951553 134.976533 
L 192.327418 134.694634 
L 193.062063 134.669007 
L 194.035895 134.236193 
L 194.656642 134.162159 
L 195.117931 133.917277 
L 195.300168 133.10575 
L 191.114399 134.045413 
L 190.482263 134.760126 
L 190.704365 136.924197 
L 190.197517 137.41396 
L 188.568768 137.84108 
L 186.250934 137.58196 
L 183.500286 136.297755 
L 181.017299 134.344396 
L 180.07317 132.474646 
L 184.263406 132.106291 
L 184.263406 131.670629 
L 183.972965 131.559578 
L 183.312354 131.155239 
L 184.098253 131.072662 
L 184.844288 131.106832 
L 185.527679 131.294764 
L 186.131341 131.670629 
L 185.835205 130.338017 
L 184.878458 129.150625 
L 184.183677 127.789539 
L 184.69622 125.944383 
L 183.904626 125.659637 
L 183.295269 126.306011 
L 182.919404 127.419369 
L 182.794115 128.544116 
L 182.469505 129.765677 
L 181.803199 130.047576 
L 181.142587 129.517948 
L 178.454583 130.016254 
L 175.231256 129.241744 
L 175.252781 128.449099 
L 174.949351 127.752714 
L 175.202915 126.810527 
L 175.0661 125.611658 
L 175.877309 124.424122 
L 176.844236 123.364202 
L 179.14946 122.572281 
L 180.920485 122.550209 
L 182.8112 122.140174 
L 183.20415 121.67319 
L 183.312354 120.377595 
L 182.879539 120.124171 
L 181.905707 120.548443 
L 180.453502 121.553597 
L 179.548009 121.405529 
L 178.881703 121.092308 
L 178.522922 120.5399 
L 178.528617 119.685662 
L 176.8657 120.363358 
L 175.516003 121.132173 
L 172.378099 123.700583 
L 171.56942 123.931228 
L 170.81769 123.911295 
L 170.362096 123.552515 
L 170.390571 122.908989 
L 170.81769 122.282547 
L 171.848471 121.120783 
L 169.809689 121.496648 
L 169.160467 121.334342 
L 168.938365 120.377595 
L 169.31423 119.668577 
L 170.168469 119.267085 
L 171.142301 119.002271 
L 171.848471 118.686203 
L 172.697015 117.760777 
L 172.474913 117.521591 
L 170.601283 117.729455 
L 169.980536 117.424777 
L 169.490773 116.673047 
L 169.023789 115.733385 
L 168.459992 114.862061 
L 168.972535 114.679824 
L 169.416739 114.343823 
L 169.929282 114.657044 
L 170.703792 114.622874 
L 172.064879 114.343823 
L 173.175389 114.588705 
L 174.103661 115.047146 
L 175.020544 115.283486 
L 176.096885 114.862061 
L 176.011461 115.642266 
L 176.096885 116.399691 
L 176.43858 116.986268 
L 177.104886 117.251082 
L 177.839532 117.020437 
L 178.181227 116.362674 
L 178.528617 114.862061 
L 179.707467 113.455415 
L 180.675604 113.563618 
L 181.769029 114.090399 
L 183.312354 113.911009 
L 182.982048 113.338669 
L 182.554929 112.914397 
L 182.013911 112.629651 
L 181.358995 112.475888 
L 180.386794 112.504826 
L 179.942645 111.971391 
L 178.897031 111.820294 
L 178.054266 112.033123 
L 177.215457 111.995128 
L 175.890756 111.785248 
L 173.698091 111.232154 
L 170.65278 109.390581 
L 170.49149 108.582928 
L 171.847492 107.012536 
L 172.769817 106.27182 
L 172.568088 105.796983 
L 168.90033 105.424032 
L 167.192127 107.158024 
L 165.424966 106.083468 
L 166.145376 104.811706 
L 167.07235 103.700981 
L 166.490113 102.915657 
L 164.088203 101.890896 
L 164.24954 100.612309 
L 164.020521 99.608393 
L 164.702324 98.669056 
L 167.30982 97.943674 
L 167.459646 97.36124 
L 166.515783 97.157189 
L 166.260355 97.766456 
L 164.820607 97.891222 
L 164.446536 97.192105 
L 164.292494 95.911175 
L 164.634542 94.218368 
L 163.746666 92.568724 
L 162.405156 90.775537 
L 161.605999 90.155609 
L 161.589984 89.211305 
L 161.301472 87.799782 
L 160.549742 85.595847 
L 159.541741 79.843973 
L 159.815097 78.898616 
L 160.74337 78.761938 
L 164.598833 79.855363 
L 165.828937 79.644651 
L 166.854023 79.263091 
L 167.765211 79.120718 
L 168.699178 79.616177 
L 169.046569 80.44194 
L 169.183247 81.731841 
L 169.080738 83.055911 
L 168.699178 83.961404 
L 168.670704 85.601542 
L 170.81769 87.02812 
L 173.539864 87.93646 
L 175.231256 88.019037 
L 173.915729 86.939849 
L 169.883723 84.633405 
L 171.056877 82.150418 
L 171.404267 80.664043 
L 171.108131 79.616177 
L 170.44752 78.519904 
L 170.310842 77.1218 
L 170.629758 75.718001 
L 171.364403 74.598948 
L 170.84047 74.077863 
L 170.151384 74.154744 
L 169.089878 74.728209 
L 168.604045 68.709942 
L 168.972906 67.042838 
L 169.815498 66.556449 
L 171.110125 66.444344 
L 172.914647 65.901903 
L 175.69918 64.148009 
L 181.676886 56.938961 
L 182.899187 55.95895 
L 185.59693 54.309928 
L 186.750522 53.259399 
L 189.1228 48.63599 
L 190.395729 47.359444 
L 194.232599 44.871446 
L 198.691468 42.674557 
L 203.381779 41.179227 
L 207.894892 40.795902 
L 210.122519 40.98214 
L 218.750955 40.389071 
L 225.386823 41.971192 
L 227.495112 41.819308 
L 231.606819 40.839297 
L 245.10638 39.909914 
L 245.681368 40.217297 
L 246.574588 41.233471 
L 247.435262 41.916948 
L 248.397192 42.110418 
L 253.02241 41.345576 
L 260.363451 41.681889 
L 265.129704 41.385355 
L 269.93212 40.0401 
L 274.401838 37.769078 
L 278.126603 34.702475 
L 279.746695 32.883488 
L 281.099182 30.941548 
L 282.010484 28.78263 
L 282.314251 26.300056 
L 281.721182 23.906081 
L 281.569298 22.685588 
L 282.010484 21.781519 
L 283.919878 20.597188 
L 287.876853 18.988016 
L 287.876853 18.988016 
" clip-path="url(#p340c002a4e)" style="fill: none; stroke: #000000"/>
    <path d="M 150.752167 170.527995 
L 151.278406 171.822691 
L 152.223763 172.995845 
L 152.622408 174.089271 
L 151.956102 173.838694 
L 148.846673 173.981067 
L 147.838672 173.850084 
L 147.647815 172.803338 
L 147.985193 172.430796 
L 148.522764 172.032466 
L 148.806809 171.412656 
L 147.138196 172.2612 
L 146.357992 171.959369 
L 146.574399 170.914351 
L 147.838672 169.504857 
L 147.360298 169.072043 
L 146.403551 169.983231 
L 146.079404 169.354058 
L 145.344819 169.670472 
L 145.72712 167.990702 
L 145.458194 165.427291 
L 145.13559 163.877961 
L 144.412347 161.923956 
L 145.017303 161.286889 
L 146.257215 160.360148 
L 147.591187 159.9944 
L 148.522063 161.193115 
L 148.647351 161.623082 
L 148.343471 162.136172 
L 147.809788 162.480086 
L 147.872693 162.960812 
L 149.051691 165.108376 
L 149.239623 165.791766 
L 148.932097 166.361259 
L 149.293226 166.863696 
L 150.087065 167.242004 
L 150.708914 168.115295 
L 149.239623 168.115295 
L 149.239623 168.54811 
L 149.717997 168.624991 
L 150.708914 169.072043 
L 150.631568 169.512733 
L 150.561323 169.859263 
L 150.752167 170.527995 
" clip-path="url(#p340c002a4e)" style="fill: none; stroke: #000000"/>
    <path d="M 143.043546 76.501053 
L 144.421717 76.483968 
L 145.703075 76.643426 
L 146.352297 77.224308 
L 145.891008 78.465802 
L 144.649514 79.314346 
L 143.111885 79.394074 
L 140.196084 78.898616 
L 139.552557 79.097938 
L 138.766658 79.428244 
L 138.088962 79.442481 
L 137.809911 78.682209 
L 137.963674 78.443022 
L 138.766658 76.512443 
L 139.626592 75.851832 
L 140.611813 75.64112 
L 141.733713 75.868917 
L 143.043546 76.501053 
" clip-path="url(#p340c002a4e)" style="fill: none; stroke: #000000"/>
    <path d="M 188.585853 379.12362 
L 189.115481 380.03196 
L 188.79087 380.342333 
L 188.113174 380.507486 
L 187.629106 380.991555 
L 187.663275 381.398742 
L 188.107479 382.045116 
L 188.107479 382.423828 
L 187.868293 382.799693 
L 187.270326 383.457457 
L 187.150732 383.662474 
L 185.888233 384.882092 
L 183.510575 386.469192 
L 182.773156 387.792101 
L 181.720889 389.336955 
L 181.670758 389.956093 
L 181.205232 390.866553 
L 179.47967 391.034553 
L 178.813364 391.327842 
L 176.975283 391.192455 
L 174.291689 392.965856 
L 167.218942 394.053494 
L 164.853331 395.736895 
L 161.956795 396.275918 
L 158.855414 396.016298 
L 155.311198 396.569407 
L 152.364761 395.827949 
L 145.714603 395.907743 
L 143.640623 396.720179 
L 142.405714 398.551853 
L 141.278119 398.748328 
L 140.150525 398.295581 
L 138.557358 396.134899 
L 136.435123 395.531046 
L 134.375872 393.725405 
L 133.658311 391.527164 
L 134.905499 388.679702 
L 136.084349 386.914276 
L 136.813299 386.293529 
L 139.245032 385.089052 
L 141.322244 382.072535 
L 143.231877 381.663762 
L 144.11488 380.070925 
L 147.389415 379.127299 
L 154.528683 377.418426 
L 156.316966 376.132418 
L 163.139893 375.535774 
L 167.783977 373.846286 
L 168.896219 374.108741 
L 174.551497 373.347327 
L 177.830382 373.120557 
L 180.00016 373.425462 
L 180.829367 374.465172 
L 181.860148 375.137173 
L 185.237238 376.256225 
L 186.262324 377.124701 
L 186.95141 379.220433 
L 187.629106 380.040502 
L 187.953717 379.721587 
L 188.397921 379.416908 
L 188.585853 379.12362 
" clip-path="url(#p340c002a4e)" style="fill: none; stroke: #000000"/>
    <path d="M 204.468996 308.745749 
L 206.655847 308.532189 
L 207.794832 308.603376 
L 208.751579 308.984936 
L 209.514699 310.121073 
L 209.286902 311.422363 
L 208.364324 312.487314 
L 207.071576 312.925823 
L 204.18425 313.364332 
L 203.068045 313.233349 
L 202.247976 312.903043 
L 200.573668 311.974771 
L 200.573668 311.453685 
L 200.955228 311.063583 
L 201.023567 310.738972 
L 200.750211 310.425751 
L 200.095295 310.061276 
L 201.063432 309.471852 
L 202.179637 309.095987 
L 204.468996 308.745749 
" clip-path="url(#p340c002a4e)" style="fill: none; stroke: #000000"/>
    <path d="M 148.977657 307.714967 
L 149.08586 308.67741 
L 148.897928 309.75375 
L 148.522063 310.795921 
L 147.143891 313.233349 
L 146.585789 313.973689 
L 145.891008 314.360944 
L 145.771415 314.144537 
L 144.57548 313.210569 
L 144.023073 312.925823 
L 144.023073 313.364332 
L 143.738327 314.486232 
L 137.075266 317.487457 
L 136.272281 317.715254 
L 133.328006 317.920271 
L 132.513631 317.749424 
L 132.359868 317.140067 
L 132.752818 316.627524 
L 133.271056 316.200404 
L 133.470379 315.841624 
L 133.094514 315.40881 
L 131.078511 314.360944 
L 131.078511 315.841624 
L 129.60922 314.409351 
L 130.480544 312.071584 
L 132.473767 310.18087 
L 134.427126 310.061276 
L 135.059262 308.549274 
L 135.469297 308.011104 
L 136.118518 307.413137 
L 136.870248 307.071441 
L 137.536554 306.977475 
L 138.043403 306.667102 
L 138.23703 305.676185 
L 139.057099 306.507644 
L 140.167609 306.60161 
L 141.158526 306.06344 
L 141.585645 304.998489 
L 141.050323 304.124318 
L 139.250727 302.954011 
L 139.71771 302.373129 
L 140.851 302.30479 
L 142.00707 302.825875 
L 143.009376 303.483639 
L 143.755411 303.80825 
L 143.926259 304.004724 
L 144.131276 304.446081 
L 144.467277 304.927302 
L 144.934261 305.237676 
L 145.253176 305.152252 
L 146.836365 304.329335 
L 146.899009 304.935845 
L 148.977657 307.714967 
" clip-path="url(#p340c002a4e)" style="fill: none; stroke: #000000"/>
    <path d="M 247.089807 294.690676 
L 247.818758 294.844439 
L 248.456589 295.675898 
L 248.957742 296.700984 
L 249.550015 298.455021 
L 249.612659 299.47726 
L 249.401947 300.471024 
L 248.895098 301.433466 
L 248.194623 302.025738 
L 247.408723 302.076993 
L 246.622824 301.729602 
L 244.145532 299.650955 
L 243.855091 298.842276 
L 244.276515 297.555223 
L 244.584041 297.219223 
L 245.893873 296.402001 
L 246.127365 295.983424 
L 246.656993 294.206608 
L 245.597737 293.278335 
L 245.723026 292.71169 
L 246.486145 292.421249 
L 247.357469 292.338673 
L 248.109199 292.617724 
L 248.297131 293.27264 
L 247.938351 294.044302 
L 247.089807 294.690676 
" clip-path="url(#p340c002a4e)" style="fill: none; stroke: #000000"/>
    <path d="M 121.613547 292.677521 
L 122.450701 293.301115 
L 122.667108 293.591556 
L 122.758227 294.126879 
L 122.604464 294.676439 
L 122.314023 295.188982 
L 121.254767 296.364984 
L 120.765003 296.66112 
L 120.280935 296.69529 
L 119.563374 296.641188 
L 119.557679 296.421933 
L 118.543983 295.93217 
L 117.444862 295.547762 
L 117.137337 295.641729 
L 116.5052 294.474269 
L 116.983574 293.933251 
L 119.050831 293.249861 
L 120.320799 291.81474 
L 120.753613 291.632502 
L 121.01558 291.774875 
L 121.613547 292.677521 
" clip-path="url(#p340c002a4e)" style="fill: none; stroke: #000000"/>
    <path d="M 122.883515 287.945039 
L 122.91199 289.431414 
L 122.587379 289.308973 
L 121.79009 289.123888 
L 121.437004 288.95304 
L 120.833342 289.610804 
L 119.876595 289.616499 
L 118.999577 289.462736 
L 118.612322 289.644974 
L 118.469949 290.584636 
L 118.094084 291.4104 
L 117.484727 292.028299 
L 116.653268 292.338673 
L 115.833199 292.258944 
L 115.229537 291.789113 
L 114.865062 291.045925 
L 114.745469 290.123347 
L 114.956181 289.252024 
L 115.514283 288.636972 
L 116.283098 288.226938 
L 117.137337 287.953581 
L 118.088389 288.255412 
L 119.341272 288.030463 
L 121.630632 287.310055 
L 122.097615 287.258801 
L 122.433616 287.30436 
L 122.689888 287.509377 
L 122.883515 287.945039 
" clip-path="url(#p340c002a4e)" style="fill: none; stroke: #000000"/>
    <path d="M 126.300469 278.659465 
L 126.6023 277.731193 
L 127.285691 277.591667 
L 128.065896 278.033024 
L 128.618303 278.821771 
L 128.783456 279.829772 
L 128.567049 280.806452 
L 128.031726 281.643605 
L 127.217352 282.22164 
L 126.209351 282.469369 
L 125.628468 282.287132 
L 125.172874 281.962521 
L 124.580602 281.785979 
L 122.296938 282.207403 
L 121.437004 282.22164 
L 121.437004 281.785979 
L 122.12609 281.29052 
L 123.384668 279.638992 
L 124.341416 278.921432 
L 124.791314 278.944211 
L 125.457621 279.095127 
L 126.038503 279.086585 
L 126.300469 278.659465 
" clip-path="url(#p340c002a4e)" style="fill: none; stroke: #000000"/>
    <path d="M 267.209974 285.561713 
L 267.568754 286.356155 
L 267.363737 287.056631 
L 266.976482 287.799818 
L 266.771465 288.713854 
L 266.965092 290.157517 
L 266.908143 290.983281 
L 266.509498 291.342061 
L 265.951396 291.60118 
L 266.543668 293.022064 
L 266.253227 293.733929 
L 265.176886 293.899082 
L 264.1518 293.392234 
L 263.046984 292.993589 
L 261.748542 293.489047 
L 260.609557 293.614336 
L 259.914776 292.258944 
L 259.128877 289.431414 
L 257.978502 288.918871 
L 257.061619 289.439956 
L 256.440873 290.618806 
L 256.207381 292.079554 
L 255.780261 292.694605 
L 254.789345 292.720233 
L 253.741479 292.424097 
L 253.103647 292.079554 
L 252.670833 291.450265 
L 252.568324 290.932026 
L 252.55124 290.319822 
L 252.397477 289.431414 
L 250.466897 284.26327 
L 250.210626 283.016082 
L 250.398558 281.785979 
L 251.201542 280.5274 
L 251.736865 280.205637 
L 252.283578 280.123061 
L 252.705002 279.889569 
L 253.035308 278.343397 
L 253.445343 277.90204 
L 254.567243 277.181632 
L 255.48982 276.81431 
L 256.549076 277.081971 
L 257.477349 277.762515 
L 258.018367 278.636686 
L 257.921553 279.556416 
L 257.306501 280.436282 
L 255.734702 281.785979 
L 256.019448 282.270047 
L 256.344059 283.494456 
L 256.737009 284.132287 
L 257.334976 284.473983 
L 258.832741 284.886865 
L 259.675589 286.125511 
L 261.030981 285.929036 
L 262.750848 285.373781 
L 264.373902 285.089034 
L 266.7316 285.413645 
L 267.209974 285.561713 
" clip-path="url(#p340c002a4e)" style="fill: none; stroke: #000000"/>
    <path d="M 314.722725 281.785979 
L 314.642996 282.61459 
L 314.329775 283.494456 
L 313.714723 283.984219 
L 312.763671 283.653914 
L 313.150926 284.593576 
L 314.056419 286.176765 
L 314.244351 287.261648 
L 313.709028 287.435343 
L 312.48462 287.087953 
L 311.169092 286.51846 
L 310.371803 286.045782 
L 310.155396 287.022461 
L 309.938989 287.552089 
L 308.72597 288.713854 
L 308.33302 289.622194 
L 309.164479 290.146127 
L 310.314854 290.541924 
L 310.895736 291.080095 
L 309.80231 291.871689 
L 304.733828 293.164437 
L 303.207588 293.249861 
L 305.599457 291.820435 
L 304.60854 291.43318 
L 304.232675 290.812433 
L 304.289624 289.978127 
L 304.642709 288.95304 
L 302.472943 289.867076 
L 301.829417 289.499753 
L 301.516196 288.693921 
L 301.55606 287.885242 
L 301.99457 287.51792 
L 303.737216 287.227478 
L 304.232675 286.455816 
L 304.266844 285.365238 
L 304.642709 284.132287 
L 303.685962 283.653914 
L 302.968402 284.382864 
L 300.45694 285.296899 
L 299.34643 286.045782 
L 298.549141 285.02639 
L 297.552529 284.126592 
L 296.738155 283.118591 
L 296.521748 281.785979 
L 296.971647 280.982994 
L 297.894224 280.242654 
L 298.959175 279.673162 
L 299.870363 279.354246 
L 302.490028 278.910042 
L 303.207588 278.921432 
L 304.357963 279.320076 
L 305.274846 279.812687 
L 306.214508 280.1914 
L 307.512951 280.265434 
L 307.512951 279.829772 
L 306.214508 279.129296 
L 305.474168 278.084278 
L 305.143863 276.891191 
L 305.069829 275.772139 
L 305.992406 275.866105 
L 310.895736 273.576746 
L 310.058582 272.29254 
L 310.451532 271.016877 
L 311.527872 270.310707 
L 312.763671 270.709351 
L 313.071197 271.290234 
L 313.093977 271.96793 
L 312.638383 274.564815 
L 312.672552 274.974849 
L 312.997163 275.797766 
L 313.424282 276.45553 
L 313.731808 277.133226 
L 313.714723 278.052956 
L 313.435672 278.887262 
L 312.330857 281.264893 
L 313.748893 280.854858 
L 314.426589 280.470451 
L 314.654386 280.607129 
L 314.722725 281.785979 
" clip-path="url(#p340c002a4e)" style="fill: none; stroke: #000000"/>
    <path d="M 130.121763 269.035044 
L 129.745898 269.114773 
L 127.883658 268.707586 
L 127.217352 268.795857 
L 126.96108 268.639246 
L 126.790233 268.485484 
L 126.607995 268.36589 
L 126.300469 268.323178 
L 126.847182 266.102158 
L 127.217352 265.452936 
L 127.701421 265.22514 
L 128.53288 264.997343 
L 129.301694 264.689817 
L 129.64339 264.239918 
L 130.173018 263.288865 
L 131.437291 262.616864 
L 132.872412 262.337813 
L 133.943057 262.574152 
L 131.813156 263.590696 
L 131.323392 264.180121 
L 131.266443 264.880597 
L 131.573969 265.601005 
L 132.513631 266.845345 
L 131.761901 267.101617 
L 130.976002 267.730906 
L 130.378035 268.465551 
L 130.121763 269.035044 
" clip-path="url(#p340c002a4e)" style="fill: none; stroke: #000000"/>
    <path d="M 161.801141 96.65738 
L 162.075958 96.882154 
L 162.34958 97.223848 
L 162.720451 97.502226 
L 163.010084 97.974122 
L 163.184122 98.341043 
L 162.80342 98.466934 
L 162.21266 98.816613 
L 161.973473 99.070037 
L 160.750624 99.30302 
L 160.209552 99.231656 
L 159.465891 99.509744 
L 157.831145 100.077625 
L 156.950263 100.706253 
L 156.462377 101.391313 
L 153.411293 103.222685 
L 152.724232 103.098091 
L 152.083198 103.156621 
L 151.805126 103.101611 
L 151.512433 102.247922 
L 150.958822 101.969248 
L 150.704101 102.191013 
L 150.473192 102.253862 
L 150.393502 102.109673 
L 150.512704 101.863135 
L 150.337774 101.522474 
L 149.912275 101.4788 
L 149.630558 101.774754 
L 149.197663 102.044962 
L 148.675015 101.857296 
L 147.922142 101.706521 
L 148.366802 101.355235 
L 148.211974 100.975575 
L 147.446622 100.396459 
L 147.260013 100.031813 
L 147.528114 99.513479 
L 147.944446 99.413085 
L 148.523586 99.652515 
L 151.694875 97.887749 
L 153.965115 97.690364 
L 155.508361 97.720117 
L 156.930974 97.123599 
L 157.417475 95.55577 
L 158.409034 95.26452 
L 159.21713 95.912202 
L 159.61008 96.034642 
L 160.014419 96.21688 
L 160.413064 96.347863 
L 160.806014 96.364948 
L 161.227848 96.430601 
L 161.801141 96.65738 
" clip-path="url(#p340c002a4e)" style="fill: none; stroke: #000000"/>
    <path d="M 465.530007 94.459996 
L 466.725941 95.177556 
L 466.640517 96.954373 
L 465.866008 98.933359 
L 465.051634 100.248886 
L 463.719021 100.781362 
L 461.93651 100.505158 
L 460.205253 99.679394 
L 459.054879 98.577426 
L 458.690404 97.150847 
L 459.282676 96.085897 
L 460.541254 95.419591 
L 463.029936 95.08359 
L 464.692853 94.596674 
L 465.530007 94.459996 
" clip-path="url(#p340c002a4e)" style="fill: none; stroke: #000000"/>
    <path d="M 147.343214 84.012658 
L 148.214537 84.559371 
L 148.886538 85.163033 
L 149.023216 85.829339 
L 148.282876 86.586763 
L 146.86484 86.655103 
L 142.115273 83.722217 
L 142.730325 83.278013 
L 143.020766 82.722758 
L 143.419411 81.40723 
L 143.635818 81.068382 
L 143.977513 80.709602 
L 144.370463 80.447635 
L 144.774803 80.367906 
L 145.036769 80.484652 
L 145.207617 80.698212 
L 145.310126 80.994348 
L 145.526533 82.275706 
L 145.606262 82.51774 
L 145.942262 82.979029 
L 146.386466 83.371979 
L 147.343214 84.012658 
" clip-path="url(#p340c002a4e)" style="fill: none; stroke: #000000"/>
    <path d="M 157.918687 90.889279 
L 157.383365 90.937685 
L 156.96194 90.783922 
L 156.227295 90.151786 
L 155.697667 89.895514 
L 155.321802 90.00087 
L 155.031361 90.23721 
L 154.763699 90.368193 
L 151.084779 90.527651 
L 149.717997 90.020803 
L 148.282876 88.497411 
L 150.435557 88.050359 
L 150.9481 87.77985 
L 151.540373 87.042357 
L 151.460644 86.703509 
L 151.067694 86.48995 
L 150.708914 86.10839 
L 148.214537 82.33835 
L 148.060774 81.76601 
L 148.317046 81.01428 
L 148.248706 77.699835 
L 148.539148 76.945257 
L 149.216844 76.743087 
L 150.868371 75.22539 
L 152.144034 74.963424 
L 153.26024 75.601255 
L 154.3138 76.589324 
L 155.373056 77.358139 
L 157.622551 78.25509 
L 158.516654 78.966955 
L 158.875435 80.091703 
L 158.795706 80.6555 
L 158.431231 81.603705 
L 158.351502 82.025129 
L 158.51096 82.497808 
L 159.160181 83.443165 
L 159.308249 83.961404 
L 159.536046 86.47856 
L 159.308249 87.065137 
L 159.695504 87.441002 
L 160.088453 88.189885 
L 160.310555 88.497411 
L 159.405063 88.927377 
L 158.619163 90.402363 
L 157.918687 90.889279 
" clip-path="url(#p340c002a4e)" style="fill: none; stroke: #000000"/>
    <path d="M 33.69531 64.046254 
L 34.464125 64.800832 
L 34.350226 65.825918 
L 33.382089 66.386868 
L 32.021002 65.737647 
L 30.238491 65.860088 
L 29.868321 65.999613 
L 29.896796 66.734258 
L 30.580187 67.004767 
L 31.400256 67.121513 
L 31.781816 67.389175 
L 30.35239 68.277583 
L 27.493538 67.961515 
L 25.363636 66.523546 
L 26.092587 64.046254 
L 27.869403 64.547408 
L 31.753341 63.471067 
L 33.69531 64.046254 
" clip-path="url(#p340c002a4e)" style="fill: none; stroke: #000000"/>
    <path d="M 213.990909 341.189731 
L 214.400944 341.491562 
L 214.902097 341.608308 
L 215.084334 341.847495 
L 214.998911 342.192037 
L 214.007994 341.793393 
L 213.051247 341.608308 
L 212.880399 341.389053 
L 212.641212 340.91068 
L 212.487449 340.32695 
L 212.225483 340.173187 
L 212.009076 339.951085 
L 211.838228 339.472711 
L 211.940736 339.190812 
L 211.906567 338.866202 
L 211.957821 338.575761 
L 212.179923 338.515964 
L 212.436195 338.587151 
L 212.760806 338.501727 
L 212.948738 338.319489 
L 213.051247 338.293862 
L 213.222094 338.592845 
L 212.982908 339.242067 
L 213.102501 339.965322 
L 213.990909 341.189731 
" clip-path="url(#p340c002a4e)" style="fill: none; stroke: #000000"/>
    <path d="M 229.583611 311.063583 
L 229.896832 311.758364 
L 229.896832 312.171246 
L 229.367204 312.641077 
L 228.091541 313.324468 
L 226.975336 313.606366 
L 226.576691 313.418434 
L 226.548217 312.820467 
L 226.075538 312.410432 
L 225.369367 312.2225 
L 225.044757 311.860872 
L 225.232689 311.581821 
L 224.469569 311.180329 
L 224.002585 310.892735 
L 224.253162 310.368802 
L 224.207603 309.975852 
L 224.088009 309.662631 
L 224.429705 309.503174 
L 224.925163 309.679716 
L 225.449096 309.930293 
L 226.428623 310.13531 
L 226.445708 310.317548 
L 226.770319 310.249209 
L 227.402455 309.730971 
L 228.045982 309.702496 
L 229.583611 311.063583 
" clip-path="url(#p340c002a4e)" style="fill: none; stroke: #000000"/>
    <path d="M 247.152452 307.117 
L 247.61374 307.327713 
L 247.921266 307.729205 
L 247.767503 308.164867 
L 246.89618 308.412596 
L 246.326688 308.432528 
L 246.17862 308.310087 
L 245.950823 308.028188 
L 245.301601 307.729205 
L 244.28221 307.447306 
L 243.598819 307.011644 
L 243.285598 306.416525 
L 242.943903 305.983711 
L 242.368715 305.727439 
L 241.873257 305.234828 
L 242.249122 304.636861 
L 243.427971 304.172725 
L 244.709329 304.030352 
L 245.620517 304.588454 
L 246.679773 306.291236 
L 246.554485 306.781 
L 246.588654 307.031577 
L 247.152452 307.117 
" clip-path="url(#p340c002a4e)" style="fill: none; stroke: #000000"/>
    <path d="M 129.387118 300.835499 
L 129.546576 300.966483 
L 129.677559 301.322415 
L 129.614915 302.048518 
L 129.398508 302.825875 
L 129.335864 303.500724 
L 128.942914 303.850962 
L 128.379117 304.195504 
L 127.792539 304.653946 
L 126.414368 305.328794 
L 125.651248 305.425608 
L 124.842569 305.231981 
L 124.591992 304.8732 
L 124.996332 304.756454 
L 125.423451 304.73937 
L 125.776536 304.446081 
L 126.192266 304.184115 
L 126.123927 303.944928 
L 124.569212 303.660182 
L 124.945077 303.290012 
L 125.913214 303.167571 
L 126.926911 303.141944 
L 127.7242 302.637943 
L 128.071591 301.954552 
L 127.729895 301.254076 
L 127.02942 300.328651 
L 126.585216 299.152649 
L 127.114843 298.825191 
L 127.969082 299.391836 
L 128.47593 299.827498 
L 129.335864 300.226142 
L 129.387118 300.835499 
" clip-path="url(#p340c002a4e)" style="fill: none; stroke: #000000"/>
    <path d="M 125.047586 302.743299 
L 124.38128 302.996723 
L 123.817482 302.606621 
L 123.544126 300.177736 
L 123.794703 298.828039 
L 124.38128 298.212987 
L 125.275383 299.827498 
L 126.021418 300.724448 
L 126.607995 301.706823 
L 126.414368 302.526892 
L 125.782231 302.703434 
L 125.047586 302.743299 
" clip-path="url(#p340c002a4e)" style="fill: none; stroke: #000000"/>
    <path d="M 83.599929 294.41732 
L 84.402913 294.246472 
L 84.539592 294.531218 
L 83.92454 295.032372 
L 83.599929 295.351288 
L 83.417692 295.749932 
L 82.312876 296.812035 
L 82.096469 297.304646 
L 81.63518 297.93963 
L 81.2764 298.346817 
L 80.991654 298.605937 
L 80.308263 298.369597 
L 79.858364 297.367291 
L 79.932398 296.433323 
L 80.319653 295.581932 
L 80.786637 294.830202 
L 81.293485 294.172438 
L 81.880062 293.813658 
L 82.455249 293.719692 
L 82.76847 293.921862 
L 83.001962 294.42871 
L 83.599929 294.41732 
" clip-path="url(#p340c002a4e)" style="fill: none; stroke: #000000"/>
    <path d="M 134.563804 291.313586 
L 134.802991 291.925791 
L 134.831465 292.674673 
L 134.427126 293.343827 
L 133.538718 293.415013 
L 132.718649 292.74586 
L 132.069427 291.968503 
L 131.317697 291.95996 
L 130.941832 292.236164 
L 130.696951 292.332978 
L 130.173018 292.369995 
L 129.677559 292.071011 
L 129.557966 291.473044 
L 128.920134 290.510602 
L 127.541963 289.314668 
L 127.251522 288.733786 
L 127.929218 288.881854 
L 128.481625 288.884701 
L 128.999863 288.665447 
L 129.745898 288.602803 
L 130.628612 288.713854 
L 131.283528 288.95304 
L 131.699257 289.326058 
L 132.314309 289.582329 
L 133.145768 289.627889 
L 133.829159 289.764567 
L 134.296143 290.114805 
L 134.546719 290.499212 
L 134.495465 290.84945 
L 134.563804 291.313586 
" clip-path="url(#p340c002a4e)" style="fill: none; stroke: #000000"/>
    <path d="M 134.187939 287.150597 
L 133.965837 287.332835 
L 133.72665 287.782734 
L 133.874718 288.728091 
L 133.453294 289.098261 
L 132.61614 289.280499 
L 131.801766 288.898939 
L 130.890578 288.255412 
L 129.717424 287.896632 
L 128.85749 287.480903 
L 129.546576 287.005376 
L 131.289223 286.769037 
L 132.308614 286.404562 
L 132.838242 286.045782 
L 133.510243 286.290663 
L 134.017091 286.860156 
L 134.187939 287.150597 
" clip-path="url(#p340c002a4e)" style="fill: none; stroke: #000000"/>
    <path d="M 127.940607 285.02639 
L 127.35403 284.360084 
L 126.869962 283.631134 
L 127.080674 283.075879 
L 128.10576 282.651607 
L 128.942914 282.58042 
L 129.60922 282.890794 
L 130.258442 282.873709 
L 130.446374 282.452285 
L 130.309696 281.632216 
L 130.976002 281.096893 
L 131.892885 281.11113 
L 132.337089 281.074113 
L 132.684479 281.233571 
L 133.02048 281.632216 
L 133.094514 282.06503 
L 132.154851 282.560488 
L 132.496547 283.648219 
L 132.325699 284.30883 
L 131.830241 284.562254 
L 131.141155 284.536627 
L 130.702646 284.946661 
L 130.71973 285.726866 
L 130.491933 286.393172 
L 129.745898 286.740562 
L 129.113762 286.69785 
L 128.959999 286.284968 
L 128.988473 286.005917 
L 127.940607 285.02639 
" clip-path="url(#p340c002a4e)" style="fill: none; stroke: #000000"/>
    <path d="M 267.432076 283.454591 
L 267.716822 283.639676 
L 268.104077 284.120897 
L 267.363737 284.27466 
L 264.197359 283.588422 
L 262.466102 284.046863 
L 261.452406 283.947202 
L 260.410235 283.426117 
L 259.795183 282.429505 
L 260.273556 281.350317 
L 261.230304 280.333773 
L 261.839661 279.377026 
L 262.477492 278.702177 
L 263.588002 278.454448 
L 263.946782 279.228958 
L 263.457019 280.3594 
L 263.212137 281.131062 
L 263.280476 281.774589 
L 263.650646 281.982453 
L 264.060681 281.222181 
L 264.88075 280.154383 
L 265.552751 280.060417 
L 265.757768 280.55018 
L 266.116548 280.829231 
L 266.463939 280.988689 
L 266.623397 281.82869 
L 267.022041 282.990455 
L 267.432076 283.454591 
" clip-path="url(#p340c002a4e)" style="fill: none; stroke: #000000"/>
    <path d="M 139.626592 278.477228 
L 139.005845 278.69933 
L 138.151606 278.67655 
L 137.804216 278.044413 
L 137.946589 277.378107 
L 138.493302 277.133226 
L 139.689236 277.133226 
L 140.09927 277.269904 
L 140.116355 277.571735 
L 139.888558 278.29499 
L 139.626592 278.477228 
" clip-path="url(#p340c002a4e)" style="fill: none; stroke: #000000"/>
    <path d="M 134.865635 269.222976 
L 135.042178 269.536197 
L 135.110517 269.894977 
L 135.093432 270.578368 
L 134.797296 270.80047 
L 134.444211 270.962775 
L 134.068346 270.846029 
L 133.441904 270.276537 
L 133.157158 270.117079 
L 132.781293 270.270842 
L 132.445292 270.242368 
L 132.342784 269.937689 
L 132.075122 269.826638 
L 131.727732 269.83518 
L 131.630918 269.681418 
L 132.137766 269.365349 
L 131.938444 269.274231 
L 131.625223 269.31979 
L 131.323392 269.245756 
L 131.454376 268.929688 
L 131.995393 268.636399 
L 132.445292 268.57945 
L 133.054649 268.810094 
L 133.948752 268.750298 
L 134.569499 268.895518 
L 134.865635 269.222976 
" clip-path="url(#p340c002a4e)" style="fill: none; stroke: #000000"/>
    <path d="M 321.317447 271.085216 
L 321.009921 272.531727 
L 320.548632 273.049965 
L 320.189852 273.149626 
L 320.019004 272.844948 
L 319.677309 271.620539 
L 319.147681 271.164945 
L 318.959748 270.806165 
L 319.045172 270.310707 
L 318.805985 269.729824 
L 318.435815 269.177417 
L 318.629443 268.673416 
L 319.369783 268.328873 
L 320.172767 268.260534 
L 320.873243 268.431382 
L 321.351616 269.314095 
L 321.317447 271.085216 
" clip-path="url(#p340c002a4e)" style="fill: none; stroke: #000000"/>
    <path d="M 140.440966 232.684344 
L 140.13344 232.422377 
L 139.911338 231.961088 
L 140.048016 231.516884 
L 140.782661 231.203664 
L 140.680152 231.089765 
L 140.332762 230.907527 
L 140.50361 230.742375 
L 140.890865 230.565832 
L 141.152831 230.264001 
L 141.574256 230.207052 
L 141.824832 230.113086 
L 141.705239 229.728678 
L 142.00707 229.740068 
L 142.798664 229.856814 
L 143.328292 229.506576 
L 143.584564 229.275932 
L 143.886395 229.463864 
L 144.034463 229.882441 
L 143.772496 230.403527 
L 142.485443 231.30902 
L 141.619815 232.094919 
L 141.073102 232.439462 
L 140.845305 232.61031 
L 140.440966 232.684344 
" clip-path="url(#p340c002a4e)" style="fill: none; stroke: #000000"/>
    <path d="M 129.370033 116.701522 
L 128.874575 116.923624 
L 128.584134 116.843895 
L 128.589829 116.593318 
L 128.806236 115.448638 
L 129.199186 114.503281 
L 129.711729 113.936636 
L 130.275526 114.247009 
L 130.76529 114.910468 
L 131.266443 115.237926 
L 132.992005 115.961181 
L 133.521633 116.428165 
L 133.231192 116.860979 
L 132.342784 117.584235 
L 131.710647 117.797794 
L 130.890578 117.897456 
L 130.195797 117.644032 
L 129.740203 117.011895 
L 129.557966 116.655962 
L 129.370033 116.701522 
" clip-path="url(#p340c002a4e)" style="fill: none; stroke: #000000"/>
    <path d="M 156.25577 113.133652 
L 156.979025 113.518059 
L 157.252381 114.363755 
L 156.944855 114.654196 
L 156.193125 114.859214 
L 155.902684 115.320503 
L 155.845735 115.750469 
L 155.236378 116.319962 
L 154.444784 116.473725 
L 153.903766 116.154809 
L 153.328579 116.200368 
L 152.872985 115.972571 
L 152.713527 115.089858 
L 152.84451 114.184365 
L 153.419697 113.546534 
L 154.655496 113.022601 
L 156.25577 113.133652 
" clip-path="url(#p340c002a4e)" style="fill: none; stroke: #000000"/>
    <path d="M 165.344868 114.799417 
L 165.515716 115.124028 
L 165.686564 115.721995 
L 165.316394 116.365521 
L 161.745676 118.634948 
L 160.122623 118.797254 
L 160.139708 118.444168 
L 160.902828 117.618404 
L 161.005336 117.145726 
L 160.68642 116.738539 
L 161.597608 115.909927 
L 161.626083 115.072773 
L 161.250218 114.039145 
L 160.73198 113.321584 
L 160.225132 112.857448 
L 160.378895 112.715075 
L 161.529269 113.159279 
L 162.514491 112.470193 
L 162.736593 112.527142 
L 162.531576 113.133652 
L 162.822017 113.683212 
L 163.642086 114.059077 
L 164.974698 114.503281 
L 165.344868 114.799417 
" clip-path="url(#p340c002a4e)" style="fill: none; stroke: #000000"/>
    <path d="M 100.565108 85.123168 
L 101.333923 85.202897 
L 101.823686 85.610084 
L 101.607279 86.370356 
L 100.940973 86.894289 
L 100.536633 87.048052 
L 100.308836 86.660798 
L 99.932971 85.795169 
L 100.018395 85.191507 
L 100.565108 85.123168 
" clip-path="url(#p340c002a4e)" style="fill: none; stroke: #000000"/>
    <path d="M 32.56202 73.391625 
L 33.120123 73.619422 
L 33.216937 74.057931 
L 32.903716 74.684372 
L 32.687309 75.401933 
L 32.402562 76.005595 
L 31.884324 76.230544 
L 31.337612 76.193527 
L 30.876323 76.32451 
L 30.517543 76.620646 
L 30.32961 76.674748 
L 30.32961 76.489663 
L 30.341 76.398544 
L 30.113203 76.056849 
L 29.5551 75.481662 
L 29.765813 74.932101 
L 30.944662 74.188914 
L 31.696392 73.568167 
L 32.049477 73.346065 
L 32.56202 73.391625 
" clip-path="url(#p340c002a4e)" style="fill: none; stroke: #000000"/>
    <path d="M 61.338471 339.196507 
L 60.996776 339.01427 
L 59.629994 337.972099 
L 58.849789 337.573454 
L 58.678942 337.029589 
L 59.020637 336.292096 
L 59.55596 335.882062 
L 60.33047 336.098469 
L 60.945521 336.730605 
L 61.947828 338.447625 
L 62.016167 339.00288 
L 61.79976 339.316101 
L 61.492234 339.267694 
L 61.338471 339.196507 
" clip-path="url(#p340c002a4e)" style="fill: none; stroke: #000000"/>
    <path d="M 164.297002 330.793647 
L 164.906359 331.007207 
L 165.487241 331.610869 
L 165.316394 331.921242 
L 165.025953 331.701987 
L 164.775376 331.667818 
L 164.650088 331.941174 
L 164.388121 331.85575 
L 163.75029 331.565309 
L 163.095373 331.579547 
L 162.719508 331.884225 
L 162.480322 332.26009 
L 161.700117 332.698599 
L 161.005336 333.219685 
L 159.951775 333.746465 
L 158.613468 333.698058 
L 157.867433 332.877989 
L 157.816179 331.818733 
L 158.431231 330.77941 
L 159.672724 330.061849 
L 160.737675 330.061849 
L 162.121541 330.793647 
L 162.531576 330.836359 
L 163.112458 330.688291 
L 163.898358 330.699681 
L 164.297002 330.793647 
" clip-path="url(#p340c002a4e)" style="fill: none; stroke: #000000"/>
    <path d="M 169.411044 331.869988 
L 169.690095 331.998123 
L 169.929282 332.339819 
L 169.70718 332.550531 
L 169.399654 332.590396 
L 169.297146 333.006125 
L 169.297146 333.712296 
L 168.94406 334.261856 
L 168.254974 334.418466 
L 167.896194 334.241924 
L 167.770906 333.917313 
L 167.434905 333.695211 
L 167.076125 333.629719 
L 166.922362 332.690057 
L 167.366566 331.075546 
L 167.520329 330.175748 
L 167.05904 329.819815 
L 166.922362 329.498052 
L 167.503245 329.036763 
L 167.537414 328.797576 
L 168.135381 328.803271 
L 169.319925 329.307272 
L 169.485078 329.990663 
L 168.818772 330.466189 
L 168.699178 330.998664 
L 169.411044 331.869988 
" clip-path="url(#p340c002a4e)" style="fill: none; stroke: #000000"/>
    <path d="M 186.017442 328.760559 
L 186.689443 329.26456 
L 187.110868 329.65751 
L 186.92863 330.534528 
L 186.757783 330.910393 
L 186.313578 331.562462 
L 185.493509 331.929784 
L 184.451338 332.003818 
L 183.682524 331.673513 
L 183.050387 331.200834 
L 182.589098 331.246393 
L 182.349911 331.596631 
L 182.087945 331.468496 
L 181.803199 330.392155 
L 182.236013 329.666052 
L 182.349911 328.999746 
L 182.623268 328.470118 
L 183.118726 328.077168 
L 184.115338 327.669981 
L 185.311272 327.923405 
L 186.017442 328.760559 
" clip-path="url(#p340c002a4e)" style="fill: none; stroke: #000000"/>
    <path d="M 165.21958 327.328286 
L 165.504326 327.669981 
L 165.561275 328.282186 
L 165.077207 328.621034 
L 164.832325 329.418323 
L 163.812934 329.463882 
L 163.249136 329.560696 
L 163.590832 330.061849 
L 163.237746 330.306731 
L 162.172796 330.067544 
L 161.620388 329.640425 
L 161.48371 329.358526 
L 161.187574 329.270255 
L 160.857268 329.213306 
L 160.788929 328.979814 
L 161.147709 328.14266 
L 161.352727 327.829439 
L 161.381201 327.615879 
L 161.244523 327.447879 
L 161.301472 327.294116 
L 161.557744 327.18876 
L 161.722897 327.037845 
L 161.677337 326.838522 
L 161.318557 326.351606 
L 161.552049 326.183606 
L 162.104457 326.331674 
L 162.645474 326.573708 
L 164.103375 326.778726 
L 164.855105 327.103336 
L 165.21958 327.328286 
" clip-path="url(#p340c002a4e)" style="fill: none; stroke: #000000"/>
    <path d="M 128.589829 321.046785 
L 128.52149 321.824142 
L 128.635388 322.328143 
L 128.305083 322.729635 
L 127.627387 322.800821 
L 127.234437 323.07133 
L 126.926911 322.951737 
L 126.63647 322.575872 
L 126.397283 322.584414 
L 126.27769 322.931804 
L 125.833486 322.985906 
L 124.386975 322.4876 
L 123.897211 321.906718 
L 123.851652 321.525158 
L 124.147788 321.192005 
L 124.181958 320.847462 
L 124.705891 320.559869 
L 127.114843 320.978445 
L 128.122845 320.85031 
L 128.589829 321.046785 
" clip-path="url(#p340c002a4e)" style="fill: none; stroke: #000000"/>
    <path d="M 182.133504 321.004073 
L 181.837368 321.257497 
L 181.205232 321.3657 
L 180.863536 320.961361 
L 180.721163 320.42319 
L 180.345298 319.998919 
L 179.80428 319.808139 
L 179.08672 319.89641 
L 178.249566 320.141292 
L 177.577565 320.135597 
L 177.309904 320.021698 
L 177.042242 319.876478 
L 175.493223 319.309833 
L 175.396409 319.073493 
L 176.11397 318.996612 
L 176.814445 318.825764 
L 177.121971 318.677696 
L 177.378243 318.575188 
L 177.93065 318.646374 
L 178.568482 318.894103 
L 179.342992 318.626442 
L 180.288349 317.98861 
L 181.000214 317.840542 
L 181.410249 318.099661 
L 181.917097 318.210712 
L 182.213233 318.193628 
L 182.509369 318.148068 
L 183.289574 318.216407 
L 184.280491 318.41573 
L 184.895542 318.714713 
L 184.758864 319.227256 
L 184.354525 319.620206 
L 184.246321 319.859393 
L 184.177982 320.346309 
L 183.739473 320.744954 
L 183.135811 320.64814 
L 182.48659 320.747801 
L 182.133504 321.004073 
" clip-path="url(#p340c002a4e)" style="fill: none; stroke: #000000"/>
    <path d="M 198.768377 318.458442 
L 199.007564 318.629289 
L 199.144242 318.956747 
L 198.717123 319.030781 
L 198.124851 318.783052 
L 197.43007 318.654916 
L 196.928917 318.817222 
L 197.111154 319.008002 
L 197.538274 319.210172 
L 197.031425 319.628749 
L 195.795627 320.431733 
L 195.078066 320.699394 
L 195.009727 320.081495 
L 195.357118 319.645833 
L 195.801322 319.400952 
L 195.550745 319.1219 
L 194.018811 318.859934 
L 194.223828 318.580883 
L 194.058675 318.227797 
L 193.591691 317.994305 
L 192.418537 317.903187 
L 191.962943 317.775051 
L 191.763621 317.664 
L 191.928774 317.533016 
L 192.447012 317.447593 
L 192.851351 317.219796 
L 193.500573 316.570574 
L 194.195353 316.092201 
L 194.138404 315.909963 
L 194.360506 315.972607 
L 194.855964 316.371252 
L 195.311558 316.935049 
L 195.573525 317.567186 
L 196.120238 317.766508 
L 197.076985 317.515932 
L 197.77746 317.45044 
L 198.102071 317.686779 
L 198.341258 318.005695 
L 198.768377 318.458442 
" clip-path="url(#p340c002a4e)" style="fill: none; stroke: #000000"/>
    <path d="M 175.840613 320.955666 
L 175.977291 321.38848 
L 176.370241 322.168685 
L 176.131054 322.356617 
L 175.789359 322.316753 
L 175.447663 322.237024 
L 174.821222 322.012074 
L 174.285899 321.724481 
L 173.989763 321.772887 
L 173.921424 322.182922 
L 173.585423 322.345227 
L 172.970372 322.111735 
L 171.911116 321.906718 
L 170.595588 321.525158 
L 170.584198 321.072412 
L 171.23342 320.662377 
L 171.062572 320.146987 
L 170.45891 320.013156 
L 169.72996 320.169766 
L 168.818772 319.961902 
L 167.998703 319.517698 
L 167.508939 319.005154 
L 167.303922 318.244882 
L 167.235583 317.379254 
L 167.292532 316.49654 
L 167.571584 315.613827 
L 168.123991 314.938979 
L 168.875721 314.639995 
L 169.280061 314.563114 
L 170.510164 314.460605 
L 171.313149 314.67986 
L 172.064879 315.101284 
L 172.896338 315.912811 
L 173.545559 317.262508 
L 173.739186 318.37017 
L 173.961288 318.882713 
L 174.342848 319.309833 
L 174.559255 319.9078 
L 175.840613 320.955666 
" clip-path="url(#p340c002a4e)" style="fill: none; stroke: #000000"/>
    <path d="M 175.738105 315.796065 
L 175.396409 315.776132 
L 175.088883 315.517013 
L 175.345155 315.101284 
L 175.669765 314.691249 
L 176.153834 313.808536 
L 177.139056 312.732196 
L 178.522922 312.100059 
L 179.975128 311.815313 
L 180.846451 311.940601 
L 181.176757 312.359178 
L 181.233706 312.820467 
L 180.869231 313.13084 
L 180.92618 313.29884 
L 181.575402 313.626299 
L 182.110725 314.121757 
L 182.577708 314.682707 
L 182.640352 315.109826 
L 182.127809 315.181013 
L 180.692688 314.816538 
L 180.094721 314.938979 
L 179.741636 315.368945 
L 177.896481 316.080811 
L 177.247259 316.801219 
L 177.042242 317.552949 
L 176.666377 317.772203 
L 176.210783 317.333694 
L 176.222173 316.610439 
L 176.074105 316.001082 
L 175.738105 315.796065 
" clip-path="url(#p340c002a4e)" style="fill: none; stroke: #000000"/>
    <path d="M 282.956439 297.839969 
L 283.132981 297.99658 
L 283.030473 298.369597 
L 282.358472 299.052988 
L 282.056641 299.218141 
L 281.606742 299.272243 
L 280.946131 299.149802 
L 280.399418 299.215293 
L 279.653383 299.519972 
L 279.288908 299.801871 
L 278.873178 299.875905 
L 278.804839 299.613938 
L 279.049721 299.166887 
L 278.981382 298.805259 
L 278.673856 298.551835 
L 278.411889 298.503428 
L 278.104364 298.309801 
L 278.132838 297.959563 
L 278.320771 297.640647 
L 278.349245 297.259087 
L 278.628297 297.036985 
L 279.100975 296.940171 
L 281.316301 297.914003 
L 281.321996 298.346817 
L 281.640911 298.375292 
L 282.956439 297.839969 
" clip-path="url(#p340c002a4e)" style="fill: none; stroke: #000000"/>
    <path d="M 289.340135 285.2037 
L 290.007491 284.978135 
L 291.084988 284.756045 
L 292.306998 284.691202 
L 292.990778 285.242411 
L 293.175357 286.140683 
L 292.804391 286.70233 
L 293.059305 287.038689 
L 292.755535 287.460008 
L 292.051294 287.22642 
L 291.773155 287.36529 
L 291.793326 287.541341 
L 292.368205 287.633948 
L 292.944228 288.024975 
L 292.661672 288.446586 
L 291.947074 289.183579 
L 290.788974 289.194385 
L 290.281415 288.661312 
L 290.007259 288.113762 
L 289.421321 288.095315 
L 289.558966 287.63632 
L 289.366467 287.177634 
L 288.463641 287.067502 
L 288.141575 286.85437 
L 288.811231 286.416789 
L 288.938421 285.883934 
L 288.261512 285.44433 
L 287.000431 285.086182 
L 286.201185 285.293328 
L 285.726603 285.273144 
L 285.576592 284.813383 
L 286.139544 284.304606 
L 286.960922 284.133247 
L 288.039722 284.493469 
L 288.863098 285.011565 
L 289.340135 285.2037 
" clip-path="url(#p340c002a4e)" style="fill: none; stroke: #000000"/>
    <path d="M 279.12945 284.081033 
L 280.177316 285.043475 
L 280.570266 285.58734 
L 280.291214 285.963205 
L 279.539484 285.963205 
L 279.186399 286.116968 
L 279.237653 286.612427 
L 279.026941 286.825986 
L 278.36633 286.672223 
L 277.956295 286.507071 
L 277.187481 286.065714 
L 276.743277 285.519001 
L 276.828701 285.140289 
L 277.307074 284.496762 
L 278.246737 283.913033 
L 279.12945 284.081033 
" clip-path="url(#p340c002a4e)" style="fill: none; stroke: #000000"/>
    <path d="M 146.221313 282.127674 
L 147.548231 282.512081 
L 147.690604 283.995609 
L 146.318127 285.03778 
L 145.566397 284.804288 
L 146.010601 284.391406 
L 146.232703 283.989914 
L 146.050466 283.710863 
L 144.097107 282.82815 
L 143.806666 282.700014 
L 141.739408 282.976218 
L 140.822526 283.346388 
L 139.786049 283.483066 
L 138.95459 283.249574 
L 138.527471 282.79398 
L 138.903336 282.426657 
L 140.013846 282.366861 
L 141.437577 281.939741 
L 141.688154 281.677775 
L 141.915951 281.484148 
L 141.98429 281.188012 
L 142.861308 280.965909 
L 143.174529 280.530248 
L 143.208699 280.017705 
L 142.661986 279.402653 
L 142.428494 278.71072 
L 143.191614 278.386109 
L 144.404633 278.625296 
L 145.651821 279.143534 
L 146.540229 279.878179 
L 146.44911 280.291061 
L 145.839754 280.356553 
L 144.774803 280.937435 
L 144.64382 281.262045 
L 144.683684 281.674928 
L 144.780498 282.002386 
L 145.230397 282.119132 
L 146.221313 282.127674 
" clip-path="url(#p340c002a4e)" style="fill: none; stroke: #000000"/>
    <path d="M 138.772353 269.322637 
L 138.903336 268.980942 
L 138.424963 268.861349 
L 136.631061 268.613619 
L 136.232417 268.328873 
L 135.617365 268.280466 
L 135.315534 268.229212 
L 135.013703 268.004262 
L 134.615058 267.83911 
L 134.239193 267.460397 
L 133.487463 266.022429 
L 133.914583 265.458631 
L 134.802991 265.21375 
L 135.62306 265.461479 
L 136.277976 265.820259 
L 136.870248 265.652259 
L 137.542249 265.361818 
L 137.975064 265.53836 
L 138.123132 265.845886 
L 138.464827 265.834496 
L 138.897641 265.731988 
L 139.074184 266.187582 
L 138.590115 266.589074 
L 137.946589 266.623243 
L 137.673233 266.882362 
L 137.673233 267.25538 
L 138.442047 267.904601 
L 139.091269 268.146636 
L 139.820219 268.1865 
L 140.235948 268.670569 
L 140.446661 269.291315 
L 140.799746 269.684265 
L 140.925034 270.219588 
L 140.651678 270.897284 
L 140.378321 271.079521 
L 140.196084 270.860267 
L 139.38171 270.706504 
L 139.040014 270.347724 
L 138.760963 269.934842 
L 138.772353 269.322637 
" clip-path="url(#p340c002a4e)" style="fill: none; stroke: #000000"/>
    <path d="M 532.532784 115.58236 
L 532.636364 115.645468 
L 532.579155 115.75035 
L 532.470225 115.694856 
L 532.532784 115.58236 
" clip-path="url(#p340c002a4e)" style="fill: none; stroke: #000000"/>
   </g>
  </g>
 </g>
 <defs>
  <clipPath id="p340c002a4e">
   <rect x="0" y="0" width="558" height="417.736343"/>
  </clipPath>
 </defs>
</svg>
