<?xml version="1.0" encoding="utf-8" standalone="no"?>
<!DOCTYPE svg PUBLIC "-//W3C//DTD SVG 1.1//EN"
  "http://www.w3.org/Graphics/SVG/1.1/DTD/svg11.dtd">
<svg xmlns:xlink="http://www.w3.org/1999/xlink" width="531.339198pt" height="554.4pt" viewBox="0 0 531.339198 554.4" xmlns="http://www.w3.org/2000/svg" version="1.1">
 <metadata>
  <rdf:RDF xmlns:dc="http://purl.org/dc/elements/1.1/" xmlns:cc="http://creativecommons.org/ns#" xmlns:rdf="http://www.w3.org/1999/02/22-rdf-syntax-ns#">
   <cc:Work>
    <dc:type rdf:resource="http://purl.org/dc/dcmitype/StillImage"/>
    <dc:date>2025-01-12T14:40:24.884134</dc:date>
    <dc:format>image/svg+xml</dc:format>
    <dc:creator>
     <cc:Agent>
      <dc:title>Matplotlib v3.10.0, https://matplotlib.org/</dc:title>
     </cc:Agent>
    </dc:creator>
   </cc:Work>
  </rdf:RDF>
 </metadata>
 <defs>
  <style type="text/css">*{stroke-linejoin: round; stroke-linecap: butt}</style>
 </defs>
 <g id="figure_1">
  <g id="patch_1">
   <path d="M 0 554.4 
L 531.339198 554.4 
L 531.339198 0 
L 0 0 
z
" style="fill: #ffffff"/>
  </g>
  <g id="axes_1">
   <g id="LineCollection_1">
    <path d="M 105.866411 493.059198 
L 103.550201 492.338571 
L 102.347403 492.503213 
L 101.185764 493.024578 
L 99.795457 493.372155 
L 98.304536 493.180073 
L 96.795321 492.741029 
L 95.33184 492.521507 
L 93.97812 493.006285 
L 93.23266 494.268537 
L 92.660987 497.92724 
L 92.20365 499.271813 
L 91.663991 499.720004 
L 89.86236 500.651128 
L 89.560237 500.899935 
L 89.304128 501.430447 
L 88.938258 503.287239 
L 87.986995 504.887921 
L 86.82993 506.369696 
L 82.892252 510.110719 
L 81.524811 510.924781 
L 80.870818 511.116862 
L 79.462218 511.290651 
L 78.767064 511.702255 
L 78.135938 512.909627 
L 77.59628 516.33966 
L 77.138942 517.684234 
L 76.178532 518.580616 
L 72.565564 519.989216 
L 69.492253 521.635632 
L 68.339762 522.824711 
L 67.534848 524.754676 
L 66.620172 524.946758 
L 60.610753 528.276178 
L 58.667067 528.998771 
L 56.805702 529.2 
L 55.076965 528.706075 
L 53.558604 527.288328 
L 52.698809 525.413243 
L 52.488433 521.772834 
L 52.095123 519.916042 
L 49.607205 516.303073 
L 48.627824 515.80768 
L 47.841881 515.690241 
L 47.073553 515.91891 
L 46.254919 516.431128 
L 45.454577 517.382391 
L 44.924066 519.129421 
L 44.192325 519.559319 
L 43.579492 519.339796 
L 41.695261 518.196452 
L 40.643384 517.958636 
L 38.493896 518.3428 
L 37.012121 519.111128 
L 35.644681 520.098977 
L 33.819903 521.123414 
L 32.173487 521.571605 
L 30.316696 521.708806 
L 26.758607 521.516725 
L 27.590962 516.321367 
L 27.572669 514.629217 
L 27.225092 513.63222 
L 26.191508 511.85775 
L 26.145775 510.915634 
L 26.982703 508.674678 
L 27.069597 507.924644 
L 26.548232 506.012972 
L 25.63813 504.659252 
L 24.910963 503.232358 
L 24.901816 501.101164 
L 25.981133 495.631404 
L 26.063454 494.039868 
L 25.697584 492.329425 
L 24.394171 488.926831 
L 24.151782 487.371883 
L 24.422421 486.286158 
L 24.865229 485.533385 
L 25.203659 484.67359 
L 25.098471 483.365603 
L 24.755468 481.700894 
L 24.700587 480.822805 
L 24.819495 480.017891 
L 25.807345 478.462942 
L 28.423317 477.575707 
L 29.420314 476.386628 
L 29.667276 475.106082 
L 29.895945 469.78267 
L 29.694716 467.916732 
L 28.908095 464.468405 
L 28.981269 462.62076 
L 30.088027 455.650931 
L 30.380723 455.193594 
L 31.304545 454.379532 
L 31.41888 453.693526 
L 31.213078 453.163014 
L 30.527071 452.220898 
L 30.380723 451.690386 
L 30.737446 450.72083 
L 31.560654 450.483014 
L 32.50277 450.418987 
L 33.216217 449.934209 
L 33.408299 448.699397 
L 33.115603 443.27537 
L 32.703999 441.912503 
L 31.533214 439.461173 
L 31.313692 437.796463 
L 37.034988 404.227867 
L 38.361268 400.971621 
L 38.832326 399.306912 
L 38.754578 397.614762 
L 37.707275 393.754831 
L 37.835329 392.227322 
L 38.60823 389.830872 
L 42.500175 384.406846 
L 42.984953 383.409849 
L 44.027683 383.821453 
L 44.677103 384.379405 
L 45.280789 384.617221 
L 46.158878 384.059269 
L 46.469867 383.382409 
L 49.300789 368.820773 
L 49.918195 366.918247 
L 50.933485 365.262684 
L 57.29048 357.917839 
L 58.845429 354.542686 
L 58.625907 351.094359 
L 56.988637 343.941595 
L 57.034371 342.121391 
L 58.122835 334.643917 
L 57.638057 330.065966 
L 57.766112 329.169583 
L 59.449115 325.666376 
L 60.592459 325.003236 
L 63.793824 322.538185 
L 67.507407 320.859755 
L 76.956007 318.714841 
L 77.815802 318.225489 
L 78.776211 317.095865 
L 80.651296 313.793886 
L 81.0629 312.366992 
L 83.056893 310.272385 
L 83.669726 308.630542 
L 83.194095 305.031293 
L 83.166654 303.32085 
L 84.291705 302.264399 
L 84.602695 301.491498 
L 84.831364 300.576823 
L 85.014299 298.683444 
L 85.252115 298.107199 
L 87.950408 295.340305 
L 88.714162 294.956141 
L 89.468769 294.718325 
L 90.282831 294.864673 
L 91.24324 295.637574 
L 92.770748 296.351021 
L 93.854639 295.19853 
L 94.929383 293.414912 
L 96.411158 292.262421 
L 97.444741 292.170954 
L 99.447881 292.390476 
L 100.636959 292.262421 
L 102.310815 291.823377 
L 103.545628 291.311158 
L 104.670679 290.524537 
L 106.440576 289.024469 
L 124.445966 265.862595 
L 154.900092 241.269254 
L 174.103707 217.114957 
L 176.637358 212.527859 
L 177.433126 208.066528 
L 176.285208 206.310351 
L 171.277359 203.470283 
L 169.438861 202.038816 
L 168.762001 200.515881 
L 168.460158 198.654516 
L 168.32753 194.835745 
L 164.051421 196.450147 
L 162.578794 196.678816 
L 161.380569 196.623936 
L 157.502344 195.956223 
L 156.212651 195.279363 
L 155.755313 194.479022 
L 156.04801 194.122298 
L 156.541934 193.861615 
L 156.679136 193.35397 
L 156.267532 192.329534 
L 151.273403 186.717999 
L 149.782481 185.762163 
L 146.498796 185.748442 
L 145.044462 188.176906 
L 143.814223 191.026121 
L 141.266851 192.25636 
L 139.77593 191.5795 
L 138.129514 190.106872 
L 136.666033 188.368988 
L 135.769651 186.919227 
L 135.531835 185.624961 
L 135.545555 184.280388 
L 135.3489 183.201071 
L 134.470811 182.693426 
L 128.26931 182.633972 
L 126.997911 182.249808 
L 126.741802 180.731447 
L 127.546716 178.888375 
L 128.662621 177.086464 
L 129.339481 175.664143 
L 129.412655 174.077181 
L 129.074225 170.802642 
L 129.183986 169.156226 
L 129.549856 168.250697 
L 131.278593 165.552404 
L 131.55162 164.49152 
L 131.754225 163.375476 
L 134.818388 154.955887 
L 134.836681 154.077798 
L 135.056204 153.5793 
L 135.431221 153.332338 
L 136.848968 152.952747 
L 137.452654 152.074659 
L 139.638729 146.12012 
L 139.766783 142.594046 
L 138.806374 139.090838 
L 136.766647 135.519029 
L 135.234565 134.110429 
L 131.113952 131.242921 
L 130.052928 129.930361 
L 129.943167 128.233638 
L 130.29989 126.35398 
L 135.284872 111.371592 
L 136.871835 108.238828 
L 137.191971 108.0376 
L 138.669172 107.589409 
L 138.952722 107.132071 
L 139.222551 105.773778 
L 140.974155 102.757635 
L 143.5261 99.954154 
L 144.651151 98.326031 
L 145.209103 96.432653 
L 145.044462 95.399069 
L 144.157226 93.542278 
L 144.020025 92.529274 
L 144.614564 90.027636 
L 144.587124 89.234155 
L 143.443779 87.125828 
L 142.007738 87.617466 
L 140.333882 89.05122 
L 138.413063 89.760094 
L 138.78808 88.369787 
L 140.727193 84.560163 
L 146.57197 76.051392 
L 146.974427 75.010949 
L 147.24883 73.988799 
L 147.697021 73.026103 
L 148.675724 72.166308 
L 149.60412 71.846171 
L 151.355724 71.889618 
L 152.256679 71.766137 
L 153.459478 71.212758 
L 156.185211 69.04955 
L 157.008419 68.715694 
L 158.691422 68.384124 
L 159.48719 68.068561 
L 165.135312 63.659824 
L 167.444868 63.014978 
L 171.624936 63.019551 
L 175.247051 63.522623 
L 178.722819 64.627094 
L 197.345615 74.745693 
L 198.964591 75.07955 
L 200.007321 74.162587 
L 201.040905 72.875181 
L 202.595853 72.09542 
L 211.779197 70.74856 
L 213.398172 70.05798 
L 214.22138 69.310233 
L 221.264383 61.396002 
L 221.456465 60.888357 
L 221.730868 60.943238 
L 224.03585 62.013408 
L 226.130457 63.769585 
L 232.432573 70.812588 
L 233.703972 72.939209 
L 234.037828 74.617638 
L 234.307658 78.690232 
L 234.92049 80.188013 
L 236.127862 80.816853 
L 243.783697 81.287911 
L 244.789841 81.825282 
L 246.500284 84.560163 
L 247.854004 85.95733 
L 249.344925 86.727944 
L 254.906153 87.850708 
L 255.980897 87.809548 
L 256.561716 87.043507 
L 256.955027 85.232449 
L 256.97332 83.860436 
L 256.589156 80.693371 
L 256.685197 79.54774 
L 257.732501 78.347228 
L 274.018301 68.443578 
L 277.891952 67.538049 
L 308.057955 65.084432 
L 315.485121 62.84805 
L 322.436656 59.319688 
L 327.805802 55.333989 
L 329.369897 54.77375 
L 331.139795 55.512351 
L 342.312558 64.63624 
L 344.169349 65.612657 
L 346.908803 66.143169 
L 369.204022 67.265933 
L 373.036513 66.790302 
L 376.750096 64.617947 
L 416.085722 25.2 
L 418.646814 26.437099 
L 420.640806 28.003481 
L 421.747564 30.056928 
L 421.628656 32.780375 
L 421.738417 33.98546 
L 422.515892 34.955016 
L 423.503741 35.858258 
L 424.244628 36.852968 
L 424.519031 37.879691 
L 424.546471 38.920135 
L 424.290362 40.982728 
L 423.942786 42.215254 
L 423.558622 43.056755 
L 423.522035 43.955424 
L 424.217188 45.361738 
L 425.269065 46.342728 
L 426.567905 47.209383 
L 427.592341 48.226959 
L 427.811863 49.65614 
L 426.869748 51.924536 
L 425.744697 53.964262 
L 425.616642 55.498631 
L 427.674662 56.241805 
L 429.064969 55.967402 
L 432.577324 54.714296 
L 434.296914 54.723443 
L 436.25432 55.745593 
L 436.482989 56.955252 
L 435.522579 58.148903 
L 431.296778 60.334978 
L 431.461419 60.819756 
L 432.851726 61.341121 
L 433.958484 62.687981 
L 432.19316 63.815319 
L 431.607767 64.499039 
L 432.732818 64.924363 
L 433.482853 64.874056 
L 435.010361 64.480746 
L 436.748245 64.366411 
L 438.504422 63.8702 
L 439.437391 63.792452 
L 439.492271 64.224636 
L 441.458824 66.762861 
L 442.794251 70.332383 
L 443.818687 70.913202 
L 444.230291 70.542758 
L 444.614455 69.694397 
L 445.538278 68.830028 
L 447.943874 68.132588 
L 449.53541 68.770574 
L 452.407492 71.834738 
L 454.072201 72.70368 
L 455.727764 73.211325 
L 457.026604 74.048253 
L 457.621143 75.909618 
L 457.401621 83.025794 
L 456.569266 86.572449 
L 454.886263 89.156408 
L 454.063054 89.574872 
L 453.157526 89.812688 
L 452.352611 90.164838 
L 451.858686 90.940025 
L 451.93186 91.898148 
L 453.020324 93.793813 
L 453.386194 94.765656 
L 453.248993 95.604871 
L 452.361758 97.772652 
L 452.096502 98.774222 
L 452.325171 99.832959 
L 453.020324 100.781935 
L 453.852679 101.689751 
L 454.502099 102.63644 
L 455.645443 106.167088 
L 456.523532 117.033435 
L 457.483941 119.059441 
L 459.331586 120.234799 
L 463.502507 121.428451 
L 465.359299 122.65869 
L 466.402029 124.524628 
L 468.972267 137.910906 
L 469.859503 139.452135 
L 472.667557 142.575752 
L 473.993837 144.688653 
L 474.798751 145.521008 
L 476.006123 145.841144 
L 476.554929 145.653636 
L 477.908649 144.665786 
L 478.128171 144.510291 
L 478.521481 143.819711 
L 478.741003 143.677936 
L 479.079433 143.838004 
L 479.756293 144.848721 
L 482.728989 146.165854 
L 483.332675 146.915888 
L 483.689399 147.697936 
L 485.49131 153.277457 
L 486.835883 160.965306 
L 490.567759 168.721755 
L 491.400114 169.535817 
L 492.616633 169.627284 
L 493.33008 168.973291 
L 493.915472 168.236977 
L 494.720387 168.113496 
L 495.607622 169.320868 
L 496.110694 173.725031 
L 496.622912 175.412608 
L 499.037656 177.891379 
L 499.851717 179.400593 
L 499.613901 181.408307 
L 498.305915 182.976975 
L 496.522298 183.992265 
L 494.921615 185.227077 
L 494.144141 187.413152 
L 494.720387 190.88892 
L 503.739089 212.6239 
L 503.748235 214.33663 
L 502.915881 218.283455 
L 502.778679 220.005332 
L 502.88844 221.834683 
L 503.254311 223.606867 
L 503.885437 225.157243 
L 504.662911 226.076492 
L 506.739225 228.015604 
L 507.187416 229.001167 
L 506.858133 229.950143 
L 505.20257 232.04475 
L 504.818406 233.121781 
L 504.726938 250.322256 
L 504.196427 252.243075 
L 501.388372 258.190753 
L 500.748099 259.19461 
L 499.84257 260.042972 
L 498.964482 260.445429 
L 497.10769 260.825019 
L 496.220455 261.270924 
L 494.180728 264.307647 
L 492.31479 271.45355 
L 487.055405 275.757099 
L 487.384688 278.903583 
L 488.921343 282.502832 
L 489.845166 286.024333 
L 488.729261 289.619009 
L 485.91206 290.894981 
L 478.631242 291.640442 
L 476.792744 292.765493 
L 473.774315 295.665015 
L 469.484486 296.643717 
L 468.8808 298.262693 
L 468.734452 300.256686 
L 467.680215 301.899862 
L 465.935544 302.232386 
L 464.490357 301.413751 
L 463.026876 301.070748 
L 461.215818 302.845218 
L 460.346876 304.427607 
L 459.605989 306.229518 
L 459.148651 308.11375 
L 459.093771 312.083442 
L 458.572405 313.8945 
L 456.27657 319.565489 
L 453.724624 322.881188 
L 452.453225 326.44385 
L 450.934864 327.82501 
L 445.254728 330.669651 
L 444.522987 331.447126 
L 443.983329 334.59361 
L 442.556435 338.389514 
L 440.425241 340.676203 
L 437.562306 342.130537 
L 433.967631 343.429377 
L 431.351658 345.222141 
L 429.759869 348.248898 
L 427.354526 357.734904 
L 426.732546 358.658726 
L 425.205038 360.469784 
L 424.811727 361.274699 
L 424.903195 362.902821 
L 425.900191 366.131626 
L 425.653229 367.933537 
L 424.894048 369.104322 
L 421.710977 371.573946 
L 408.695142 388.925343 
L 408.42074 390.672374 
L 413.908794 408.883566 
L 414.000261 412.304453 
L 408.804904 457.297348 
L 409.637258 487.371883 
L 137.425213 487.371883 
L 136.016613 486.676729 
L 132.888422 485.890108 
L 129.559003 487.627992 
L 126.202143 488.689016 
L 124.921597 489.356729 
L 121.75682 492.704442 
L 120.631769 493.637411 
L 118.500574 492.969698 
L 116.570609 492.759322 
L 112.106992 493.170926 
L 110.460575 493.55509 
L 109.394978 493.637411 
L 108.89648 493.408742 
L 108.439142 492.914817 
L 107.780576 492.475773 
L 106.682965 492.375159 
L 105.866411 493.059198 
L 105.866411 493.059198 
" clip-path="url(#p37125d5f72)" style="fill: none; stroke: #000000"/>
   </g>
  </g>
 </g>
 <defs>
  <clipPath id="p37125d5f72">
   <rect x="0" y="0" width="531.339198" height="554.4"/>
  </clipPath>
 </defs>
</svg>
